<?xml version="1.0" encoding="UTF-8"?>
<svg width="84px" height="84px" viewBox="0 0 84 84" version="1.1" xmlns="http://www.w3.org/2000/svg" xmlns:xlink="http://www.w3.org/1999/xlink">
    <!-- Generator: Sketch 53.2 (72643) - https://sketchapp.com -->
    <title>Group Copy 2</title>
    <desc>Created with Sketch.</desc>
    <g id="Page-1" stroke="none" stroke-width="1" fill="none" fill-rule="evenodd">
        <g id="Group-Copy-2" transform="translate(1.000000, 1.000000)" fill="#4A4A4A">
            <g id="Group" transform="translate(0.000000, 8.000000)" fill-rule="nonzero">
                <path d="M36.6451269,73.9994605 C16.439655,73.9994605 3.14088889e-05,57.5598337 3.14088889e-05,37.353562 C3.14088889e-05,17.1472902 16.4396566,0.70766348 36.6451269,0.70766348 C56.8522015,0.70766348 73.2918284,17.1472918 73.2918284,37.353562 C73.2918284,57.5598321 56.8522015,73.9994605 36.6451269,73.9994605 Z M36.6451269,3.99655566 C18.2527193,3.99655566 3.2889203,18.9603578 3.2889203,37.3535621 C3.2889203,55.7467665 18.2527208,70.7105717 36.6451269,70.7105717 C55.0391374,70.7105717 70.0029395,55.7467696 70.0029395,37.3535621 C70.0029395,18.9603547 55.0391372,3.99655566 36.6451269,3.99655566 Z" id="Shape" stroke="#4A4A4A"></path>
                <path d="M36.6451269,62.180819 C22.9548026,62.180819 11.8178668,51.0430803 11.8178668,37.353562 C11.8178668,23.6640436 22.9548025,12.5263082 36.6451269,12.5263082 C50.3354514,12.5263082 61.4739897,23.6640469 61.4739897,37.353562 C61.4739897,51.043077 50.3354481,62.180819 36.6451269,62.180819 Z M36.6451269,15.8151971 C24.7694727,15.8151971 15.1067557,25.4771112 15.1067557,37.353562 C15.1067557,49.2300127 24.7694727,58.8919301 36.6451269,58.8919301 C48.5223839,58.8919301 58.1851009,49.230016 58.1851009,37.353562 C58.1851009,25.4771079 48.5223838,15.8151971 36.6451269,15.8151971 Z" id="Shape" stroke="#4A4B4A"></path>
                <path d="M36.6451269,49.1810361 C30.1235526,49.1810361 24.8192557,43.8751333 24.8192557,37.3535621 C24.8192557,30.831991 30.1235525,25.5268943 36.6451269,25.5268943 C43.1667014,25.5268943 48.4726009,30.831991 48.4726009,37.3535621 C48.4726009,43.8751333 43.1666981,49.1810361 36.6451269,49.1810361 Z M36.6451269,28.8157799 C31.9382227,28.8157799 28.1081445,32.6458581 28.1081445,37.353562 C28.1081445,42.062069 31.9382227,45.892147 36.6451269,45.892147 C41.3536339,45.892147 45.183712,42.0620688 45.183712,37.353562 C45.183712,32.6458581 41.3536338,28.8157799 36.6451269,28.8157799 Z" id="Shape" stroke="#4A4A4A"></path>
            </g>
            <g id="Group" transform="translate(35.000000, 0.000000)">
                <path d="M2.09592959,46.9043633 C1.67802591,46.9043633 1.26011912,46.744858 0.9411087,46.4258476 C0.303087867,45.7878267 0.303087867,44.754233 0.9411087,44.1162121 L34.1692368,10.8872927 C34.8072576,10.2492719 35.8408514,10.2492719 36.4788722,10.8872927 C37.1168931,11.5253135 37.1168931,12.5589073 36.4788722,13.1969281 L3.25074722,46.4258476 C2.9317368,46.744858 2.51383328,46.9043633 2.09592959,46.9043633 Z" id="Path" stroke="#4A4B4A"></path>
                <path d="M38.3929347,16.7435265 C37.975031,16.7435265 37.5571273,16.5840213 37.2381169,16.2650108 L31.1019516,10.1296429 C30.4639308,9.49162046 30.4639308,8.45802671 31.1019516,7.82000588 L38.4423813,0.478778673 C38.9193019,0.00106052333 39.6434556,-0.132126213 40.2575505,0.139830157 C40.8748357,0.412584083 41.2608382,1.03704694 41.2289373,1.71095652 L41.0104151,6.29433861 L45.6791325,6.13722599 C46.3426741,6.10851509 46.9647445,6.50488557 47.2311181,7.11977807 C47.4990869,7.73467058 47.3619124,8.45084903 46.888182,8.92457956 L39.5477523,16.2650108 C39.2287421,16.5840213 38.8108384,16.7435265 38.3929347,16.7435265 Z M34.5664048,8.97482383 L38.3929347,12.8005578 L41.6516261,9.5418649 L39.349966,9.61922495 C38.9097315,9.65431614 38.4535467,9.45812471 38.1329412,9.13353156 C37.8123357,8.80893841 37.6432602,8.3647165 37.6639959,7.90932912 L37.7660792,5.77514947 L34.5664048,8.97482383 Z" id="Shape" stroke="#4A4A4A" fill-rule="nonzero"></path>
            </g>
        </g>
    </g>
</svg>