<?xml version="1.0" encoding="UTF-8"?>
<svg width="65px" height="15px" viewBox="0 0 65 15" version="1.1" xmlns="http://www.w3.org/2000/svg" xmlns:xlink="http://www.w3.org/1999/xlink">
    <!-- Generator: Sketch 53.2 (72643) - https://sketchapp.com -->
    <title>Group 4 Copy</title>
    <desc>Created with Sketch.</desc>
    <g id="Page-1" stroke="none" stroke-width="1" fill="none" fill-rule="evenodd">
        <g id="Group-4-Copy" fill="#4A4A4A" fill-rule="nonzero">
            <path d="M21.9999475,7.28197183 C21.9979208,7.10619718 21.937118,6.93887324 21.8324021,6.82140845 L19.7347061,4.45352113 C19.6928197,4.39774648 19.6522845,4.34112676 19.6110737,4.28535211 L19.5989132,4.30056338 L15.933181,0.163098592 C15.83995,0.0574647887 15.7190201,0 15.5940366,0 L0.506839396,0 C0.298758762,0 0.111621309,0.158873239 0.0352800369,0.402253521 C-0.0410612348,0.644788732 0.00893216436,0.92028169 0.161614708,1.09774648 L5.61765108,7.4484507 L4.42997006,8.93408451 L0.161614708,13.9022535 C0.00893216436,14.0797183 -0.0410612348,14.3552113 0.0352800369,14.5977465 C0.111621309,14.8402817 0.298758762,15 0.506839396,15 L15.5940366,15 C15.7244247,15 15.8500838,14.9366197 15.9446659,14.8233803 L21.843887,7.75014085 C21.945225,7.62760563 22.0019743,7.45774648 21.9999475,7.28197183 Z M15.390685,13.7315493 L12.5363322,13.7315493 L19.1327585,5.48028169 L20.7494369,7.3056338 L15.390685,13.7315493 Z M12.0593681,13.7315493 L8.71521507,13.7315493 L17.1235643,3.21295775 L18.8814403,5.1971831 L12.0593681,13.7315493 Z M16.8729218,2.92985915 L8.23757543,13.7315493 L4.89342238,13.7315493 L14.8583229,1.26676056 L15.3994677,1.26676056 L16.8729218,2.92985915 Z M6.73777345,1.26676056 L4.35565554,4.24647887 L2.62345182,2.23014085 L3.3936204,1.26676056 L6.73777345,1.26676056 Z M2.91462959,1.26676056 L2.374836,1.94197183 L1.7951828,1.26676056 L2.91462959,1.26676056 Z M4.60224461,4.53464789 L7.21473751,1.26676056 L10.5588906,1.26676056 L6.33512392,6.55098592 L4.60224461,4.53464789 Z M6.75128518,7.03521127 L6.58238857,6.83830986 L11.0365302,1.26676056 L14.3800077,1.26676056 L4.41578274,13.7315493 L1.7951828,13.7315493 L6.7506096,7.96309859 C6.85397433,7.84309859 6.91207477,7.67577465 6.91207477,7.49915493 C6.91207477,7.32253521 6.85464992,7.15521127 6.75128518,7.03521127 Z" id="Shape"></path>
            <path d="M43.9999475,7.2828169 C43.9979208,7.10704225 43.9371199,6.93971831 43.8324072,6.82140845 L37.9320161,0.163098592 C37.8387881,0.0583098592 37.7185374,0 37.5928821,0 L22.5068238,0 C22.2987496,0 22.1116179,0.158873239 22.035279,0.402253521 C21.95894,0.644788732 22.0089319,0.92028169 22.1616097,1.09859155 L27.6627415,7.5 L22.1616097,13.9022535 C22.0089319,14.0797183 21.95894,14.3552113 22.035279,14.5977465 C22.1116179,14.8402817 22.2987496,15 22.5068238,15 L37.5928821,15 C37.7232663,15 37.8489215,14.9374648 37.9435007,14.8233803 L43.8438918,7.75014085 C43.9452267,7.6284507 44.0019742,7.45943662 43.9999475,7.2828169 Z M41.1423045,5.49295775 L34.5555386,13.7323944 L31.2121638,13.7323944 L39.385158,3.50873239 L41.1423045,5.49295775 Z M39.133172,3.2256338 L30.7338633,13.7323944 L27.3891374,13.7323944 L37.3537319,1.26760563 L37.3976436,1.26760563 L39.133172,3.2256338 Z M29.2341074,1.26760563 L26.6129123,4.54647887 L24.8800862,2.53014085 L25.8893814,1.26760563 L29.2341074,1.26760563 Z M25.4117565,1.26760563 L24.6328292,2.24197183 L23.7958032,1.26760563 L25.4117565,1.26760563 Z M26.8601694,4.83464789 L29.7117323,1.26760563 L33.0557827,1.26760563 L28.5923199,6.85014085 L26.8601694,4.83464789 Z M28.7517534,7.96394366 C28.855115,7.84394366 28.9132136,7.67661972 28.9132136,7.5 C28.9132136,7.37577465 28.875382,7.26253521 28.8220123,7.16112676 L33.5334077,1.26760563 L36.8761069,1.26760563 L26.9115124,13.7323944 L23.7951277,13.7323944 L28.7517534,7.96394366 Z M37.3888613,13.7323944 L35.0331636,13.7323944 L41.3936149,5.77690141 L42.7494753,7.30647887 L37.3888613,13.7323944 Z" id="Shape"></path>
            <path d="M64.8323986,6.82102417 L58.9330557,0.163089403 C58.8398229,0.0574615515 58.719566,0 58.5939043,0 L43.5063957,0 C43.2976352,0 43.1111694,0.158864289 43.0348266,0.40223086 C42.9591594,0.644752408 43.0091538,0.920229846 43.1618395,1.09852966 L48.6632537,7.50042251 L43.1618395,13.9023154 C43.0091538,14.0797702 42.9591594,14.3552476 43.0348266,14.5977691 C43.1111694,14.8402907 43.2983108,15 43.5063957,15 L58.5939043,15 C58.7242952,15 58.8499569,14.9366233 58.9445409,14.8233902 L64.8438838,7.75054926 C64.9452239,7.62886598 65.0019743,7.45901639 64.9999475,7.28325165 C64.9979207,7.10579686 64.9371167,6.93848234 64.8323986,6.82102417 Z M61.5564122,4.83015041 L63.3143245,6.81426399 L57.784535,13.7307757 L54.4409885,13.7307757 L61.5564122,4.83015041 Z M53.9640146,13.7307757 L50.6197925,13.7307757 L59.5485277,2.56379922 L61.3057644,4.54706777 L53.9640146,13.7307757 Z M59.2972043,2.27987156 L50.142143,13.7307757 L46.7985965,13.7307757 L56.7643784,1.2666892 L58.3993314,1.2666892 L59.2972043,2.27987156 Z M52.4628305,1.2666892 L48.7666206,5.88980902 L47.0350567,3.87442961 L49.1199596,1.2666892 L52.4628305,1.2666892 Z M48.6416345,1.2666892 L46.7877869,3.58627683 L44.7947657,1.2666892 L48.6416345,1.2666892 Z M49.7509704,7.96264999 C49.8536617,7.84265675 49.9124389,7.67534223 49.9124389,7.49873247 C49.9124389,7.3221227 49.8536617,7.15480818 49.7509704,7.03481494 L49.0145659,6.1779618 L52.9411556,1.2666892 L56.2867289,1.2666892 L46.3216226,13.7307757 L44.7947657,13.7307757 L49.7509704,7.96264999 Z M58.389873,13.7307757 L58.2628601,13.7307757 L63.5656478,7.09819165 L63.7487355,7.30522224 L58.389873,13.7307757 Z" id="Shape"></path>
        </g>
    </g>
</svg>