<?xml version="1.0" encoding="utf-8"?>
<!-- Generator: Adobe Illustrator 21.1.0, SVG Export Plug-In . SVG Version: 6.00 Build 0)  -->
<svg version="1.1" id="Layer_1" xmlns="http://www.w3.org/2000/svg" xmlns:xlink="http://www.w3.org/1999/xlink" x="0px" y="0px"
	 viewBox="0 0 24 24" style="enable-background:new 0 0 24 24;" xml:space="preserve">
<style type="text/css">
	.st0{fill:#FFFFFF;}
</style>
<path class="st0" d="M12,7c-2.8,0-5,2.2-5,5s2.2,5,5,5s5-2.2,5-5S14.8,7,12,7z M10.5,10c0.3,0,0.5,0.2,0.5,0.5S10.8,11,10.5,11
	S10,10.8,10,10.5S10.2,10,10.5,10z M13.9,13.8C13.8,14,13.6,14,13.4,14c0,0-0.1-0.1-0.1-0.1C13.1,13.4,12.6,13,12,13l0,0
	c-0.5,0.1-1,0.4-1.4,0.8c-0.1,0.1-0.2,0.2-0.3,0.2c-0.1,0-0.2-0.1-0.3-0.1c-0.2-0.2-0.2-0.5,0-0.7c0.5-0.6,1.2-1,1.9-1.1
	c0.8,0,1.5,0.5,1.9,1.1C14,13.3,14,13.6,13.9,13.8z M13.5,11c-0.3,0-0.5-0.2-0.5-0.5s0.2-0.5,0.5-0.5s0.5,0.2,0.5,0.5
	S13.8,11,13.5,11z"/>
</svg>
