<?xml version="1.0" encoding="utf-8"?>
<!-- Generator: Adobe Illustrator 21.1.0, SVG Export Plug-In . SVG Version: 6.00 Build 0)  -->
<svg version="1.1" id="Layer_1" xmlns="http://www.w3.org/2000/svg" xmlns:xlink="http://www.w3.org/1999/xlink" x="0px" y="0px"
	 viewBox="0 0 24 24" style="enable-background:new 0 0 24 24;" xml:space="preserve">
<style type="text/css">
	.st0{fill:#FFFFFF;}
</style>
<path class="st0" d="M9,16.6L6.5,14c-0.6-0.7-0.6-1.8,0-2.5l0,0C7,10.9,8,10.8,8.6,11.4c0.1,0,0.1,0.1,0.1,0.1L10,13l5.3-5.5
	c0.6-0.6,1.6-0.6,2.2,0c0,0,0,0,0,0l0,0c0.6,0.6,0.6,1.6,0,2.2l-6.8,6.9C10.3,17.1,9.5,17.1,9,16.6C9,16.6,9,16.6,9,16.6"/>
</svg>
