<?xml version="1.0" encoding="UTF-8"?>
<svg width="326px" height="275px" viewBox="0 0 326 275" version="1.1" xmlns="http://www.w3.org/2000/svg" xmlns:xlink="http://www.w3.org/1999/xlink">
    <!-- Generator: Sketch 52.6 (67491) - http://www.bohemiancoding.com/sketch -->
    <title>Group 4</title>
    <desc>Created with Sketch.</desc>
    <g id="Page-1" stroke="none" stroke-width="1" fill="none" fill-rule="evenodd">
        <g id="Group-4" transform="translate(3.000000, 0.000000)">
            <circle id="Oval-Copy" fill="#F1F1F1" cx="185.5" cy="137.5" r="137.5"></circle>
            <g id="Group-3-Copy" transform="translate(0.166667, 127.000000)">
                <circle id="Oval" stroke="#FFFFFF" stroke-width="5" fill="#000000" cx="43" cy="43" r="43"></circle>
                <text id="01." font-family="FiraSans-Black, Fira Sans" font-size="34" font-weight="700" fill="#FFFFFF">
                    <tspan x="21.332" y="53">01.</tspan>
                </text>
            </g>
            <path d="M243.497436,95.437863 C255.513687,95.437863 265.166086,85.7630662 265.166086,73.7189315 C265.166086,61.6747967 255.513687,52 243.497436,52 C231.481184,52 221.828785,61.6747967 221.828785,73.7189315 C221.828785,79.0499419 223.798663,83.7886179 226.753479,87.5400697 L200.357123,115.774681 C196.614356,112.615563 191.689663,110.641115 186.370994,110.641115 C181.052325,110.641115 176.32462,112.418118 172.581853,115.577236 L145.988509,90.8966318 C147.170436,88.7247387 147.958387,86.3554007 147.958387,83.5911731 C147.958387,75.6933798 141.457791,69.1777003 133.578282,69.1777003 C125.698773,69.1777003 119.198178,75.6933798 119.198178,83.5911731 C119.198178,91.4889663 125.698773,98.0046458 133.578282,98.0046458 C136.730086,98.0046458 139.684902,96.8199768 142.245742,95.0429733 L168.839086,119.723577 C166.278245,123.277584 164.899331,127.62137 164.899331,132.162602 C164.899331,137.296167 166.672221,142.034843 169.627037,145.786295 L140.275865,176.982578 C136.730086,174.415796 132.396356,172.836237 127.66865,172.836237 C115.652399,172.836237 106,182.511034 106,194.555168 C106,206.599303 115.652399,216.2741 127.66865,216.2741 C139.684902,216.2741 149.337301,206.599303 149.337301,194.555168 C149.337301,189.421603 147.564411,184.682927 144.609595,180.931475 L173.763779,149.932636 C177.112571,152.499419 181.446301,153.881533 185.977018,154.078978 L189.719785,188.039489 C182.431239,190.211382 177.112571,196.727062 177.112571,204.624855 C177.112571,214.299652 184.795092,222 194.447491,222 C204.09989,222 211.782411,214.299652 211.782411,204.624855 C211.782411,195.344948 204.493865,187.842044 195.432429,187.24971 L191.689663,153.486643 C195.629417,152.499419 199.372184,150.327526 202.130012,147.365854 L229.117331,166.912892 C228.32938,168.689895 227.738417,170.664344 227.738417,172.836237 C227.738417,180.73403 234.239012,187.24971 242.118522,187.24971 C249.998031,187.24971 256.498626,180.73403 256.498626,172.836237 C256.498626,164.938444 249.998031,158.422764 242.118522,158.422764 C238.375755,158.422764 235.026963,159.804878 232.466123,162.174216 L205.478804,142.627178 C207.054706,139.665505 208.039644,136.111498 208.039644,132.360046 C208.039644,127.818815 206.66073,123.672474 204.296877,120.118467 L231.087209,91.6864111 C234.632988,94.0557491 238.76973,95.437863 243.497436,95.437863 Z" id="Path" fill="#FFFFFF"></path>
            <text id="Experience-Design" font-family="FiraSans-Medium, Fira Sans" font-size="36" font-weight="400" fill="#050505">
                <tspan x="0.568666667" y="248">Experience Design</tspan>
            </text>
        </g>
    </g>
</svg>