<?xml version="1.0" encoding="UTF-8"?>
<svg width="321px" height="275px" viewBox="0 0 321 275" version="1.1" xmlns="http://www.w3.org/2000/svg" xmlns:xlink="http://www.w3.org/1999/xlink">
    <!-- Generator: Sketch 52.6 (67491) - http://www.bohemiancoding.com/sketch -->
    <title>Group 5</title>
    <desc>Created with Sketch.</desc>
    <g id="Page-1" stroke="none" stroke-width="1" fill="none" fill-rule="evenodd">
        <g id="Group-5" transform="translate(3.000000, 0.000000)">
            <circle id="Oval-Copy-2" fill="#F1F1F1" cx="179.833333" cy="137.5" r="137.5"></circle>
            <g id="Group-3-Copy-2" transform="translate(0.000000, 129.000000)">
                <circle id="Oval" stroke="#FFFFFF" stroke-width="5" fill="#000000" cx="43" cy="43" r="43"></circle>
                <text id="02." font-family="FiraSans-Black, Fira Sans" font-size="34" font-weight="700" fill="#FFFFFF">
                    <tspan x="20.346" y="53">02.</tspan>
                </text>
            </g>
            <path d="M216.69611,132.952095 L250.806423,98.8427836 C251.416196,98.2310817 251.772821,97.4271834 251.854124,96.575236 C252.672697,96.4939222 253.472793,96.1557305 254.099196,95.5273962 C263.011116,86.6142895 263.011116,72.1127038 254.099196,63.1995971 C249.782744,58.8788749 244.04349,56.5004448 237.936525,56.5004448 C231.829559,56.5004448 226.090305,58.8807229 221.773853,63.1995971 C221.132668,63.8408677 220.794521,64.6595503 220.722457,65.4948653 C219.887254,65.5724831 219.076071,65.8958904 218.471842,66.5020482 L184.367072,100.618752 L136.795565,53.0409101 C135.409718,51.6511825 132.953997,51.6548786 131.56815,53.0409101 L96.4156798,88.2128459 C94.9725512,89.6561667 94.9725512,91.9957879 96.4156798,93.4391087 L143.977948,141.016951 L113.143777,171.857076 C112.764978,172.235924 112.473027,172.690543 112.290095,173.19321 L100.898433,204.118345 C98.5886879,210.370272 100.680393,213.742948 102.132761,215.195509 C103.117636,216.182364 104.985757,217.463057 108.040164,217.463057 C109.485141,217.463057 111.1962,217.17661 113.202906,216.433697 L144.05186,205.068239 C144.563699,204.892675 145.045974,204.600684 145.454337,204.192267 C145.454337,204.192267 145.454337,204.192267 145.454337,204.192267 C145.456185,204.190419 145.458032,204.188571 145.458032,204.188571 L176.301443,173.346598 L223.865558,220.917047 C224.558482,221.610063 225.49901,222 226.478342,222 C227.459521,222 228.40005,221.610063 229.092973,220.917047 L264.250987,185.745112 C265.694115,184.301791 265.694115,181.96217 264.250987,180.518849 L216.69611,132.952095 Z M237.93958,63.6875 C242.135925,63.6875 246.082555,65.3221043 249.050976,68.2910411 C255.177452,74.4165846 255.177452,84.3799762 249.050976,90.5055197 C248.806894,90.7494905 248.61726,91.0253651 248.45579,91.3125 L226.020833,68.8859545 C226.3081,68.7226817 226.584101,68.5331352 226.828184,68.2891644 C229.794728,65.3221043 233.741357,63.6875 237.93958,63.6875 Z M141.318974,127.599808 L150.762894,118.020768 C152.196182,116.567255 152.196182,114.209252 150.762894,112.755739 C149.329606,111.304087 147.006247,111.302226 145.571124,112.755739 L136.129039,122.334779 L123.405623,109.429968 L132.844038,99.858372 C134.277326,98.4048592 134.277326,96.0487168 132.844038,94.595204 C131.410749,93.1416912 129.085556,93.1416912 127.654103,94.595204 L118.215688,104.1668 L104.895833,90.6571335 L134.620508,60.5 L179.270833,105.782228 L149.536983,135.9375 L141.318974,127.599808 Z M142.678109,196.56125 L130.492458,184.374523 C129.047958,182.928263 126.69972,182.928263 125.25522,184.374523 C123.808869,185.820782 123.808869,188.165167 125.25522,189.611427 L135.966741,200.324118 L110.406504,209.740546 C108.286053,210.522007 107.25268,210.297939 107.132305,210.231274 C107.028598,210.072019 106.802663,209.038712 107.587878,206.91284 C107.587878,206.91284 107.587878,206.910988 107.587878,206.909136 L118.723489,176.683977 L151.600672,143.807033 C151.624747,143.784812 151.652526,143.768145 151.676601,143.745924 C151.700676,143.723702 151.715491,143.694073 151.737714,143.67 L186.759423,108.646814 C186.813129,108.598667 186.874243,108.563483 186.926096,108.509781 C186.97795,108.45793 187.013137,108.39682 187.063139,108.343118 L221.092217,74.3125 L243.020833,96.2415733 L173.718184,165.530556 C173.673738,165.571296 173.621884,165.600925 173.577438,165.645368 C173.532992,165.689811 173.503361,165.73981 173.462619,165.784253 L142.678109,196.56125 Z M226.042857,212.4375 L212.713168,199.110305 L222.157554,189.666384 C223.590914,188.233096 223.590914,185.909738 222.157554,184.476449 C220.726031,183.043161 218.398887,183.043161 216.967363,184.476449 L207.522977,193.920369 L194.802604,181.198789 L204.248825,171.753033 C205.682184,170.319745 205.682184,167.996387 204.248825,166.563098 C202.817302,165.12981 200.490158,165.12981 199.058634,166.563098 L189.612413,176.008854 L181.395833,167.794515 L211.134822,138.0625 L255.770833,182.701815 L226.042857,212.4375 Z" id="Shape" fill="#FFFFFF" fill-rule="nonzero"></path>
            <text id="Visual-Design" font-family="FiraSans-Medium, Fira Sans" font-size="36" font-weight="400" fill="#050505">
                <tspan x="0.046" y="250">Visual Design</tspan>
            </text>
        </g>
    </g>
</svg>