<?xml version="1.0" encoding="UTF-8"?>
<svg width="326px" height="275px" viewBox="0 0 326 275" version="1.1" xmlns="http://www.w3.org/2000/svg" xmlns:xlink="http://www.w3.org/1999/xlink">
    <!-- Generator: Sketch 52.6 (67491) - http://www.bohemiancoding.com/sketch -->
    <title>Group 6</title>
    <desc>Created with Sketch.</desc>
    <defs>
        <path d="M37.5,0 C47.875,0 56.25,8.22992126 56.25,18.4251969 C56.25,28.6204724 47.875,36.8503937 37.5,36.8503937 C27.125,36.8503937 18.75,28.6204724 18.75,18.4251969 C18.75,8.22992126 27.125,0 37.5,0 Z M37.5,78 C21.875,78 8.0625,70.1385827 0,58.223622 C0.1875,46.0015748 25,39.3070866 37.5,39.3070866 C49.9375,39.3070866 74.8125,46.0015748 75,58.223622 C66.9375,70.1385827 53.125,78 37.5,78 Z" id="path-1"></path>
    </defs>
    <g id="Page-1" stroke="none" stroke-width="1" fill="none" fill-rule="evenodd">
        <g id="Group-6" transform="translate(3.000000, 0.000000)">
            <circle id="Oval" fill="#F1F1F1" cx="185.166667" cy="137.5" r="137.5"></circle>
            <g id="Group-2" transform="translate(96.666667, 49.000000)">
                <g id="ic_account_circle_24px" transform="translate(23.000000, 20.000000)">
                    <mask id="mask-2" fill="white">
                        <use xlink:href="#path-1"></use>
                    </mask>
                    <use id="Shape" fill="#FFFFFF" fill-rule="nonzero" xlink:href="#path-1"></use>
                </g>
                <path d="M172.851332,149.443362 L132.312718,108.904748 C128.120958,104.717339 121.329386,104.717339 117.137626,108.904748 L115.534073,110.508302 L106.206085,101.180314 C140.799818,62.1670308 113.206965,0 60.7981437,0 C27.2336613,0.0323409402 0.0323409402,27.2336613 0,60.7981437 C0,113.187409 62.1474753,140.975818 101.160758,106.206085 L110.488746,115.534073 L108.904748,117.118071 C106.888974,119.12859 105.75608,121.858595 105.75608,124.705617 C105.75608,127.552638 106.888974,130.282644 108.904748,132.293162 L149.443362,172.851332 C151.453881,174.867107 154.183886,176 157.030908,176 C159.87793,176 162.607935,174.867107 164.618454,172.851332 L172.851332,164.618454 C174.867107,162.607935 176,159.87793 176,157.030908 C176,154.183886 174.867107,151.453881 172.851332,149.443362 Z M60.7007299,114.335766 C31.0789172,114.335766 7.06569343,90.3225426 7.06569343,60.7007299 C7.06569343,31.0789172 31.0789172,7.06569343 60.7007299,7.06569343 C90.3225426,7.06569343 114.335766,31.0789172 114.335766,60.7007299 C114.303437,90.309141 90.309141,114.303437 60.7007299,114.335766 Z M167.885563,159.68629 L159.643887,167.915919 C158.230674,169.273769 155.99882,169.273769 154.585607,167.915919 L114.099838,127.393305 C113.428395,126.722283 113.051095,125.811562 113.051095,124.861863 C113.051095,123.912164 113.428395,123.001443 114.099838,122.330422 L122.321984,114.100793 C122.992396,113.428738 123.902289,113.051095 124.851124,113.051095 C125.799959,113.051095 126.709852,113.428738 127.380264,114.100793 L167.885563,154.623407 C168.557007,155.294429 168.934307,156.20515 168.934307,157.154849 C168.934307,158.104547 168.557007,159.015268 167.885563,159.68629 Z" id="Shape" fill="#FFFFFF" fill-rule="nonzero"></path>
            </g>
            <g id="Group-3" transform="translate(0.000000, 128.000000)">
                <circle id="Oval" stroke="#FFFFFF" stroke-width="5" fill="#000000" cx="43" cy="43" r="43"></circle>
                <text id="03." font-family="FiraSans-Black, Fira Sans" font-size="34" font-weight="700" fill="#FFFFFF">
                    <tspan x="20.312" y="53">03.</tspan>
                </text>
            </g>
            <text id="Design-Research" font-family="FiraSans-Medium, Fira Sans" font-size="36" font-weight="400" fill="#050505">
                <tspan x="0.364" y="249">Design Research</tspan>
            </text>
        </g>
    </g>
</svg>