<?xml version="1.0" encoding="UTF-8"?>
<svg width="323px" height="275px" viewBox="0 0 323 275" version="1.1" xmlns="http://www.w3.org/2000/svg" xmlns:xlink="http://www.w3.org/1999/xlink">
    <!-- Generator: Sketch 52.6 (67491) - http://www.bohemiancoding.com/sketch -->
    <title>Group 7</title>
    <desc>Created with Sketch.</desc>
    <g id="Page-1" stroke="none" stroke-width="1" fill="none" fill-rule="evenodd">
        <g id="Group-7" transform="translate(3.000000, 0.000000)">
            <circle id="Oval-Copy-3" fill="#F1F1F1" cx="182.5" cy="137.5" r="137.5"></circle>
            <g id="Group" transform="translate(99.000000, 62.000000)">
                <path d="M162.998097,12 C162.998097,9.79374708 161.168834,8 158.918899,8 L12.0791978,8 C9.8292623,8 8,9.79374708 8,12 L8,20 L163,20 L163,12 L162.998097,12 Z" id="Path"></path>
                <path d="M8,137.928368 C8,140.17413 9.8292623,142 12.0791978,142 L158.920802,142 C161.170738,142 163,140.17413 163,137.928368 L163,28 L8,28 L8,137.928368 Z M107.088531,63.1095148 C105.495303,61.5192413 105.495303,58.9409843 107.088531,57.3526108 C108.679856,55.7623373 111.264807,55.7623373 112.856132,57.3526108 L137.329416,81.7805037 C138.922644,83.3707772 138.922644,85.9490342 137.329416,87.5374077 L112.856132,111.967201 C112.06047,112.763287 111.015449,113.160381 109.972332,113.160381 C108.929214,113.160381 107.884194,112.763287 107.088531,111.967201 C105.495303,110.376927 105.495303,107.79867 107.088531,106.210296 L128.678014,84.6608557 L107.088531,63.1095148 Z M70.3757507,124.202997 L94.8490341,42.7760537 C95.4962237,40.6214896 97.7690012,39.39981 99.9275688,40.0457992 C102.086136,40.6917885 103.310086,42.9603507 102.662897,45.1149148 L78.189613,126.543758 C77.6604404,128.306928 76.0386594,129.446909 74.2855371,129.446909 C73.8972233,129.446909 73.5031991,129.39181 73.1110784,129.274012 C70.9525108,128.626123 69.7285611,126.357561 70.3757507,124.202997 Z M33.6686807,81.7805037 L58.1419642,57.3526108 C59.7332891,55.7623373 62.3182404,55.7623373 63.9095654,57.3526108 C65.5027938,58.9428843 65.5027938,61.5211413 63.9095654,63.1095148 L42.3200825,84.6589557 L63.9095654,106.208397 C65.5027938,107.79867 65.5027938,110.376927 63.9095654,111.965301 C63.1139029,112.761387 62.0688821,113.158481 61.0257648,113.158481 C59.9826475,113.158481 58.9376266,112.761387 58.1419642,111.965301 L33.6686807,87.5393077 C32.0754522,85.9490342 32.0754522,83.3707772 33.6686807,81.7805037 Z" id="Shape"></path>
                <path d="M158.783136,0 L12.2149643,0 C5.47953912,0 0,5.49059745 0,12.2419564 L0,24.4858173 L0,138.756139 C0,145.507498 5.47953912,151 12.2149643,151 L158.785036,151 C165.520461,151 171,145.507498 171,138.756139 L171,24.4858173 L171,12.2419564 C170.9981,5.49059745 165.518561,0 158.783136,0 Z M8.14330952,12.2419564 C8.14330952,9.99086862 9.96918923,8.16066947 12.2149643,8.16066947 L158.785036,8.16066947 C161.030811,8.16066947 162.85669,9.99086862 162.85669,12.2419564 L162.85669,20.4045304 L8.14330952,20.4045304 L8.14330952,12.2419564 Z M162.854791,138.756139 C162.854791,141.007227 161.028911,142.837426 158.783136,142.837426 L12.2149643,142.837426 C9.96918923,142.837426 8.14330952,141.007227 8.14330952,138.756139 L8.14330952,28.5671043 L162.85669,28.5671043 L162.85669,138.756139 L162.854791,138.756139 Z" id="Shape" fill="#FFFFFF" fill-rule="nonzero"></path>
                <path d="M57.9586846,111.80683 C58.7633513,112.60291 59.8201983,113 60.8751203,113 C61.9300423,113 62.9868893,112.60291 63.7915561,111.80683 C65.4028146,110.21657 65.4028146,107.638334 63.7915561,106.049974 L41.9577512,84.4988125 L63.7915561,62.9495513 C65.4028146,61.359291 65.4028146,58.7810555 63.7915561,57.1926952 C62.1822225,55.6024349 59.5680181,55.6024349 57.9586846,57.1926952 L33.2084439,81.6203845 C31.5971854,83.2106447 31.5971854,85.7888803 33.2084439,87.3772406 L57.9586846,111.80683 Z" id="Path" fill="#FFFFFF"></path>
                <path d="M107.208444,111.80683 C108.013111,112.60291 109.069958,113 110.12488,113 C111.179802,113 112.236649,112.60291 113.041315,111.80683 L137.791556,87.3791405 C139.402815,85.7888803 139.402815,83.2106447 137.791556,81.6222844 L113.041315,57.1926952 C111.431982,55.6024349 108.817777,55.6024349 107.208444,57.1926952 C105.597185,58.7829554 105.597185,61.361191 107.208444,62.9495513 L129.042249,84.4988125 L107.208444,106.049974 C105.597185,107.638334 105.597185,110.21657 107.208444,111.80683 Z" id="Path" fill="#FFFFFF"></path>
                <path d="M72.9393428,129.826278 C73.3358928,129.944638 73.7343678,130 74.1270678,130 C75.8999929,130 77.5400929,128.85458 78.0752429,127.082998 L102.824969,45.267575 C103.479469,43.1027317 102.241694,40.8233464 100.058744,40.1742753 C97.8757936,39.523295 95.5773435,40.7527122 94.9228435,42.9175555 L70.1750427,124.732978 C69.5205426,126.897822 70.7583177,129.177207 72.9393428,129.826278 Z" id="Path" fill="#FFFFFF"></path>
            </g>
            <g id="Group-3-Copy-3" transform="translate(0.000000, 129.000000)">
                <circle id="Oval" stroke="#FFFFFF" stroke-width="5" fill="#000000" cx="43" cy="43" r="43"></circle>
                <text id="04." font-family="FiraSans-Black, Fira Sans" font-size="34" font-weight="700" fill="#FFFFFF">
                    <tspan x="19.241" y="56">04.</tspan>
                </text>
            </g>
            <text id="Development" font-family="FiraSans-Medium, Fira Sans" font-size="36" font-weight="400" fill="#050505">
                <tspan x="0.366" y="250">Development</tspan>
            </text>
        </g>
    </g>
</svg>