<?xml version="1.0" encoding="UTF-8"?>
<svg width="2241px" height="275px" viewBox="0 0 2241 275" version="1.1" xmlns="http://www.w3.org/2000/svg" xmlns:xlink="http://www.w3.org/1999/xlink">
    <!-- Generator: Sketch 52.6 (67491) - http://www.bohemiancoding.com/sketch -->
    <title>Group 5</title>
    <desc>Created with Sketch.</desc>
    <defs>
        <path d="M37.5,0 C47.875,0 56.25,8.22992126 56.25,18.4251969 C56.25,28.6204724 47.875,36.8503937 37.5,36.8503937 C27.125,36.8503937 18.75,28.6204724 18.75,18.4251969 C18.75,8.22992126 27.125,0 37.5,0 Z M37.5,78 C21.875,78 8.0625,70.1385827 0,58.223622 C0.1875,46.0015748 25,39.3070866 37.5,39.3070866 C49.9375,39.3070866 74.8125,46.0015748 75,58.223622 C66.9375,70.1385827 53.125,78 37.5,78 Z" id="path-1"></path>
    </defs>
    <g id="Page-1" stroke="none" stroke-width="1" fill="none" fill-rule="evenodd">
        <g id="Group-5" transform="translate(3.000000, 0.000000)">
            <circle id="Oval" fill="#F1F1F1" cx="1474.16667" cy="137.5" r="137.5"></circle>
            <g id="Group-2" transform="translate(1385.666667, 49.000000)">
                <g id="ic_account_circle_24px" transform="translate(23.000000, 20.000000)">
                    <mask id="mask-2" fill="white">
                        <use xlink:href="#path-1"></use>
                    </mask>
                    <use id="Shape" fill="#FFFFFF" fill-rule="nonzero" xlink:href="#path-1"></use>
                </g>
                <path d="M172.851332,149.443362 L132.312718,108.904748 C128.120958,104.717339 121.329386,104.717339 117.137626,108.904748 L115.534073,110.508302 L106.206085,101.180314 C140.799818,62.1670308 113.206965,0 60.7981437,0 C27.2336613,0.0323409402 0.0323409402,27.2336613 0,60.7981437 C0,113.187409 62.1474753,140.975818 101.160758,106.206085 L110.488746,115.534073 L108.904748,117.118071 C106.888974,119.12859 105.75608,121.858595 105.75608,124.705617 C105.75608,127.552638 106.888974,130.282644 108.904748,132.293162 L149.443362,172.851332 C151.453881,174.867107 154.183886,176 157.030908,176 C159.87793,176 162.607935,174.867107 164.618454,172.851332 L172.851332,164.618454 C174.867107,162.607935 176,159.87793 176,157.030908 C176,154.183886 174.867107,151.453881 172.851332,149.443362 Z M60.7007299,114.335766 C31.0789172,114.335766 7.06569343,90.3225426 7.06569343,60.7007299 C7.06569343,31.0789172 31.0789172,7.06569343 60.7007299,7.06569343 C90.3225426,7.06569343 114.335766,31.0789172 114.335766,60.7007299 C114.303437,90.309141 90.309141,114.303437 60.7007299,114.335766 Z M167.885563,159.68629 L159.643887,167.915919 C158.230674,169.273769 155.99882,169.273769 154.585607,167.915919 L114.099838,127.393305 C113.428395,126.722283 113.051095,125.811562 113.051095,124.861863 C113.051095,123.912164 113.428395,123.001443 114.099838,122.330422 L122.321984,114.100793 C122.992396,113.428738 123.902289,113.051095 124.851124,113.051095 C125.799959,113.051095 126.709852,113.428738 127.380264,114.100793 L167.885563,154.623407 C168.557007,155.294429 168.934307,156.20515 168.934307,157.154849 C168.934307,158.104547 168.557007,159.015268 167.885563,159.68629 Z" id="Shape" fill="#FFFFFF" fill-rule="nonzero"></path>
            </g>
            <g id="Group-3" transform="translate(1289.000000, 128.000000)">
                <circle id="Oval" stroke="#FFFFFF" stroke-width="5" fill="#000000" cx="43" cy="43" r="43"></circle>
                <text id="03." font-family="FiraSans-Black, Fira Sans" font-size="34" font-weight="700" fill="#FFFFFF">
                    <tspan x="20.312" y="53">03.</tspan>
                </text>
            </g>
            <text id="Design-Research" font-family="FiraSans-Medium, Fira Sans" font-size="36" font-weight="400" fill="#050505">
                <tspan x="1289.364" y="249">Design Research</tspan>
            </text>
            <g id="Group-4">
                <circle id="Oval-Copy" fill="#F1F1F1" cx="185.5" cy="137.5" r="137.5"></circle>
                <g id="Group-3-Copy" transform="translate(0.166667, 127.000000)">
                    <circle id="Oval" stroke="#FFFFFF" stroke-width="5" fill="#000000" cx="43" cy="43" r="43"></circle>
                    <text id="01." font-family="FiraSans-Black, Fira Sans" font-size="34" font-weight="700" fill="#FFFFFF">
                        <tspan x="21.332" y="53">01.</tspan>
                    </text>
                </g>
                <path d="M243.497436,95.437863 C255.513687,95.437863 265.166086,85.7630662 265.166086,73.7189315 C265.166086,61.6747967 255.513687,52 243.497436,52 C231.481184,52 221.828785,61.6747967 221.828785,73.7189315 C221.828785,79.0499419 223.798663,83.7886179 226.753479,87.5400697 L200.357123,115.774681 C196.614356,112.615563 191.689663,110.641115 186.370994,110.641115 C181.052325,110.641115 176.32462,112.418118 172.581853,115.577236 L145.988509,90.8966318 C147.170436,88.7247387 147.958387,86.3554007 147.958387,83.5911731 C147.958387,75.6933798 141.457791,69.1777003 133.578282,69.1777003 C125.698773,69.1777003 119.198178,75.6933798 119.198178,83.5911731 C119.198178,91.4889663 125.698773,98.0046458 133.578282,98.0046458 C136.730086,98.0046458 139.684902,96.8199768 142.245742,95.0429733 L168.839086,119.723577 C166.278245,123.277584 164.899331,127.62137 164.899331,132.162602 C164.899331,137.296167 166.672221,142.034843 169.627037,145.786295 L140.275865,176.982578 C136.730086,174.415796 132.396356,172.836237 127.66865,172.836237 C115.652399,172.836237 106,182.511034 106,194.555168 C106,206.599303 115.652399,216.2741 127.66865,216.2741 C139.684902,216.2741 149.337301,206.599303 149.337301,194.555168 C149.337301,189.421603 147.564411,184.682927 144.609595,180.931475 L173.763779,149.932636 C177.112571,152.499419 181.446301,153.881533 185.977018,154.078978 L189.719785,188.039489 C182.431239,190.211382 177.112571,196.727062 177.112571,204.624855 C177.112571,214.299652 184.795092,222 194.447491,222 C204.09989,222 211.782411,214.299652 211.782411,204.624855 C211.782411,195.344948 204.493865,187.842044 195.432429,187.24971 L191.689663,153.486643 C195.629417,152.499419 199.372184,150.327526 202.130012,147.365854 L229.117331,166.912892 C228.32938,168.689895 227.738417,170.664344 227.738417,172.836237 C227.738417,180.73403 234.239012,187.24971 242.118522,187.24971 C249.998031,187.24971 256.498626,180.73403 256.498626,172.836237 C256.498626,164.938444 249.998031,158.422764 242.118522,158.422764 C238.375755,158.422764 235.026963,159.804878 232.466123,162.174216 L205.478804,142.627178 C207.054706,139.665505 208.039644,136.111498 208.039644,132.360046 C208.039644,127.818815 206.66073,123.672474 204.296877,120.118467 L231.087209,91.6864111 C234.632988,94.0557491 238.76973,95.437863 243.497436,95.437863 Z" id="Path" fill="#FFFFFF"></path>
                <text id="Experience-Design" font-family="FiraSans-Medium, Fira Sans" font-size="36" font-weight="400" fill="#050505">
                    <tspan x="0.568666667" y="248">Experience Design</tspan>
                </text>
            </g>
            <circle id="Oval-Copy-2" fill="#F1F1F1" cx="811.833333" cy="137.5" r="137.5"></circle>
            <g id="Group-3-Copy-2" transform="translate(632.000000, 129.000000)">
                <circle id="Oval" stroke="#FFFFFF" stroke-width="5" fill="#000000" cx="43" cy="43" r="43"></circle>
                <text id="02." font-family="FiraSans-Black, Fira Sans" font-size="34" font-weight="700" fill="#FFFFFF">
                    <tspan x="20.346" y="53">02.</tspan>
                </text>
            </g>
            <path d="M848.69611,132.952095 L882.806423,98.8427836 C883.416196,98.2310817 883.772821,97.4271834 883.854124,96.575236 C884.672697,96.4939222 885.472793,96.1557305 886.099196,95.5273962 C895.011116,86.6142895 895.011116,72.1127038 886.099196,63.1995971 C881.782744,58.8788749 876.04349,56.5004448 869.936525,56.5004448 C863.829559,56.5004448 858.090305,58.8807229 853.773853,63.1995971 C853.132668,63.8408677 852.794521,64.6595503 852.722457,65.4948653 C851.887254,65.5724831 851.076071,65.8958904 850.471842,66.5020482 L816.367072,100.618752 L768.795565,53.0409101 C767.409718,51.6511825 764.953997,51.6548786 763.56815,53.0409101 L728.41568,88.2128459 C726.972551,89.6561667 726.972551,91.9957879 728.41568,93.4391087 L775.977948,141.016951 L745.143777,171.857076 C744.764978,172.235924 744.473027,172.690543 744.290095,173.19321 L732.898433,204.118345 C730.588688,210.370272 732.680393,213.742948 734.132761,215.195509 C735.117636,216.182364 736.985757,217.463057 740.040164,217.463057 C741.485141,217.463057 743.1962,217.17661 745.202906,216.433697 L776.05186,205.068239 C776.563699,204.892675 777.045974,204.600684 777.454337,204.192267 C777.454337,204.192267 777.454337,204.192267 777.454337,204.192267 C777.456185,204.190419 777.458032,204.188571 777.458032,204.188571 L808.301443,173.346598 L855.865558,220.917047 C856.558482,221.610063 857.49901,222 858.478342,222 C859.459521,222 860.40005,221.610063 861.092973,220.917047 L896.250987,185.745112 C897.694115,184.301791 897.694115,181.96217 896.250987,180.518849 L848.69611,132.952095 Z M869.93958,63.6875 C874.135925,63.6875 878.082555,65.3221043 881.050976,68.2910411 C887.177452,74.4165846 887.177452,84.3799762 881.050976,90.5055197 C880.806894,90.7494905 880.61726,91.0253651 880.45579,91.3125 L858.020833,68.8859545 C858.3081,68.7226817 858.584101,68.5331352 858.828184,68.2891644 C861.794728,65.3221043 865.741357,63.6875 869.93958,63.6875 Z M773.318974,127.599808 L782.762894,118.020768 C784.196182,116.567255 784.196182,114.209252 782.762894,112.755739 C781.329606,111.304087 779.006247,111.302226 777.571124,112.755739 L768.129039,122.334779 L755.405623,109.429968 L764.844038,99.858372 C766.277326,98.4048592 766.277326,96.0487168 764.844038,94.595204 C763.410749,93.1416912 761.085556,93.1416912 759.654103,94.595204 L750.215688,104.1668 L736.895833,90.6571335 L766.620508,60.5 L811.270833,105.782228 L781.536983,135.9375 L773.318974,127.599808 Z M774.678109,196.56125 L762.492458,184.374523 C761.047958,182.928263 758.69972,182.928263 757.25522,184.374523 C755.808869,185.820782 755.808869,188.165167 757.25522,189.611427 L767.966741,200.324118 L742.406504,209.740546 C740.286053,210.522007 739.25268,210.297939 739.132305,210.231274 C739.028598,210.072019 738.802663,209.038712 739.587878,206.91284 C739.587878,206.91284 739.587878,206.910988 739.587878,206.909136 L750.723489,176.683977 L783.600672,143.807033 C783.624747,143.784812 783.652526,143.768145 783.676601,143.745924 C783.700676,143.723702 783.715491,143.694073 783.737714,143.67 L818.759423,108.646814 C818.813129,108.598667 818.874243,108.563483 818.926096,108.509781 C818.97795,108.45793 819.013137,108.39682 819.063139,108.343118 L853.092217,74.3125 L875.020833,96.2415733 L805.718184,165.530556 C805.673738,165.571296 805.621884,165.600925 805.577438,165.645368 C805.532992,165.689811 805.503361,165.73981 805.462619,165.784253 L774.678109,196.56125 Z M858.042857,212.4375 L844.713168,199.110305 L854.157554,189.666384 C855.590914,188.233096 855.590914,185.909738 854.157554,184.476449 C852.726031,183.043161 850.398887,183.043161 848.967363,184.476449 L839.522977,193.920369 L826.802604,181.198789 L836.248825,171.753033 C837.682184,170.319745 837.682184,167.996387 836.248825,166.563098 C834.817302,165.12981 832.490158,165.12981 831.058634,166.563098 L821.612413,176.008854 L813.395833,167.794515 L843.134822,138.0625 L887.770833,182.701815 L858.042857,212.4375 Z" id="Shape" fill="#FFFFFF" fill-rule="nonzero"></path>
            <text id="Visual-Design" font-family="FiraSans-Medium, Fira Sans" font-size="36" font-weight="400" fill="#050505">
                <tspan x="632.046" y="250">Visual Design</tspan>
            </text>
            <circle id="Oval-Copy-3" fill="#F1F1F1" cx="2100.5" cy="137.5" r="137.5"></circle>
            <g id="Group" transform="translate(2017.000000, 62.000000)">
                <path d="M162.998097,12 C162.998097,9.79374708 161.168834,8 158.918899,8 L12.0791978,8 C9.8292623,8 8,9.79374708 8,12 L8,20 L163,20 L163,12 L162.998097,12 Z" id="Path"></path>
                <path d="M8,137.928368 C8,140.17413 9.8292623,142 12.0791978,142 L158.920802,142 C161.170738,142 163,140.17413 163,137.928368 L163,28 L8,28 L8,137.928368 Z M107.088531,63.1095148 C105.495303,61.5192413 105.495303,58.9409843 107.088531,57.3526108 C108.679856,55.7623373 111.264807,55.7623373 112.856132,57.3526108 L137.329416,81.7805037 C138.922644,83.3707772 138.922644,85.9490342 137.329416,87.5374077 L112.856132,111.967201 C112.06047,112.763287 111.015449,113.160381 109.972332,113.160381 C108.929214,113.160381 107.884194,112.763287 107.088531,111.967201 C105.495303,110.376927 105.495303,107.79867 107.088531,106.210296 L128.678014,84.6608557 L107.088531,63.1095148 Z M70.3757507,124.202997 L94.8490341,42.7760537 C95.4962237,40.6214896 97.7690012,39.39981 99.9275688,40.0457992 C102.086136,40.6917885 103.310086,42.9603507 102.662897,45.1149148 L78.189613,126.543758 C77.6604404,128.306928 76.0386594,129.446909 74.2855371,129.446909 C73.8972233,129.446909 73.5031991,129.39181 73.1110784,129.274012 C70.9525108,128.626123 69.7285611,126.357561 70.3757507,124.202997 Z M33.6686807,81.7805037 L58.1419642,57.3526108 C59.7332891,55.7623373 62.3182404,55.7623373 63.9095654,57.3526108 C65.5027938,58.9428843 65.5027938,61.5211413 63.9095654,63.1095148 L42.3200825,84.6589557 L63.9095654,106.208397 C65.5027938,107.79867 65.5027938,110.376927 63.9095654,111.965301 C63.1139029,112.761387 62.0688821,113.158481 61.0257648,113.158481 C59.9826475,113.158481 58.9376266,112.761387 58.1419642,111.965301 L33.6686807,87.5393077 C32.0754522,85.9490342 32.0754522,83.3707772 33.6686807,81.7805037 Z" id="Shape"></path>
                <path d="M158.783136,0 L12.2149643,0 C5.47953912,0 0,5.49059745 0,12.2419564 L0,24.4858173 L0,138.756139 C0,145.507498 5.47953912,151 12.2149643,151 L158.785036,151 C165.520461,151 171,145.507498 171,138.756139 L171,24.4858173 L171,12.2419564 C170.9981,5.49059745 165.518561,0 158.783136,0 Z M8.14330952,12.2419564 C8.14330952,9.99086862 9.96918923,8.16066947 12.2149643,8.16066947 L158.785036,8.16066947 C161.030811,8.16066947 162.85669,9.99086862 162.85669,12.2419564 L162.85669,20.4045304 L8.14330952,20.4045304 L8.14330952,12.2419564 Z M162.854791,138.756139 C162.854791,141.007227 161.028911,142.837426 158.783136,142.837426 L12.2149643,142.837426 C9.96918923,142.837426 8.14330952,141.007227 8.14330952,138.756139 L8.14330952,28.5671043 L162.85669,28.5671043 L162.85669,138.756139 L162.854791,138.756139 Z" id="Shape" fill="#FFFFFF" fill-rule="nonzero"></path>
                <path d="M57.9586846,111.80683 C58.7633513,112.60291 59.8201983,113 60.8751203,113 C61.9300423,113 62.9868893,112.60291 63.7915561,111.80683 C65.4028146,110.21657 65.4028146,107.638334 63.7915561,106.049974 L41.9577512,84.4988125 L63.7915561,62.9495513 C65.4028146,61.359291 65.4028146,58.7810555 63.7915561,57.1926952 C62.1822225,55.6024349 59.5680181,55.6024349 57.9586846,57.1926952 L33.2084439,81.6203845 C31.5971854,83.2106447 31.5971854,85.7888803 33.2084439,87.3772406 L57.9586846,111.80683 Z" id="Path" fill="#FFFFFF"></path>
                <path d="M107.208444,111.80683 C108.013111,112.60291 109.069958,113 110.12488,113 C111.179802,113 112.236649,112.60291 113.041315,111.80683 L137.791556,87.3791405 C139.402815,85.7888803 139.402815,83.2106447 137.791556,81.6222844 L113.041315,57.1926952 C111.431982,55.6024349 108.817777,55.6024349 107.208444,57.1926952 C105.597185,58.7829554 105.597185,61.361191 107.208444,62.9495513 L129.042249,84.4988125 L107.208444,106.049974 C105.597185,107.638334 105.597185,110.21657 107.208444,111.80683 Z" id="Path" fill="#FFFFFF"></path>
                <path d="M72.9393428,129.826278 C73.3358928,129.944638 73.7343678,130 74.1270678,130 C75.8999929,130 77.5400929,128.85458 78.0752429,127.082998 L102.824969,45.267575 C103.479469,43.1027317 102.241694,40.8233464 100.058744,40.1742753 C97.8757936,39.523295 95.5773435,40.7527122 94.9228435,42.9175555 L70.1750427,124.732978 C69.5205426,126.897822 70.7583177,129.177207 72.9393428,129.826278 Z" id="Path" fill="#FFFFFF"></path>
            </g>
            <g id="Group-3-Copy-3" transform="translate(1918.000000, 129.000000)">
                <circle id="Oval" stroke="#FFFFFF" stroke-width="5" fill="#000000" cx="43" cy="43" r="43"></circle>
                <text id="04." font-family="FiraSans-Black, Fira Sans" font-size="34" font-weight="700" fill="#FFFFFF">
                    <tspan x="19.241" y="56">04.</tspan>
                </text>
            </g>
            <text id="Development" font-family="FiraSans-Medium, Fira Sans" font-size="36" font-weight="400" fill="#050505">
                <tspan x="1918.366" y="250">Development</tspan>
            </text>
        </g>
    </g>
</svg>