<svg width="970" height="611" viewBox="0 0 970 611" fill="none" xmlns="http://www.w3.org/2000/svg">
<path opacity="0.45" d="M930.133 0.682617L468.255 462.004H5.99219L465.862 2.71596L930.133 0.682617V0.682617Z" fill="url(#paint0_linear)"/>
<path fill-rule="evenodd" clip-rule="evenodd" d="M425.94 409.034C412.425 409.014 399.119 412.375 387.234 418.812C360.38 366.528 301.242 339.433 244.134 353.248C187.025 367.064 146.794 418.199 146.783 476.982H506.255C499.652 437.754 465.701 409.03 425.94 409.034V409.034Z" fill="#FAFAFA"/>
<path fill-rule="evenodd" clip-rule="evenodd" d="M184.229 472.489C181.088 424.472 140.781 387.114 92.1145 387.114C43.4479 387.114 3.14119 424.472 0 472.489H184.229Z" fill="#FAFAFA"/>
<path opacity="0.6" d="M943.612 196.894L531.942 610.286H265.109L675.431 198.246L943.612 196.894V196.894Z" fill="url(#paint1_linear)"/>
<path fill-rule="evenodd" clip-rule="evenodd" d="M702.69 323.3C715.589 323.27 728.289 326.499 739.63 332.69C765.087 282.177 821.651 255.912 876.294 269.231C930.937 282.549 969.337 331.959 969.074 388.612H626.08C632.356 350.906 664.75 323.289 702.69 323.3V323.3Z" fill="#FAFAFA"/>
<defs>
<linearGradient id="paint0_linear" x1="5.99219" y1="0.682617" x2="5.99219" y2="462.004" gradientUnits="userSpaceOnUse">
<stop offset="0.13" stop-color="#81C6ED" stop-opacity="0.01"/>
<stop offset="0.24" stop-color="#81C6ED" stop-opacity="0.17"/>
<stop offset="0.41" stop-color="#81C6ED" stop-opacity="0.4"/>
<stop offset="0.56" stop-color="#81C6ED" stop-opacity="0.57"/>
<stop offset="0.7" stop-color="#81C6ED" stop-opacity="0.7"/>
<stop offset="0.81" stop-color="#81C6ED" stop-opacity="0.77"/>
<stop offset="0.9" stop-color="#81C6ED" stop-opacity="0.8"/>
</linearGradient>
<linearGradient id="paint1_linear" x1="265.123" y1="196.894" x2="265.123" y2="610.286" gradientUnits="userSpaceOnUse">
<stop stop-color="#22B9A5" stop-opacity="0.01"/>
<stop offset="0.14" stop-color="#22B9A5" stop-opacity="0.21"/>
<stop offset="0.28" stop-color="#22B9A5" stop-opacity="0.37"/>
<stop offset="0.39" stop-color="#22B9A5" stop-opacity="0.47"/>
<stop offset="0.48" stop-color="#22B9A5" stop-opacity="0.5"/>
<stop offset="0.57" stop-color="#22B9A5" stop-opacity="0.47"/>
<stop offset="0.7" stop-color="#22B9A5" stop-opacity="0.37"/>
<stop offset="0.84" stop-color="#22B9A5" stop-opacity="0.21"/>
<stop offset="1" stop-color="#22B9A5" stop-opacity="0.01"/>
</linearGradient>
</defs>
</svg>
