<svg width="180" height="36" viewBox="0 0 180 36" fill="none" xmlns="http://www.w3.org/2000/svg">
<path d="M170.575 12.3574H171.754L178.773 21.2799V12.3574H180V23.5105H178.996L171.802 14.3743V23.5105H170.575V12.3574Z" fill="#717074"/>
<path d="M157.603 17.9659V17.9343C157.603 14.8784 159.848 12.1719 163.19 12.1719C165.07 12.1719 166.231 12.7128 167.345 13.659L166.532 14.607C165.615 13.7506 164.396 13.2928 163.142 13.3337C160.675 13.3337 158.907 15.4193 158.907 17.9027V17.9343C158.907 20.5925 160.612 22.5666 163.319 22.5666C164.484 22.5624 165.615 22.17 166.532 21.4513V18.6779H163.142V17.5458H167.743V21.9885C166.51 23.0848 164.92 23.6924 163.27 23.6968C159.768 23.6968 157.603 21.1501 157.603 17.9659Z" fill="#717074"/>
<path d="M153.576 12.3574H154.833V23.5105H153.576V12.3574Z" fill="#717074"/>
<path d="M142.544 21.8823L143.325 20.9529C144.486 22.0031 145.602 22.5292 147.145 22.5292C148.632 22.5292 149.628 21.7336 149.628 20.635V20.6034C149.628 19.568 149.07 18.9788 146.732 18.4862C144.169 17.9285 142.99 17.1013 142.99 15.2704V15.2388C142.99 13.4877 144.535 12.1977 146.652 12.1977C148.081 12.1567 149.475 12.6445 150.567 13.5677L149.84 14.5436C148.806 13.6997 147.771 13.3335 146.626 13.3335C145.176 13.3335 144.254 14.129 144.254 15.1328V15.1644C144.254 16.2147 144.827 16.8039 147.278 17.33C149.762 17.8709 150.907 18.778 150.907 20.49V20.5216C150.907 22.4325 149.316 23.6817 147.104 23.6817C145.33 23.665 143.892 23.0757 142.544 21.8823Z" fill="#717074"/>
<path d="M132.612 12.3574H140.667V13.5025H133.869V17.3131H139.951V18.46H133.869V22.3636H140.747V23.5105H132.612V12.3574Z" fill="#717074"/>
<path d="M120.164 12.3574H124.032C127.534 12.3574 129.951 14.7739 129.951 17.9024V17.934C129.951 21.0699 127.534 23.5105 124.029 23.5105H120.164V12.3574ZM121.423 13.5192V22.3376H124.025C126.843 22.3376 128.642 20.4267 128.642 17.96V17.934C128.642 15.4673 126.843 13.5248 124.025 13.5248L121.423 13.5192Z" fill="#717074"/>
<path d="M109.659 13.3871V13.3778C109.652 13.1874 109.684 12.9975 109.752 12.8195C109.82 12.6415 109.923 12.4791 110.056 12.3419C110.188 12.2048 110.347 12.0957 110.522 12.0211C110.697 11.9466 110.886 11.9082 111.077 11.9082C111.267 11.9082 111.456 11.9466 111.631 12.0211C111.807 12.0957 111.965 12.2048 112.097 12.3419C112.23 12.4791 112.333 12.6415 112.401 12.8195C112.469 12.9975 112.501 13.1874 112.494 13.3778V13.3778C112.501 13.5683 112.47 13.7582 112.403 13.9364C112.335 14.1146 112.233 14.2773 112.101 14.4149C111.969 14.5525 111.811 14.6621 111.636 14.7372C111.46 14.8123 111.272 14.8513 111.081 14.8519C110.891 14.8525 110.702 14.8148 110.526 14.7408C110.351 14.6669 110.192 14.5583 110.059 14.4216C109.926 14.2849 109.823 14.1228 109.754 13.9451C109.685 13.7674 109.653 13.5776 109.659 13.3871V13.3871ZM112.222 13.3778C112.225 13.2261 112.197 13.0754 112.14 12.9346C112.083 12.7939 111.999 12.6658 111.892 12.558C111.785 12.4501 111.658 12.3647 111.518 12.3066C111.378 12.2485 111.227 12.219 111.076 12.2198C110.924 12.2205 110.774 12.2512 110.634 12.31C110.494 12.3688 110.367 12.4546 110.26 12.5625C110.154 12.6704 110.069 12.7983 110.012 12.9388C109.955 13.0794 109.926 13.2298 109.927 13.3816C109.921 13.5362 109.946 13.6905 110.001 13.8352C110.055 13.9798 110.139 14.112 110.246 14.2236C110.353 14.3352 110.482 14.424 110.624 14.4846C110.767 14.5453 110.92 14.5765 111.075 14.5765C111.229 14.5765 111.383 14.5453 111.525 14.4846C111.667 14.424 111.796 14.3352 111.903 14.2236C112.01 14.112 112.094 13.9798 112.149 13.8352C112.204 13.6905 112.229 13.5362 112.222 13.3816" fill="#717074"/>
<path d="M110.533 12.8179C110.533 12.7774 110.549 12.7387 110.578 12.7101C110.606 12.6815 110.645 12.6654 110.686 12.6654H111.16C111.233 12.6602 111.306 12.67 111.375 12.6943C111.444 12.7186 111.508 12.7569 111.561 12.8067C111.601 12.8479 111.633 12.8968 111.653 12.9505C111.673 13.0042 111.683 13.0616 111.68 13.119C111.686 13.2088 111.662 13.2981 111.613 13.3734C111.564 13.4488 111.491 13.5062 111.407 13.5372L111.615 13.7919C111.645 13.823 111.662 13.8641 111.663 13.9072C111.663 13.9257 111.659 13.944 111.652 13.9611C111.645 13.9781 111.634 13.9936 111.621 14.0065C111.607 14.0195 111.592 14.0297 111.574 14.0365C111.557 14.0434 111.539 14.0468 111.52 14.0466C111.491 14.0461 111.462 14.0389 111.437 14.0253C111.411 14.0117 111.388 13.9923 111.372 13.9685L111.078 13.5967H110.836V13.8997C110.836 13.9196 110.833 13.9393 110.825 13.9576C110.818 13.976 110.807 13.9927 110.793 14.0067C110.779 14.0208 110.762 14.0319 110.744 14.0393C110.725 14.0468 110.705 14.0505 110.686 14.0503C110.646 14.0503 110.607 14.0345 110.579 14.0063C110.55 13.9781 110.534 13.9398 110.533 13.8997V12.8179ZM111.143 13.3328C111.29 13.3328 111.372 13.2547 111.372 13.1469C111.372 13.0186 111.286 12.9498 111.137 12.9498H110.836V13.3458L111.143 13.3328Z" fill="#717074"/>
<path d="M104.51 23.8406C101.415 23.8406 98.8887 21.4408 98.8887 17.9201V17.8737C98.8887 14.5891 101.175 11.9551 104.298 11.9551C107.629 11.9551 109.527 14.7043 109.527 17.7175C109.528 17.8213 109.508 17.9243 109.469 18.0204C109.429 18.1166 109.372 18.204 109.299 18.2778C109.226 18.3515 109.139 18.4101 109.043 18.4502C108.947 18.4903 108.844 18.511 108.741 18.5112H100.59C100.827 20.9742 102.547 22.3609 104.554 22.3609C105.156 22.3646 105.752 22.2498 106.309 22.0231C106.866 21.7963 107.372 21.462 107.8 21.0393C107.903 20.942 108.032 20.8772 108.172 20.8528C108.312 20.8284 108.455 20.8457 108.585 20.9023C108.715 20.9589 108.826 21.0525 108.903 21.1714C108.98 21.2903 109.021 21.4292 109.019 21.5709C109.018 21.6756 108.994 21.7789 108.949 21.8733C108.904 21.9677 108.838 22.0511 108.757 22.1174C107.69 23.1528 106.426 23.8369 104.51 23.8369V23.8406ZM107.843 17.2547C107.668 15.1858 106.491 13.3827 104.248 13.3827C102.287 13.3827 100.803 15.0315 100.59 17.2547H107.843Z" fill="#717074"/>
<path d="M92.5007 12.8292C92.4991 12.6026 92.5868 12.3846 92.7447 12.2222C92.9026 12.0597 93.1181 11.9659 93.3446 11.9611C93.4591 11.9591 93.5729 11.9801 93.6791 12.023C93.7854 12.066 93.8819 12.1298 93.9629 12.2108C94.0439 12.2919 94.1078 12.3884 94.1507 12.4946C94.1936 12.6008 94.2147 12.7146 94.2126 12.8292V14.7977C95.0566 12.8849 96.9303 11.9852 98.1646 11.9852C98.2784 11.9817 98.3918 12.0019 98.4974 12.0444C98.6031 12.087 98.6988 12.151 98.7784 12.2324C98.8581 12.3138 98.92 12.4108 98.9602 12.5174C99.0005 12.624 99.0182 12.7377 99.0122 12.8515C99.0176 13.0647 98.9426 13.2722 98.8021 13.4326C98.6616 13.5931 98.4659 13.6949 98.2538 13.7177C96.0232 13.9854 94.2071 15.6527 94.2071 18.9671V22.8707C94.2125 22.9864 94.1943 23.1021 94.1537 23.2106C94.1132 23.3192 94.051 23.4184 93.971 23.5022C93.8909 23.5861 93.7947 23.6528 93.6882 23.6984C93.5817 23.744 93.467 23.7675 93.3511 23.7675C93.2352 23.7675 93.1205 23.744 93.0139 23.6984C92.9074 23.6528 92.8112 23.5861 92.7312 23.5022C92.6512 23.4184 92.589 23.3192 92.5484 23.2106C92.5078 23.1021 92.4897 22.9864 92.4951 22.8707V12.8329" fill="#717074"/>
<path d="M80.3633 20.2768V20.2322C80.3633 17.8157 82.3597 16.5294 85.2614 16.5294C86.4563 16.5175 87.6464 16.6823 88.7932 17.0182V16.6167C88.7932 14.5571 87.5254 13.492 85.3785 13.492C84.2241 13.492 83.5531 13.6388 82.7091 14.0143C82.6113 14.0556 82.5067 14.0783 82.4006 14.0813C82.2047 14.0799 82.0168 14.003 81.8762 13.8666C81.7356 13.7301 81.6531 13.5447 81.6459 13.3489C81.6358 13.1959 81.6759 13.0437 81.7601 12.9156C81.8443 12.7874 81.968 12.6902 82.1125 12.6388C83.2371 12.148 84.0884 11.9863 85.5513 11.9863C87.1685 11.9863 88.4102 12.4064 89.2504 13.2485C90.0274 14.0255 90.4271 15.1334 90.4271 16.5944V22.9145C90.4314 23.0245 90.4132 23.1342 90.3737 23.237C90.3342 23.3398 90.2742 23.4334 90.1973 23.5122C90.1205 23.591 90.0283 23.6533 89.9266 23.6953C89.8248 23.7373 89.7156 23.7582 89.6055 23.7566C89.4986 23.7606 89.3921 23.7429 89.2924 23.7043C89.1926 23.6658 89.1018 23.6074 89.0254 23.5326C88.949 23.4578 88.8887 23.3682 88.8481 23.2692C88.8076 23.1703 88.7876 23.0642 88.7895 22.9573V21.8643C87.9901 22.9071 86.6592 23.8384 84.6442 23.8384C82.5158 23.8384 80.3689 22.619 80.3689 20.2694L80.3633 20.2768ZM88.8155 19.3827V18.2674C87.7211 17.9449 86.5863 17.7803 85.4454 17.7785C83.2965 17.7785 82.0994 18.7079 82.0994 20.1504V20.195C82.0994 21.6356 83.4304 22.4795 84.9825 22.4795C87.0867 22.4795 88.8173 21.1932 88.8173 19.3771" fill="#717074"/>
<path d="M67.1028 22.9724L63.6193 13.2711C63.5581 13.1223 63.5205 12.9649 63.5078 12.8045C63.5146 12.5816 63.6093 12.3705 63.7713 12.2173C63.9333 12.064 64.1493 11.9811 64.3722 11.9866C64.8164 11.9866 65.1046 12.2747 65.2384 12.6948L68.1252 21.0597L71.025 12.6707C71.157 12.2729 71.4247 11.9847 71.8671 11.9847H71.9563C72.1599 11.9828 72.3582 12.0493 72.5194 12.1738C72.6806 12.2982 72.7952 12.4732 72.8448 12.6707L75.7298 21.0541L78.6612 12.6502C78.7727 12.2933 79.0143 11.9847 79.4828 11.9847C79.5906 11.9815 79.698 11.9996 79.7988 12.038C79.8996 12.0763 79.9919 12.1342 80.0703 12.2083C80.1487 12.2824 80.2117 12.3712 80.2557 12.4697C80.2997 12.5682 80.3238 12.6744 80.3267 12.7822C80.3121 12.9423 80.2746 13.0994 80.2152 13.2488L76.7168 22.9724C76.5309 23.4799 76.1833 23.7476 75.7874 23.7476H75.7223C75.2781 23.7476 74.9435 23.4799 74.7929 22.9724L71.921 14.7284L69.0342 22.9724C68.878 23.4799 68.5453 23.7476 68.1048 23.7476H68.0508C67.6289 23.7476 67.2757 23.4799 67.0973 22.9724" fill="#717074"/>
<path d="M36.0459 12.7024C35.9593 12.5046 35.8338 12.3262 35.6769 12.1778C35.5201 12.0294 35.335 11.9139 35.1327 11.8384C34.9304 11.7628 34.715 11.7286 34.4993 11.7378C34.2835 11.747 34.0718 11.7994 33.8767 11.892C33.6773 11.9768 33.4974 12.1017 33.3482 12.2588C33.1989 12.4158 33.0835 12.6019 33.0089 12.8053C32.9344 13.0088 32.9023 13.2254 32.9147 13.4417C32.9271 13.658 32.9837 13.8695 33.0811 14.0631L36.7188 21.9688C37.2914 23.2086 37.8936 23.8574 39.0257 23.8574C40.2339 23.8574 40.7618 23.151 41.3325 21.9688L44.5372 14.9888C44.5724 14.8964 44.6364 14.8178 44.7198 14.7646C44.8031 14.7114 44.9014 14.6864 45 14.6932C45.0667 14.6937 45.1326 14.7073 45.1939 14.7333C45.2553 14.7592 45.311 14.797 45.3578 14.8445C45.4045 14.892 45.4415 14.9482 45.4666 15.0099C45.4916 15.0717 45.5043 15.1378 45.5038 15.2044V21.9632C45.5038 23.0042 46.08 23.8574 47.1916 23.8574C48.3032 23.8574 48.9036 23.0042 48.9036 21.9632V16.435C48.9036 15.368 49.6657 14.6765 50.7086 14.6765C51.7514 14.6765 52.4354 15.3922 52.4354 16.435V21.9632C52.4354 23.0042 53.0154 23.8574 54.1233 23.8574C55.2311 23.8574 55.8371 23.0042 55.8371 21.9632V16.435C55.8371 15.368 56.5993 14.6765 57.6402 14.6765C58.6812 14.6765 59.3764 15.3922 59.3764 16.435V21.9632C59.3764 23.0042 59.9545 23.8574 61.0642 23.8574C62.174 23.8574 62.7762 23.0042 62.7762 21.9632V15.671C62.7762 13.3586 60.9174 11.7377 58.6867 11.7377C57.3182 11.7603 56.0125 12.3158 55.0471 13.2861C54.3036 12.3214 53.2775 11.7414 51.5432 11.7414C49.7104 11.7414 48.108 13.2861 48.108 13.2861C47.7391 12.8233 47.2746 12.4456 46.7461 12.179C46.2177 11.9124 45.638 11.7631 45.0465 11.7414C43.4237 11.7414 42.1355 12.4552 41.3492 14.2527L39.0257 19.7289L36.0515 12.7043" fill="#717074"/>
<path d="M9.33515 35.3182L0 30.3643V4.95198L9.33515 0V35.3182Z" fill="#0091DA"/>
<path d="M9.33594 0V12.2554L16.1858 17.6293L23.9986 11.5007L9.33594 0Z" fill="#78BE20"/>
<path d="M9.33594 23.0028V35.2601L23.9986 23.7575L16.1858 17.6289L9.33594 23.0028Z" fill="#1A428A"/>
<path d="M16.1855 17.6286L23.9983 23.7573V11.5L16.1855 17.6286Z" fill="#377B2B"/>
</svg>
