<svg width="48" height="48" viewBox="0 0 48 48" fill="none" xmlns="http://www.w3.org/2000/svg">
<path opacity="0.66" d="M44 0H4C1.79086 0 0 1.79086 0 4V44C0 46.2091 1.79086 48 4 48H44C46.2091 48 48 46.2091 48 44V4C48 1.79086 46.2091 0 44 0Z" fill="black"/>
<path d="M29.5209 28.1864C29.574 28.5946 29.4637 29.0072 29.214 29.3343C28.9642 29.6615 28.5953 29.8767 28.1876 29.9331C27.9852 29.9612 27.7793 29.9489 27.5817 29.897C27.3841 29.8451 27.1987 29.7545 27.0363 29.6305C26.8739 29.5065 26.7377 29.3516 26.6355 29.1747C26.5333 28.9978 26.4671 28.8024 26.4409 28.5997C26.4275 28.4623 26.4275 28.3239 26.4409 28.1864V23.2264C26.4743 22.8378 26.353 22.4518 26.1033 22.1522C25.8536 21.8526 25.4958 21.6636 25.1076 21.6264H24.8809C24.676 21.6138 24.4705 21.6417 24.2764 21.7087C24.0823 21.7756 23.9033 21.8802 23.7497 22.0165C23.5961 22.1527 23.4709 22.318 23.3813 22.5027C23.2917 22.6875 23.2395 22.8881 23.2276 23.0931V28.1864C23.2807 28.5946 23.1704 29.0072 22.9206 29.3343C22.6709 29.6615 22.302 29.8767 21.8942 29.9331C21.6919 29.9612 21.4859 29.9489 21.2883 29.897C21.0907 29.8451 20.9054 29.7545 20.743 29.6305C20.5806 29.5065 20.4443 29.3516 20.3421 29.1747C20.2399 28.9978 20.1738 28.8024 20.1476 28.5997C20.1342 28.4623 20.1342 28.3239 20.1476 28.1864V23.2264C20.181 22.8378 20.0597 22.4518 19.81 22.1522C19.5603 21.8526 19.2025 21.6636 18.8142 21.6264H18.5876C18.1744 21.6007 17.7678 21.7388 17.4559 22.0109C17.1439 22.2829 16.9517 22.667 16.9209 23.0797V28.1864C16.974 28.5946 16.8637 29.0072 16.614 29.3343C16.3642 29.6615 15.9953 29.8767 15.5876 29.9331C15.3852 29.9612 15.1793 29.9489 14.9817 29.897C14.7841 29.8451 14.5987 29.7545 14.4363 29.6305C14.2739 29.5065 14.1377 29.3516 14.0355 29.1747C13.9333 28.9978 13.8671 28.8024 13.8409 28.5997C13.8275 28.4623 13.8275 28.3239 13.8409 28.1864V22.1064C13.8409 21.9791 13.7903 21.857 13.7003 21.767C13.6103 21.677 13.4882 21.6264 13.3609 21.6264V21.6264C13.2714 21.6237 13.1831 21.6477 13.1072 21.6951C13.0313 21.7426 12.9711 21.8115 12.9342 21.8931L10.0409 28.1864C9.50758 29.2531 9.02758 29.8931 7.96091 29.8931C6.89424 29.8931 6.41424 29.3331 5.86758 28.1864L2.66758 21.0397C2.57868 20.8761 2.52299 20.6966 2.5037 20.5114C2.48441 20.3262 2.50191 20.139 2.55518 19.9606C2.60846 19.7822 2.69647 19.616 2.81414 19.4717C2.93182 19.3274 3.07686 19.2078 3.24091 19.1197H3.36091C3.7156 18.9574 4.11945 18.9389 4.48749 19.0682C4.85552 19.1975 5.15906 19.4645 5.33424 19.8131L8.00091 26.1597L10.2409 21.1464C10.5001 20.4711 10.9626 19.8929 11.5644 19.4917C12.1663 19.0905 12.8779 18.886 13.6009 18.9064C14.1308 18.9222 14.6514 19.049 15.1291 19.2787C15.6069 19.5083 16.031 19.8358 16.3742 20.2397C17.2313 19.4599 18.3253 18.9904 19.4809 18.9064C20.074 18.8587 20.6699 18.9551 21.2177 19.1872C21.7656 19.4194 22.2493 19.7805 22.6276 20.2397C23.4951 19.3857 24.6635 18.9069 25.8809 18.9064C26.3485 18.8904 26.8146 18.9667 27.2527 19.1309C27.6908 19.2952 28.0922 19.5442 28.4339 19.8636C28.7757 20.1831 29.0511 20.5668 29.2445 20.9929C29.4379 21.4189 29.5454 21.8788 29.5609 22.3464V22.4797L29.5209 28.1864Z" fill="white"/>
<path d="M45.3343 21.3334L42.6676 28.8001C42.5784 29.1764 42.3658 29.5121 42.0638 29.7537C41.7618 29.9953 41.3877 30.1289 41.0009 30.1334H40.8943C40.5171 30.1212 40.1549 29.9833 39.865 29.7418C39.5752 29.5002 39.3743 29.1688 39.2943 28.8001L37.6409 23.5734L36.0009 28.8267C35.9323 29.201 35.7346 29.5394 35.4423 29.783C35.15 30.0266 34.7815 30.1601 34.4009 30.1601H34.2943C33.921 30.135 33.5653 29.9925 33.2779 29.753C32.9905 29.5135 32.7862 29.1893 32.6943 28.8267L30.1343 21.4667C30.0438 21.245 29.9855 21.0116 29.9609 20.7734C29.9609 20.4198 30.1014 20.0806 30.3515 19.8306C30.6015 19.5805 30.9406 19.4401 31.2943 19.4401H31.4143C31.7522 19.4419 32.0793 19.5592 32.3413 19.7727C32.6032 19.9861 32.7843 20.2828 32.8543 20.6134L34.4543 25.9467L36.1076 20.6134C36.1885 20.2785 36.3798 19.9806 36.6508 19.7677C36.9217 19.5548 37.2564 19.4394 37.6009 19.4401H37.7609C38.1055 19.4394 38.4402 19.5548 38.7111 19.7677C38.982 19.9806 39.1734 20.2785 39.2543 20.6134L40.9076 25.9467L42.5743 20.6134C42.6254 20.2718 42.7977 19.96 43.0596 19.7348C43.3215 19.5097 43.6556 19.3861 44.0009 19.3867C44.3546 19.3867 44.6937 19.5272 44.9437 19.7772C45.1938 20.0273 45.3343 20.3664 45.3343 20.7201C45.3742 20.9226 45.3742 21.1309 45.3343 21.3334Z" fill="white"/>
</svg>
