<svg width="48" height="49" viewBox="0 0 48 49" fill="none" xmlns="http://www.w3.org/2000/svg">
<path opacity="0.15" d="M44 0.724609H4C1.79086 0.724609 0 2.51547 0 4.72461V44.7246C0 46.9338 1.79086 48.7246 4 48.7246H44C46.2091 48.7246 48 46.9338 48 44.7246V4.72461C48 2.51547 46.2091 0.724609 44 0.724609Z" fill="white"/>
<path d="M29.5191 28.9115C29.5481 29.1317 29.5298 29.3555 29.4653 29.568C29.4008 29.7805 29.2917 29.9767 29.1453 30.1437C28.9989 30.3106 28.8185 30.4444 28.6163 30.536C28.414 30.6277 28.1945 30.6751 27.9725 30.6751C27.7504 30.6751 27.5309 30.6277 27.3287 30.536C27.1264 30.4444 26.9461 30.3106 26.7996 30.1437C26.6532 29.9767 26.5441 29.7805 26.4797 29.568C26.4152 29.3555 26.3968 29.1317 26.4258 28.9115V23.9515C26.4454 23.7411 26.4193 23.5289 26.3492 23.3295C26.2792 23.1301 26.1669 22.9482 26.02 22.7963C25.8731 22.6443 25.6951 22.5259 25.4982 22.4492C25.3013 22.3724 25.0901 22.3391 24.8791 22.3515C24.6632 22.3385 24.4468 22.3706 24.2439 22.4456C24.041 22.5207 23.8559 22.6372 23.7004 22.7877C23.5449 22.9382 23.4224 23.1193 23.3407 23.3197C23.259 23.5201 23.2199 23.7352 23.2258 23.9515V28.9115C23.2548 29.1317 23.2364 29.3555 23.172 29.568C23.1075 29.7805 22.9984 29.9767 22.852 30.1437C22.7056 30.3106 22.5252 30.4444 22.323 30.536C22.1207 30.6277 21.9012 30.6751 21.6791 30.6751C21.4571 30.6751 21.2376 30.6277 21.0353 30.536C20.8331 30.4444 20.6527 30.3106 20.5063 30.1437C20.3599 29.9767 20.2508 29.7805 20.1863 29.568C20.1219 29.3555 20.1035 29.1317 20.1325 28.9115V23.9515C20.1521 23.7411 20.1259 23.5289 20.0559 23.3295C19.9858 23.1301 19.8735 22.9482 19.7266 22.7963C19.5798 22.6443 19.4018 22.5259 19.2049 22.4492C19.008 22.3724 18.7968 22.3391 18.5858 22.3515C18.3688 22.3366 18.151 22.3672 17.9464 22.4414C17.7419 22.5156 17.5551 22.6318 17.3982 22.7825C17.2412 22.9332 17.1175 23.115 17.035 23.3163C16.9525 23.5177 16.9131 23.734 16.9191 23.9515V28.9115C16.9481 29.1317 16.9298 29.3555 16.8653 29.568C16.8008 29.7805 16.6917 29.9767 16.5453 30.1437C16.3989 30.3106 16.2185 30.4444 16.0163 30.536C15.814 30.6277 15.5945 30.6751 15.3725 30.6751C15.1504 30.6751 14.9309 30.6277 14.7287 30.536C14.5264 30.4444 14.3461 30.3106 14.1996 30.1437C14.0532 29.9767 13.9441 29.7805 13.8797 29.568C13.8152 29.3555 13.7968 29.1317 13.8258 28.9115V22.8315C13.8258 22.7042 13.7752 22.5821 13.6852 22.4921C13.5952 22.4021 13.4731 22.3515 13.3458 22.3515C13.2563 22.3489 13.168 22.3728 13.0921 22.4202C13.0162 22.4677 12.956 22.5366 12.9191 22.6182L10.0392 28.9115C9.50582 29.9782 9.02582 30.6182 7.95915 30.6182C6.89248 30.6182 6.41248 30.0582 5.86582 28.9115L2.66582 21.7649C2.57225 21.5916 2.51593 21.4007 2.50046 21.2043C2.48499 21.008 2.51072 20.8106 2.576 20.6248C2.64128 20.439 2.74467 20.2689 2.87953 20.1254C3.0144 19.9819 3.17776 19.8682 3.35915 19.7915C3.71989 19.6293 4.13028 19.6167 4.50025 19.7567C4.87021 19.8967 5.16952 20.1778 5.33248 20.5382L7.99915 26.8849L10.2391 21.8715C10.4967 21.1951 10.9588 20.6158 11.561 20.2143C12.1633 19.8128 12.8757 19.6091 13.5991 19.6315C14.129 19.6473 14.6496 19.7741 15.1274 20.0038C15.6051 20.2335 16.0293 20.5609 16.3725 20.9649C17.2306 20.1868 18.324 19.7176 19.4791 19.6315C20.0724 19.5827 20.6686 19.6785 21.2166 19.9108C21.7647 20.143 22.2483 20.5047 22.6258 20.9649C23.4926 20.1096 24.6615 19.6306 25.8791 19.6315C26.3578 19.6154 26.8347 19.696 27.2815 19.8685C27.7283 20.041 28.1356 20.3018 28.4792 20.6355C28.8228 20.9691 29.0955 21.3686 29.2811 21.8101C29.4666 22.2516 29.5612 22.726 29.5591 23.2049L29.5191 28.9115Z" fill="white"/>
<path d="M45.3343 22.058L42.6676 29.5247C42.5763 29.8999 42.3632 30.2343 42.0616 30.4755C41.7601 30.7168 41.3871 30.8513 41.001 30.858H40.8943C40.5165 30.8481 40.1531 30.7111 39.8627 30.4692C39.5724 30.2272 39.3721 29.8945 39.2943 29.5247L37.641 24.298L36.001 29.5513C35.9299 29.9245 35.7316 30.2614 35.4398 30.5046C35.148 30.7478 34.7808 30.8821 34.4009 30.8847H34.2943C33.9217 30.8576 33.5669 30.7144 33.2799 30.4752C32.9929 30.2361 32.7881 29.913 32.6943 29.5513L30.1343 22.1913C30.0457 21.969 29.9874 21.7358 29.9609 21.498C29.9602 21.3123 29.9982 21.1286 30.0726 20.9584C30.147 20.7883 30.2561 20.6356 30.3929 20.5101C30.5297 20.3846 30.6912 20.289 30.8671 20.2295C31.043 20.17 31.2294 20.148 31.4143 20.1647C31.7522 20.1665 32.0793 20.2838 32.3413 20.4973C32.6032 20.7107 32.7843 21.0074 32.8543 21.338L34.4543 26.6713L36.1076 21.338C36.1885 21.0031 36.3798 20.7052 36.6508 20.4923C36.9217 20.2794 37.2564 20.164 37.601 20.1647H37.761C38.1055 20.164 38.4402 20.2794 38.7111 20.4923C38.9821 20.7052 39.1734 21.0031 39.2543 21.338L40.9076 26.6713L42.5743 21.338C42.6255 20.9964 42.7977 20.6846 43.0596 20.4594C43.3215 20.2343 43.6556 20.1107 44.001 20.1113C44.3546 20.1113 44.6937 20.2518 44.9438 20.5019C45.1938 20.7519 45.3343 21.091 45.3343 21.4447C45.3729 21.6473 45.3729 21.8554 45.3343 22.058Z" fill="white"/>
</svg>
