<svg width="48" height="48" viewBox="0 0 48 48" fill="none" xmlns="http://www.w3.org/2000/svg">
<g clip-path="url(#clip0)">
<path d="M4.29758 21.5493L16.81 8.48128C16.9636 8.31481 17.1769 8.21602 17.4032 8.20658C17.6295 8.19713 17.8503 8.27779 18.0172 8.43088C18.0352 8.44646 18.052 8.4633 18.0676 8.48128L23.5192 14.1729L24.8476 12.7845L19.4536 7.15288C18.948 6.61845 18.2508 6.30671 17.5154 6.28623C16.78 6.26575 16.0665 6.53821 15.532 7.04368C15.4948 7.07968 15.4576 7.11568 15.4228 7.15288L2.91158 20.2221C2.82112 20.3103 2.74892 20.4154 2.69909 20.5314C2.64927 20.6475 2.62279 20.7723 2.62117 20.8986C2.61956 21.0249 2.64283 21.1503 2.68968 21.2676C2.73652 21.3849 2.80601 21.4918 2.89418 21.5823C2.98235 21.6727 3.08747 21.7449 3.20354 21.7948C3.31962 21.8446 3.44437 21.8711 3.57068 21.8727C3.69698 21.8743 3.82237 21.851 3.93968 21.8042C4.05699 21.7573 4.16392 21.6879 4.25438 21.5997L4.29758 21.5493Z" fill="#0095D3"/>
<path d="M23.52 33.8118L18.0648 39.5094C17.9112 39.6759 17.6979 39.7747 17.4716 39.7841C17.2453 39.7936 17.0245 39.7129 16.8576 39.5598C16.8396 39.5442 16.8228 39.5274 16.8072 39.5094L3.1968 25.2774H7.3416C7.59621 25.2774 7.84039 25.1763 8.02042 24.9962C8.20046 24.8162 8.3016 24.572 8.3016 24.3174C8.3016 24.0628 8.20046 23.8186 8.02042 23.6386C7.84039 23.4586 7.59621 23.3574 7.3416 23.3574H0.96C0.705392 23.3574 0.461212 23.4586 0.281177 23.6386C0.101143 23.8186 0 24.0628 0 24.3174L0 30.9834C0 31.238 0.101143 31.4822 0.281177 31.6622C0.461212 31.8423 0.705392 31.9434 0.96 31.9434C1.21461 31.9434 1.45879 31.8423 1.63882 31.6622C1.81886 31.4822 1.92 31.238 1.92 30.9834V26.721L15.4236 40.8366C15.9283 41.371 16.6245 41.6831 17.3592 41.7043C18.094 41.7254 18.807 41.4539 19.3416 40.9494C19.3812 40.9122 19.4184 40.875 19.4544 40.8366L24.8544 35.1966L23.52 33.8118Z" fill="#0095D3"/>
<path d="M33.6223 21.9499L26.6839 14.7031L25.3555 16.0915L32.2351 23.2795C32.4162 23.4755 32.5168 23.7326 32.5168 23.9995C32.5168 24.2664 32.4162 24.5235 32.2351 24.7195L25.3951 31.8595L26.7295 33.2395L33.6223 26.0395C34.1422 25.4856 34.4315 24.7544 34.4315 23.9947C34.4315 23.235 34.1422 22.5039 33.6223 21.9499V21.9499Z" fill="#0095D3"/>
<path d="M47.0177 16.0569C46.7631 16.0569 46.5189 16.1581 46.3389 16.3381C46.1589 16.5181 46.0577 16.7623 46.0577 17.0169V21.2805L32.5541 7.16372C32.2951 6.88942 31.9828 6.67088 31.6363 6.52149C31.2899 6.3721 30.9166 6.295 30.5393 6.29492V6.29492C30.162 6.295 29.7888 6.3721 29.4423 6.52149C29.0959 6.67088 28.7836 6.88942 28.5245 7.16372L14.3561 21.9597C13.8362 22.5137 13.5469 23.2448 13.5469 24.0045C13.5469 24.7642 13.8362 25.4954 14.3561 26.0493L28.5233 40.8465C29.0289 41.381 29.7261 41.6927 30.4615 41.7132C31.1969 41.7337 31.9104 41.4612 32.4449 40.9557C32.4821 40.9197 32.5193 40.8837 32.5541 40.8465L44.4341 28.4397C44.6103 28.2558 44.7061 28.0094 44.7006 27.7547C44.6951 27.5001 44.5887 27.2581 44.4047 27.0819C44.2208 26.9058 43.9744 26.8099 43.7197 26.8154C43.4651 26.8209 43.2231 26.9274 43.0469 27.1113V27.1113L31.1669 39.5181C31.0911 39.6007 30.9997 39.6674 30.898 39.7146C30.7963 39.7618 30.6864 39.7885 30.5744 39.7932C30.4624 39.7979 30.3505 39.7805 30.2453 39.7419C30.14 39.7034 30.0434 39.6444 29.9609 39.5685C29.9441 39.5533 29.9273 39.5365 29.9105 39.5181L15.7433 24.7197C15.5622 24.5237 15.4616 24.2666 15.4616 23.9997C15.4616 23.7328 15.5622 23.4757 15.7433 23.2797L29.9105 8.49092C29.9864 8.40839 30.0778 8.34161 30.1794 8.29441C30.2811 8.24721 30.3911 8.2205 30.5031 8.21582C30.6151 8.21114 30.7269 8.22858 30.8322 8.26713C30.9374 8.30569 31.034 8.36461 31.1165 8.44052L31.1669 8.49092L44.7809 22.7229H40.6361C40.3815 22.7229 40.1373 22.8241 39.9573 23.0041C39.7773 23.1841 39.6761 23.4283 39.6761 23.6829C39.6761 23.9375 39.7773 24.1817 39.9573 24.3617C40.1373 24.5418 40.3815 24.6429 40.6361 24.6429H47.0177C47.2723 24.6429 47.5165 24.5418 47.6965 24.3617C47.8766 24.1817 47.9777 23.9375 47.9777 23.6829V17.0169C47.9777 16.7623 47.8766 16.5181 47.6965 16.3381C47.5165 16.1581 47.2723 16.0569 47.0177 16.0569Z" fill="#85C81A"/>
</g>
<defs>
<clipPath id="clip0">
<rect width="48" height="48" fill="white"/>
</clipPath>
</defs>
</svg>
