<svg width="49" height="48" viewBox="0 0 49 48" fill="none" xmlns="http://www.w3.org/2000/svg">
<path d="M5.23936 21.2133L17.7518 8.14535C17.9053 7.97887 18.1186 7.88009 18.3449 7.87064C18.5712 7.86119 18.792 7.94185 18.959 8.09495C18.9769 8.11052 18.9938 8.12737 19.0094 8.14535L24.461 13.8369L25.7894 12.4437L20.3954 6.81695C19.8898 6.28251 19.1926 5.97077 18.4572 5.95029C17.7218 5.92982 17.0083 6.20227 16.4738 6.70775C16.4366 6.74375 16.3994 6.77975 16.3646 6.81695L3.85336 19.8837C3.671 20.0625 3.56709 20.3063 3.5645 20.5616C3.56191 20.8169 3.66086 21.0628 3.83956 21.2451C4.01826 21.4275 4.26209 21.5314 4.5174 21.534C4.77271 21.5366 5.0186 21.4377 5.20096 21.2589L5.23936 21.2133Z" fill="#0065AB"/>
<path d="M24.4595 33.4759L18.9995 39.1735C18.8459 39.34 18.6326 39.4388 18.4063 39.4482C18.18 39.4577 17.9592 39.377 17.7923 39.2239C17.7743 39.2083 17.7574 39.1915 17.7419 39.1735L4.13626 24.9415H8.28106C8.53567 24.9415 8.77985 24.8403 8.95988 24.6603C9.13992 24.4803 9.24106 24.2361 9.24106 23.9815C9.24106 23.7269 9.13992 23.4827 8.95988 23.3027C8.77985 23.1226 8.53567 23.0215 8.28106 23.0215H1.89945C1.64485 23.0215 1.40067 23.1226 1.22063 23.3027C1.0406 23.4827 0.939453 23.7269 0.939453 23.9815V30.6475C0.939453 30.9021 1.0406 31.1463 1.22063 31.3263C1.40067 31.5064 1.64485 31.6075 1.89945 31.6075C2.15406 31.6075 2.39824 31.5064 2.57828 31.3263C2.75831 31.1463 2.85945 30.9021 2.85945 30.6475V26.3851L16.3595 40.5007C16.8641 41.0351 17.5604 41.3472 18.2951 41.3684C19.0298 41.3895 19.7429 41.118 20.2775 40.6135C20.3171 40.5763 20.3543 40.5391 20.3903 40.5007L25.7903 34.8607L24.4595 33.4759Z" fill="#0065AB"/>
<path d="M34.5617 21.6156L27.6233 14.3652L26.2949 15.7572L33.1745 22.9452C33.3557 23.1412 33.4563 23.3983 33.4563 23.6652C33.4563 23.9321 33.3557 24.1892 33.1745 24.3852L26.3345 31.5252L27.6689 32.9052L34.5617 25.7052C35.0816 25.1513 35.371 24.4201 35.371 23.6604C35.371 22.9007 35.0816 22.1696 34.5617 21.6156V21.6156Z" fill="#0065AB"/>
<path d="M47.9572 15.722C47.7026 15.722 47.4584 15.8232 47.2784 16.0032C47.0983 16.1833 46.9972 16.4274 46.9972 16.682V20.9456L33.4936 6.82885C33.2343 6.55556 32.922 6.338 32.5758 6.18945C32.2296 6.0409 31.8567 5.96448 31.48 5.96485V5.96485C31.1028 5.96415 30.7295 6.04041 30.3829 6.18897C30.0363 6.33753 29.7236 6.55527 29.464 6.82885L15.2956 21.6248C14.7757 22.1788 14.4863 22.91 14.4863 23.6696C14.4863 24.4293 14.7757 25.1605 15.2956 25.7145L29.4628 40.5117C29.9684 41.0461 30.6656 41.3578 31.401 41.3783C32.1364 41.3988 32.8498 41.1263 33.3844 40.6208C33.4216 40.5848 33.4588 40.5489 33.4936 40.5117L45.3736 28.1049C45.4608 28.0138 45.5292 27.9064 45.575 27.7889C45.6207 27.6713 45.6428 27.5459 45.6401 27.4199C45.6374 27.2938 45.6098 27.1695 45.5591 27.054C45.5083 26.9386 45.4353 26.8343 45.3442 26.747C45.2531 26.6598 45.1457 26.5914 45.0282 26.5457C44.9107 26.4999 44.7853 26.4778 44.6592 26.4805C44.5331 26.4833 44.4088 26.5108 44.2934 26.5616C44.1779 26.6124 44.0736 26.6854 43.9864 26.7764V26.7764L32.1064 39.1832C32.0305 39.2658 31.9391 39.3326 31.8375 39.3798C31.7358 39.427 31.6258 39.4537 31.5138 39.4584C31.4018 39.463 31.29 39.4456 31.1847 39.407C31.0795 39.3685 30.9829 39.3096 30.9004 39.2336C30.8836 39.2184 30.8668 39.2016 30.85 39.1832L16.6828 24.3848C16.5016 24.1888 16.401 23.9318 16.401 23.6648C16.401 23.3979 16.5016 23.1409 16.6828 22.9448L30.85 8.15605C30.9258 8.07352 31.0172 8.00674 31.1189 7.95954C31.2206 7.91233 31.3305 7.88563 31.4425 7.88095C31.5545 7.87627 31.6664 7.8937 31.7716 7.93226C31.8769 7.97081 31.9735 8.02973 32.056 8.10565L32.1064 8.15605L45.7204 22.388H41.5756C41.321 22.388 41.0768 22.4892 40.8968 22.6692C40.7167 22.8493 40.6156 23.0934 40.6156 23.3481C40.6156 23.6027 40.7167 23.8468 40.8968 24.0269C41.0768 24.2069 41.321 24.3081 41.5756 24.3081H47.9572C48.2118 24.3081 48.456 24.2069 48.636 24.0269C48.816 23.8468 48.9172 23.6027 48.9172 23.3481V16.682C48.9172 16.4274 48.816 16.1833 48.636 16.0032C48.456 15.8232 48.2118 15.722 47.9572 15.722Z" fill="#60B515"/>
</svg>
