<svg width="663" height="293" viewBox="0 0 663 293" fill="none" xmlns="http://www.w3.org/2000/svg">
<path d="M467.791 176H469.651C470.387 175.997 471.094 176.286 471.617 176.803C472.14 177.321 472.436 178.024 472.441 178.76L472.691 239.56L652.001 56.9297L455.871 58.3497L317.511 199.35L317.711 248.07C317.713 248.51 317.627 248.946 317.46 249.352C317.293 249.759 317.047 250.129 316.737 250.441C316.427 250.753 316.059 251.001 315.653 251.171C315.247 251.34 314.811 251.428 314.371 251.43H312.131L311.941 205L242.941 275.32L409.491 274.62L438.491 274.5L468.141 244.29L467.791 176Z" fill="url(#paint0_linear_274_76734)"/>
<path d="M355.909 60.3803L142.379 275.73L357.619 274.82L571.839 58.8203L355.909 60.3803ZM314.369 251.38H312.129L311.749 161.12H313.999C314.888 161.118 315.742 161.468 316.374 162.094C317.006 162.72 317.364 163.571 317.369 164.46L317.719 248.02C317.722 248.462 317.637 248.9 317.47 249.308C317.302 249.717 317.056 250.089 316.745 250.402C316.433 250.715 316.063 250.964 315.656 251.133C315.248 251.303 314.811 251.39 314.369 251.39V251.38Z" fill="url(#paint1_linear_274_76734)"/>
<path d="M135.14 186L134.41 14.0405L268.1 13.4805L268.65 143.51" stroke="#8CDFE9" stroke-width="1.51" stroke-linecap="round" stroke-linejoin="round"/>
<path d="M55.0709 132.95C56.9266 132.95 58.4309 131.446 58.4309 129.59C58.4309 127.735 56.9266 126.23 55.0709 126.23C53.2153 126.23 51.7109 127.735 51.7109 129.59C51.7109 131.446 53.2153 132.95 55.0709 132.95Z" stroke="#8CDFE9" stroke-width="1.51" stroke-linecap="round" stroke-linejoin="round"/>
<path d="M70.9694 114.49C72.8251 114.49 74.3294 112.985 74.3294 111.13C74.3294 109.274 72.8251 107.77 70.9694 107.77C69.1137 107.77 67.6094 109.274 67.6094 111.13C67.6094 112.985 69.1137 114.49 70.9694 114.49Z" stroke="#8CDFE9" stroke-width="1.51" stroke-linecap="round" stroke-linejoin="round"/>
<path d="M90.3405 132.3C92.1961 132.3 93.7005 130.796 93.7005 128.94C93.7005 127.084 92.1961 125.58 90.3405 125.58C88.4848 125.58 86.9805 127.084 86.9805 128.94C86.9805 130.796 88.4848 132.3 90.3405 132.3Z" stroke="#8CDFE9" stroke-width="1.51" stroke-linecap="round" stroke-linejoin="round"/>
<path d="M110.661 98.6301C112.516 98.6301 114.021 97.1258 114.021 95.2701C114.021 93.4145 112.516 91.9102 110.661 91.9102C108.805 91.9102 107.301 93.4145 107.301 95.2701C107.301 97.1258 108.805 98.6301 110.661 98.6301Z" stroke="#8CDFE9" stroke-width="1.51" stroke-linecap="round" stroke-linejoin="round"/>
<path d="M56.8203 126.73L68.4603 113.35" stroke="#8CDFE9" stroke-width="1.51" stroke-linecap="round" stroke-linejoin="round"/>
<path d="M74.2812 112.971L88.2412 126.331" stroke="#8CDFE9" stroke-width="1.51" stroke-linecap="round" stroke-linejoin="round"/>
<path d="M108.93 98.1406L92.1797 126.141" stroke="#8CDFE9" stroke-width="1.51" stroke-linecap="round" stroke-linejoin="round"/>
<path d="M40.9301 114.77L11.8301 114.89" stroke="#8CDFE9" stroke-width="1.51" stroke-linecap="round" stroke-linejoin="round"/>
<path d="M40.8887 104.85L15.4688 104.96" stroke="#8CDFE9" stroke-width="1.51" stroke-linecap="round" stroke-linejoin="round"/>
<path d="M40.8497 94.9297L8.42969 95.0697" stroke="#8CDFE9" stroke-width="1.51" stroke-linecap="round" stroke-linejoin="round"/>
<path d="M82.5716 73.1099C99.8139 73.1099 113.792 59.1323 113.792 41.8899C113.792 24.6476 99.8139 10.6699 82.5716 10.6699C65.3292 10.6699 51.3516 24.6476 51.3516 41.8899C51.3516 59.1323 65.3292 73.1099 82.5716 73.1099Z" stroke="#8CDFE9" stroke-width="1.51" stroke-linecap="round" stroke-linejoin="round"/>
<path d="M82.4416 10.6699L82.5716 41.8899L51.3516 42.0199" stroke="#8CDFE9" stroke-width="1.51" stroke-linecap="round" stroke-linejoin="round"/>
<path d="M58.3398 61.5806L82.5698 41.8906" stroke="#8CDFE9" stroke-width="1.51" stroke-linecap="round" stroke-linejoin="round"/>
<path d="M68.25 69.6406L82.57 41.8906" stroke="#8CDFE9" stroke-width="1.51" stroke-linecap="round" stroke-linejoin="round"/>
<path d="M40.0896 42.0703L17.5996 42.1703" stroke="#8CDFE9" stroke-width="1.51" stroke-linecap="round" stroke-linejoin="round"/>
<path d="M40.1292 51.9902L26.9492 52.0502" stroke="#8CDFE9" stroke-width="1.51" stroke-linecap="round" stroke-linejoin="round"/>
<path d="M40.17 61.9102L14.75 62.0102" stroke="#8CDFE9" stroke-width="1.51" stroke-linecap="round" stroke-linejoin="round"/>
<path d="M173.191 32.7598L178.891 27.0098L184.631 32.7098L173.191 32.7598Z" stroke="#8CDFE9" stroke-width="1.51" stroke-linecap="round" stroke-linejoin="round"/>
<path d="M134.508 38.2106L268.198 37.6406" stroke="#8CDFE9" stroke-width="1.51" stroke-linecap="round" stroke-linejoin="round"/>
<path d="M134.449 22.6598L268.139 22.0898" stroke="#8CDFE9" stroke-width="1.51" stroke-linecap="round" stroke-linejoin="round"/>
<path d="M141.25 30.0295L163.64 29.9395" stroke="#8CDFE9" stroke-width="1.51" stroke-linecap="round" stroke-linejoin="round"/>
<path d="M196.309 29.7995L222.119 29.6895" stroke="#8CDFE9" stroke-width="1.51" stroke-linecap="round" stroke-linejoin="round"/>
<path d="M234.359 29.6393L260.169 29.5293" stroke="#8CDFE9" stroke-width="1.51" stroke-linecap="round" stroke-linejoin="round"/>
<path d="M173.258 49.0505L178.958 43.3105L184.698 49.0005L173.258 49.0505Z" stroke="#8CDFE9" stroke-width="1.51" stroke-linecap="round" stroke-linejoin="round"/>
<path d="M134.578 54.4995L268.268 53.9395" stroke="#8CDFE9" stroke-width="1.51" stroke-linecap="round" stroke-linejoin="round"/>
<path d="M141.32 46.3205L163.71 46.2305" stroke="#8CDFE9" stroke-width="1.51" stroke-linecap="round" stroke-linejoin="round"/>
<path d="M196.379 46.0905L222.189 45.9805" stroke="#8CDFE9" stroke-width="1.51" stroke-linecap="round" stroke-linejoin="round"/>
<path d="M234.43 45.9296L254.26 45.8496" stroke="#8CDFE9" stroke-width="1.51" stroke-linecap="round" stroke-linejoin="round"/>
<path d="M173.328 65.3396L179.028 59.5996L184.768 65.2996L173.328 65.3396Z" stroke="#8CDFE9" stroke-width="1.51" stroke-linecap="round" stroke-linejoin="round"/>
<path d="M134.648 70.7905L268.338 70.2305" stroke="#8CDFE9" stroke-width="1.51" stroke-linecap="round" stroke-linejoin="round"/>
<path d="M141.391 62.6195L163.771 62.5195" stroke="#8CDFE9" stroke-width="1.51" stroke-linecap="round" stroke-linejoin="round"/>
<path d="M196.449 62.3891L218.429 62.2891" stroke="#8CDFE9" stroke-width="1.51" stroke-linecap="round" stroke-linejoin="round"/>
<path d="M234.5 62.2291L260.31 62.1191" stroke="#8CDFE9" stroke-width="1.51" stroke-linecap="round" stroke-linejoin="round"/>
<path d="M173.449 92.2102L179.189 97.9102L184.879 92.1602L173.449 92.2102Z" stroke="#8CDFE9" stroke-width="1.51" stroke-linecap="round" stroke-linejoin="round"/>
<path d="M134.719 87.0895L268.409 86.5195" stroke="#8CDFE9" stroke-width="1.51" stroke-linecap="round" stroke-linejoin="round"/>
<path d="M141.461 78.9103L163.841 78.8203" stroke="#8CDFE9" stroke-width="1.51" stroke-linecap="round" stroke-linejoin="round"/>
<path d="M196.52 78.6803L222.33 78.5703" stroke="#8CDFE9" stroke-width="1.51" stroke-linecap="round" stroke-linejoin="round"/>
<path d="M234.559 78.5201L260.379 78.4102" stroke="#8CDFE9" stroke-width="1.51" stroke-linecap="round" stroke-linejoin="round"/>
<path d="M173.379 75.9191L179.119 81.6091L184.809 75.8691L173.379 75.9191Z" stroke="#8CDFE9" stroke-width="1.51" stroke-linecap="round" stroke-linejoin="round"/>
<path d="M134.789 103.38L268.479 102.82" stroke="#8CDFE9" stroke-width="1.51" stroke-linecap="round" stroke-linejoin="round"/>
<path d="M141.52 95.2094L163.91 95.1094" stroke="#8CDFE9" stroke-width="1.51" stroke-linecap="round" stroke-linejoin="round"/>
<path d="M196.578 94.9694L222.398 94.8594" stroke="#8CDFE9" stroke-width="1.51" stroke-linecap="round" stroke-linejoin="round"/>
<path d="M234.629 94.8105L253.659 94.7305" stroke="#8CDFE9" stroke-width="1.51" stroke-linecap="round" stroke-linejoin="round"/>
<path d="M173.539 114.22L179.229 108.48L184.979 114.17L173.539 114.22Z" stroke="#8CDFE9" stroke-width="1.51" stroke-linecap="round" stroke-linejoin="round"/>
<path d="M134.859 119.669L268.549 119.109" stroke="#8CDFE9" stroke-width="1.51" stroke-linecap="round" stroke-linejoin="round"/>
<path d="M141.59 111.5L163.98 111.4" stroke="#8CDFE9" stroke-width="1.51" stroke-linecap="round" stroke-linejoin="round"/>
<path d="M196.648 111.27L222.458 111.16" stroke="#8CDFE9" stroke-width="1.51" stroke-linecap="round" stroke-linejoin="round"/>
<path d="M234.699 111.11L260.509 111" stroke="#8CDFE9" stroke-width="1.51" stroke-linecap="round" stroke-linejoin="round"/>
<path d="M173.59 125.839L179.33 131.539L185.03 125.789L173.59 125.839Z" stroke="#8CDFE9" stroke-width="1.51" stroke-linecap="round" stroke-linejoin="round"/>
<path d="M134.93 135.97L268.62 135.4" stroke="#8CDFE9" stroke-width="1.51" stroke-linecap="round" stroke-linejoin="round"/>
<path d="M141.66 127.789L164.05 127.699" stroke="#8CDFE9" stroke-width="1.51" stroke-linecap="round" stroke-linejoin="round"/>
<path d="M196.719 127.559L222.529 127.449" stroke="#8CDFE9" stroke-width="1.51" stroke-linecap="round" stroke-linejoin="round"/>
<path d="M234.77 127.4L254.6 127.32" stroke="#8CDFE9" stroke-width="1.51" stroke-linecap="round" stroke-linejoin="round"/>
<path d="M173.68 146.81L179.37 141.07L185.11 146.76L173.68 146.81Z" stroke="#8CDFE9" stroke-width="1.51" stroke-linecap="round" stroke-linejoin="round"/>
<path d="M134.988 152.26L234.868 151.84" stroke="#8CDFE9" stroke-width="1.51" stroke-linecap="round" stroke-linejoin="round"/>
<path d="M141.73 144.09L164.12 143.99" stroke="#8CDFE9" stroke-width="1.51" stroke-linecap="round" stroke-linejoin="round"/>
<path d="M196.789 143.85L222.599 143.74" stroke="#8CDFE9" stroke-width="1.51" stroke-linecap="round" stroke-linejoin="round"/>
<path d="M234.84 143.69L260.65 143.58" stroke="#8CDFE9" stroke-width="1.51" stroke-linecap="round" stroke-linejoin="round"/>
<path d="M141.801 160.379L164.191 160.279" stroke="#8CDFE9" stroke-width="1.51" stroke-linecap="round" stroke-linejoin="round"/>
<path d="M463.431 285.119L448.471 285.179L119.231 286.569L119.191 275.819L463.391 274.369L463.431 285.119Z" fill="url(#paint2_linear_274_76734)"/>
<g style="mix-blend-mode:multiply">
<g style="mix-blend-mode:multiply">
<path d="M508.6 116.191C521.458 116.191 531.88 105.768 531.88 92.9109C531.88 80.0537 521.458 69.6309 508.6 69.6309C495.743 69.6309 485.32 80.0537 485.32 92.9109C485.32 105.768 495.743 116.191 508.6 116.191Z" fill="#CEE6F7"/>
</g>
<g style="mix-blend-mode:multiply">
<path d="M508.87 180.691C521.727 180.691 532.15 170.268 532.15 157.411C532.15 144.554 521.727 134.131 508.87 134.131C496.013 134.131 485.59 144.554 485.59 157.411C485.59 170.268 496.013 180.691 508.87 180.691Z" fill="#CEE6F7"/>
</g>
<g style="mix-blend-mode:multiply">
<path d="M509.139 245.191C521.997 245.191 532.419 234.768 532.419 221.911C532.419 209.054 521.997 198.631 509.139 198.631C496.282 198.631 485.859 209.054 485.859 221.911C485.859 234.768 496.282 245.191 509.139 245.191Z" fill="#CEE6F7"/>
</g>
</g>
<path d="M311.753 161.153L183.145 161.691L183.523 251.951L312.131 251.412L311.753 161.153Z" fill="#001559"/>
<path d="M466.061 162.459H337.391V252.719H466.061V162.459Z" fill="#001559"/>
<path d="M457.24 169.854L347.73 170.312L347.872 204.012L457.381 203.553L457.24 169.854Z" fill="#1D428A"/>
<path d="M224.085 170.829L190.625 170.969L190.934 244.748L224.394 244.608L224.085 170.829Z" fill="#1D428A"/>
<path d="M263.831 170.663L230.371 170.803L230.68 244.582L264.14 244.442L263.831 170.663Z" fill="#1D428A"/>
<path d="M302.87 171.77H269.41V245.55H302.87V171.77Z" fill="#1D428A"/>
<path d="M400.48 208.471L347.891 208.691L348.035 243.231L400.625 243.011L400.48 208.471Z" fill="#1D428A"/>
<path d="M457.519 208.231L404.93 208.451L405.074 242.991L457.664 242.771L457.519 208.231Z" fill="#0091DA"/>
<path d="M209.828 252.071L299.948 161.191L311.748 161.141L312.128 251.641L209.828 252.071Z" fill="url(#paint3_linear_274_76734)"/>
<path d="M504.151 112.941C517.008 112.941 527.431 102.518 527.431 89.6609C527.431 76.8037 517.008 66.3809 504.151 66.3809C491.294 66.3809 480.871 76.8037 480.871 89.6609C480.871 102.518 491.294 112.941 504.151 112.941Z" fill="white"/>
<path d="M504.421 177.441C517.278 177.441 527.701 167.018 527.701 154.161C527.701 141.304 517.278 130.881 504.421 130.881C491.563 130.881 481.141 141.304 481.141 154.161C481.141 167.018 491.563 177.441 504.421 177.441Z" fill="white"/>
<path d="M504.69 241.941C517.547 241.941 527.97 231.518 527.97 218.661C527.97 205.804 517.547 195.381 504.69 195.381C491.833 195.381 481.41 205.804 481.41 218.661C481.41 231.518 491.833 241.941 504.69 241.941Z" fill="white"/>
<path d="M504.629 203.279L504.689 218.659L512.799 210.929" stroke="#19BFD3" stroke-width="1.75" stroke-miterlimit="10"/>
<path d="M504.359 138.779L504.419 154.159L515.969 154.109" stroke="#19BFD3" stroke-width="1.75" stroke-miterlimit="10"/>
<path d="M504.078 74.2793L504.148 89.6593L513.748 99.7993" stroke="#19BFD3" stroke-width="1.75" stroke-miterlimit="10"/>
<g opacity="0.3">
<path opacity="0.3" d="M357.039 208.641L357.189 243.181" stroke="#4896D1" stroke-width="5" stroke-miterlimit="10"/>
<path opacity="0.3" d="M368.527 208.59L368.677 243.13" stroke="#4896D1" stroke-width="5" stroke-miterlimit="10"/>
<path opacity="0.3" d="M380.02 208.539L380.16 243.079" stroke="#4896D1" stroke-width="5" stroke-miterlimit="10"/>
<path opacity="0.3" d="M391.508 208.5L391.648 243.03" stroke="#4896D1" stroke-width="5" stroke-miterlimit="10"/>
</g>
<path d="M402.82 239.54L415.33 226.93L422.65 234.19L438.5 218.21L447.85 227.47L460.05 215.17" stroke="#1D2055" stroke-width="1.3" stroke-miterlimit="10"/>
<path d="M224.073 170.831L190.613 170.971L190.667 183.701L224.126 183.56L224.073 170.831Z" fill="#F7C22B"/>
<path d="M466.829 184.63L400.749 251.27L338.439 251.53L338.059 161.03L466.659 160.49L466.829 184.63Z" fill="url(#paint4_linear_274_76734)"/>
<defs>
<linearGradient id="paint0_linear_274_76734" x1="447.441" y1="56.9297" x2="447.441" y2="275.3" gradientUnits="userSpaceOnUse">
<stop offset="0.14" stop-color="#19BFD3" stop-opacity="0"/>
<stop offset="0.24" stop-color="#19BFD3" stop-opacity="0.14"/>
<stop offset="0.36" stop-color="#19BFD3" stop-opacity="0.28"/>
<stop offset="0.46" stop-color="#19BFD3" stop-opacity="0.37"/>
<stop offset="0.54" stop-color="#19BFD3" stop-opacity="0.4"/>
<stop offset="0.63" stop-color="#19BFD3" stop-opacity="0.37"/>
<stop offset="0.74" stop-color="#19BFD3" stop-opacity="0.29"/>
<stop offset="0.88" stop-color="#19BFD3" stop-opacity="0.15"/>
<stop offset="1" stop-color="#19BFD3" stop-opacity="0"/>
</linearGradient>
<linearGradient id="paint1_linear_274_76734" x1="357.109" y1="58.7903" x2="357.109" y2="275.73" gradientUnits="userSpaceOnUse">
<stop stop-color="#22B9A5" stop-opacity="0"/>
<stop offset="0.16" stop-color="#21B9A8" stop-opacity="0.03"/>
<stop offset="0.39" stop-color="#20BAB0" stop-opacity="0.11"/>
<stop offset="0.65" stop-color="#1DBCBC" stop-opacity="0.25"/>
<stop offset="0.93" stop-color="#1ABECE" stop-opacity="0.45"/>
<stop offset="1" stop-color="#19BFD3" stop-opacity="0.5"/>
</linearGradient>
<linearGradient id="paint2_linear_274_76734" x1="463.403" y1="279.754" x2="119.196" y2="281.196" gradientUnits="userSpaceOnUse">
<stop stop-color="#218FCF" stop-opacity="0"/>
<stop offset="0.11" stop-color="#218FCF" stop-opacity="0.24"/>
<stop offset="0.3" stop-color="#218FCF" stop-opacity="0.65"/>
<stop offset="0.43" stop-color="#218FCF" stop-opacity="0.9"/>
<stop offset="0.5" stop-color="#218FCF"/>
</linearGradient>
<linearGradient id="paint3_linear_274_76734" x1="260.486" y1="161.262" x2="260.866" y2="251.771" gradientUnits="userSpaceOnUse">
<stop stop-color="#81C6ED" stop-opacity="0"/>
<stop offset="0.21" stop-color="#81C6ED" stop-opacity="0.03"/>
<stop offset="0.5" stop-color="#81C6ED" stop-opacity="0.1"/>
<stop offset="0.83" stop-color="#81C6ED" stop-opacity="0.23"/>
<stop offset="1" stop-color="#81C6ED" stop-opacity="0.3"/>
</linearGradient>
<linearGradient id="paint4_linear_274_76734" x1="51401.1" y1="16799.4" x2="51435.6" y2="25038.4" gradientUnits="userSpaceOnUse">
<stop stop-color="#81C6ED" stop-opacity="0"/>
<stop offset="0.21" stop-color="#81C6ED" stop-opacity="0.03"/>
<stop offset="0.5" stop-color="#81C6ED" stop-opacity="0.1"/>
<stop offset="0.83" stop-color="#81C6ED" stop-opacity="0.23"/>
<stop offset="1" stop-color="#81C6ED" stop-opacity="0.3"/>
</linearGradient>
</defs>
</svg>
