<svg width="362" height="373" viewBox="0 0 362 373" fill="none" xmlns="http://www.w3.org/2000/svg">
<path opacity="0.45" d="M172.44 254.5L347.59 79.3496L178.83 80.0896L4.08984 249.81L172.44 254.5Z" fill="url(#paint0_linear_274_75470)"/>
<path opacity="0.3" d="M326.999 176L352.239 150.73L254.789 151.15L105.689 300.5H202.689L283.999 219.07L326.999 176Z" fill="url(#paint1_linear_274_75470)"/>
<path fill-rule="evenodd" clip-rule="evenodd" d="M155.269 227.69C150.332 227.68 145.471 228.908 141.129 231.26C137.285 223.767 131.478 217.46 124.329 213.011C117.18 208.562 108.956 206.138 100.537 205.999C92.1173 205.859 83.818 208.009 76.5251 212.218C69.2321 216.428 63.2195 222.539 59.1291 229.9C54.3898 225.311 48.4361 222.176 41.9716 220.863C35.5071 219.551 28.802 220.117 22.6487 222.493C16.4954 224.87 11.151 228.959 7.24731 234.276C3.34356 239.593 1.04358 245.917 0.619141 252.5H184.619C183.451 245.561 179.861 239.262 174.488 234.719C169.114 230.177 162.305 227.686 155.269 227.69Z" fill="#FAFAFA"/>
<path fill-rule="evenodd" clip-rule="evenodd" d="M264.76 195.559C269.439 195.549 274.046 196.711 278.16 198.939C282.646 190.107 289.98 183.047 298.977 178.902C307.974 174.756 318.106 173.768 327.734 176.096C337.362 178.425 345.923 183.935 352.031 191.733C358.139 199.532 361.436 209.164 361.39 219.069H237C238.104 212.502 241.497 206.538 246.578 202.235C251.66 197.931 258.101 195.566 264.76 195.559Z" fill="#FAFAFA"/>
<path d="M175.109 130.41L194.259 205.6" stroke="#81C6ED" stroke-width="1.79" stroke-linecap="round" stroke-linejoin="round"/>
<path d="M210.3 131.6L194.26 205.6" stroke="#81C6ED" stroke-width="1.79" stroke-linecap="round" stroke-linejoin="round"/>
<path d="M167.221 153.051L194.261 205.001" stroke="#81C6ED" stroke-width="1.79" stroke-linecap="round" stroke-linejoin="round"/>
<path d="M218.14 143.859L194.26 206.189" stroke="#81C6ED" stroke-width="1.79" stroke-linecap="round" stroke-linejoin="round"/>
<path d="M194.801 139.039V209.469" stroke="#81C6ED" stroke-width="1.79" stroke-linecap="round" stroke-linejoin="round"/>
<path d="M208.93 251.461C211.779 251.461 214.09 249.15 214.09 246.301C214.09 243.451 211.779 241.141 208.93 241.141C206.08 241.141 203.77 243.451 203.77 246.301C203.77 249.15 206.08 251.461 208.93 251.461Z" fill="#4896D1"/>
<path d="M207.5 245.229L208.28 224.369" stroke="#4896D1" stroke-width="1.43" stroke-miterlimit="10"/>
<path d="M208.309 225.65C209.43 225.65 210.339 224.741 210.339 223.62C210.339 222.499 209.43 221.59 208.309 221.59C207.188 221.59 206.279 222.499 206.279 223.62C206.279 224.741 207.188 225.65 208.309 225.65Z" fill="#4896D1"/>
<path d="M236.86 270.721L236.92 244.721C236.818 241.023 235.297 237.506 232.672 234.899C230.046 232.293 226.519 230.796 222.82 230.721C219.314 230.64 215.899 231.843 213.219 234.105C210.539 236.367 208.779 239.531 208.27 243.001L207 267.001L236.86 270.721Z" fill="url(#paint2_linear_274_75470)"/>
<path d="M218.14 254.16C222.183 254.16 225.46 250.882 225.46 246.84C225.46 242.797 222.183 239.52 218.14 239.52C214.098 239.52 210.82 242.797 210.82 246.84C210.82 250.882 214.098 254.16 218.14 254.16Z" fill="url(#paint3_linear_274_75470)"/>
<path d="M215.15 258.2C216.192 258.841 217.395 259.171 218.618 259.15C219.841 259.129 221.032 258.757 222.05 258.08" stroke="#02958A" stroke-width="1.48" stroke-miterlimit="10"/>
<path d="M220.78 248.9C221.857 248.9 222.73 248.027 222.73 246.95C222.73 245.873 221.857 245 220.78 245C219.703 245 218.83 245.873 218.83 246.95C218.83 248.027 219.703 248.9 220.78 248.9Z" fill="#F8C22C"/>
<path d="M214.641 247.99C215.513 247.99 216.221 247.283 216.221 246.41C216.221 245.537 215.513 244.83 214.641 244.83C213.768 244.83 213.061 245.537 213.061 246.41C213.061 247.283 213.768 247.99 214.641 247.99Z" fill="#F8C22C"/>
<path d="M196.64 310.43C196.64 310.43 169.39 328.49 192.4 352.11" stroke="url(#paint4_linear_274_75470)" stroke-width="5.2" stroke-miterlimit="10"/>
<path d="M189.33 350.871C190.473 350.216 191.734 349.794 193.041 349.628C194.348 349.463 195.674 349.557 196.945 349.905C198.215 350.254 199.404 350.85 200.443 351.659C201.482 352.468 202.351 353.474 203 354.621V354.681V354.751L180.88 367.091C180.88 367.091 179.93 356.121 189.33 350.871Z" fill="#0065AB"/>
<path d="M202.989 354.75L180.869 367.09" stroke="#4896D1" stroke-width="1.83" stroke-miterlimit="10"/>
<path d="M216.081 312.939C216.081 312.939 193.271 336.429 220.801 354.569" stroke="url(#paint5_linear_274_75470)" stroke-width="5.2" stroke-miterlimit="10"/>
<path d="M217.539 354.001C219.521 352.241 222.12 351.34 224.766 351.496C227.411 351.651 229.887 352.851 231.649 354.831L231.709 354.891L212.709 371.641C212.709 371.641 209.469 361.171 217.539 354.001Z" fill="#0065AB"/>
<path d="M231.711 354.93L212.721 371.68" stroke="#4896D1" stroke-width="1.83" stroke-miterlimit="10"/>
<path d="M228.301 81.2306C244.549 81.2306 257.721 68.0588 257.721 51.8106C257.721 35.5624 244.549 22.3906 228.301 22.3906C212.053 22.3906 198.881 35.5624 198.881 51.8106C198.881 68.0588 212.053 81.2306 228.301 81.2306Z" fill="url(#paint6_linear_274_75470)"/>
<path opacity="0.84" d="M148.109 160C164.358 160 177.529 146.828 177.529 130.58C177.529 114.332 164.358 101.16 148.109 101.16C131.861 101.16 118.689 114.332 118.689 130.58C118.689 146.828 131.861 160 148.109 160Z" fill="#ABCF37"/>
<path d="M176.358 65.1475C178.961 49.1093 168.07 33.9972 152.032 31.3938C135.994 28.7904 120.882 39.6816 118.278 55.7199C115.675 71.7582 126.566 86.8702 142.604 89.4736C158.643 92.077 173.755 81.1858 176.358 65.1475Z" fill="#81C6ED"/>
<path d="M227.001 147.2C243.768 147.2 257.361 133.608 257.361 116.84C257.361 100.073 243.768 86.4805 227.001 86.4805C210.233 86.4805 196.641 100.073 196.641 116.84C196.641 133.608 210.233 147.2 227.001 147.2Z" fill="#81C6ED"/>
<path d="M197.199 213.039L197.529 275.089" stroke="url(#paint7_linear_274_75470)" stroke-width="5.2" stroke-miterlimit="10"/>
<path d="M205.12 262.35L234.33 268.43L221.2 320.65L188.87 311.57C187.996 311.327 187.177 310.914 186.463 310.355C185.748 309.796 185.15 309.101 184.705 308.31C184.259 307.52 183.973 306.649 183.864 305.748C183.755 304.847 183.825 303.934 184.07 303.06C184.089 302.988 184.112 302.918 184.14 302.85L193.14 272.62L205.12 262.35Z" fill="#CEE6F7"/>
<path d="M241.119 271.43L234.329 268.43L222.809 278.68L214.319 308.39C213.962 309.641 213.855 310.951 214.005 312.244C214.155 313.536 214.558 314.787 215.191 315.924C215.825 317.061 216.676 318.061 217.697 318.869C218.717 319.676 219.887 320.275 221.139 320.63C223.901 321.398 226.856 321.039 229.353 319.631C231.85 318.223 233.687 315.881 234.459 313.12C234.475 312.989 234.508 312.861 234.559 312.74L240.559 287.74C243.269 276.92 241.119 271.43 241.119 271.43Z" fill="url(#paint8_linear_274_75470)"/>
<path d="M234 277.789C234 277.789 255 284.739 255 316.319" stroke="url(#paint9_linear_274_75470)" stroke-width="5.2" stroke-miterlimit="10" stroke-linecap="round"/>
<path d="M252 315.789H257.52C259.382 315.789 261.174 316.495 262.536 317.765C263.898 319.034 264.728 320.772 264.86 322.629V323.159C264.961 325.103 264.285 327.008 262.982 328.453C261.678 329.899 259.854 330.768 257.91 330.869H257.46C257.46 330.869 255.73 320.339 252 315.789Z" fill="#0065AB"/>
<path d="M248.551 321.459L251.991 315.789H257.391L250.741 322.709L248.551 321.459Z" fill="#0065AB"/>
<path d="M185.73 298.1L234.87 310.81" stroke="#4896D1" stroke-width="1.83" stroke-miterlimit="10"/>
<path d="M214.92 285.52L211.45 297.52C211.282 298.103 210.894 298.598 210.368 298.9C209.842 299.203 209.219 299.289 208.63 299.14L193.69 295.43C193.092 295.277 192.579 294.894 192.263 294.363C191.946 293.833 191.852 293.2 192 292.6V292.54L195.27 281C195.418 280.419 195.784 279.918 196.293 279.601C196.802 279.284 197.414 279.176 198 279.3L213.19 282.58C213.79 282.721 214.31 283.093 214.637 283.616C214.963 284.139 215.068 284.77 214.93 285.37L214.92 285.52Z" fill="#81C6ED"/>
<path opacity="0.9" d="M232.61 116.84C252.283 116.84 268.23 100.892 268.23 81.2196C268.23 61.5472 252.283 45.5996 232.61 45.5996C212.938 45.5996 196.99 61.5472 196.99 81.2196C196.99 100.892 212.938 116.84 232.61 116.84Z" fill="#22B9A5"/>
<path opacity="0.9" d="M139.62 129.24C159.292 129.24 175.24 113.292 175.24 93.62C175.24 73.9476 159.292 58 139.62 58C119.948 58 104 73.9476 104 93.62C104 113.292 119.948 129.24 139.62 129.24Z" fill="#22B9A5"/>
<path d="M193.44 71.7009C213.113 71.7009 229.06 55.7533 229.06 36.0809C229.06 16.4086 213.113 0.460938 193.44 0.460938C173.768 0.460938 157.82 16.4086 157.82 36.0809C157.82 55.7533 173.768 71.7009 193.44 71.7009Z" fill="url(#paint10_linear_274_75470)"/>
<circle cx="182.5" cy="101.5" r="41.5" fill="url(#paint11_linear_274_75470)"/>
<path d="M194.8 218.391C198.92 218.391 202.26 215.051 202.26 210.931C202.26 206.811 198.92 203.471 194.8 203.471C190.68 203.471 187.34 206.811 187.34 210.931C187.34 215.051 190.68 218.391 194.8 218.391Z" fill="#0065AB"/>
<path d="M205.119 262.35L193.109 272.58L222.809 278.65L234.329 268.4L205.119 262.35Z" fill="url(#paint12_linear_274_75470)"/>
<defs>
<linearGradient id="paint0_linear_274_75470" x1="175.84" y1="79.3496" x2="175.84" y2="254.5" gradientUnits="userSpaceOnUse">
<stop offset="0.13" stop-color="#81C6ED" stop-opacity="0"/>
<stop offset="0.24" stop-color="#81C6ED" stop-opacity="0.17"/>
<stop offset="0.41" stop-color="#81C6ED" stop-opacity="0.4"/>
<stop offset="0.56" stop-color="#81C6ED" stop-opacity="0.57"/>
<stop offset="0.7" stop-color="#81C6ED" stop-opacity="0.7"/>
<stop offset="0.81" stop-color="#81C6ED" stop-opacity="0.77"/>
<stop offset="0.9" stop-color="#81C6ED" stop-opacity="0.8"/>
</linearGradient>
<linearGradient id="paint1_linear_274_75470" x1="228.969" y1="150.73" x2="228.969" y2="300.5" gradientUnits="userSpaceOnUse">
<stop stop-color="#22B9A5" stop-opacity="0"/>
<stop offset="0.14" stop-color="#22B9A5" stop-opacity="0.21"/>
<stop offset="0.28" stop-color="#22B9A5" stop-opacity="0.37"/>
<stop offset="0.39" stop-color="#22B9A5" stop-opacity="0.47"/>
<stop offset="0.48" stop-color="#22B9A5" stop-opacity="0.5"/>
<stop offset="0.57" stop-color="#22B9A5" stop-opacity="0.47"/>
<stop offset="0.7" stop-color="#22B9A5" stop-opacity="0.37"/>
<stop offset="0.84" stop-color="#22B9A5" stop-opacity="0.21"/>
<stop offset="1" stop-color="#22B9A5" stop-opacity="0"/>
</linearGradient>
<linearGradient id="paint2_linear_274_75470" x1="221.912" y1="233.101" x2="222" y2="273.27" gradientUnits="userSpaceOnUse">
<stop offset="0.4" stop-color="#FDF7FA"/>
<stop offset="0.48" stop-color="#F5F4F9"/>
<stop offset="0.62" stop-color="#DEEBF7"/>
<stop offset="0.79" stop-color="#B8DCF3"/>
<stop offset="0.99" stop-color="#85C7ED"/>
<stop offset="1" stop-color="#81C6ED"/>
</linearGradient>
<linearGradient id="paint3_linear_274_75470" x1="223.785" y1="246.275" x2="209.155" y2="247.738" gradientUnits="userSpaceOnUse">
<stop offset="0.28" stop-color="#22B9A5"/>
<stop offset="0.84" stop-color="#02958A"/>
</linearGradient>
<linearGradient id="paint4_linear_274_75470" x1="-34171.9" y1="-70698.6" x2="-34940" y2="-72062.4" gradientUnits="userSpaceOnUse">
<stop offset="0.28" stop-color="#22B9A5"/>
<stop offset="0.84" stop-color="#02958A"/>
</linearGradient>
<linearGradient id="paint5_linear_274_75470" x1="-30487" y1="-53863.4" x2="-31520.4" y2="-55037.7" gradientUnits="userSpaceOnUse">
<stop offset="0.28" stop-color="#22B9A5"/>
<stop offset="0.84" stop-color="#02958A"/>
</linearGradient>
<linearGradient id="paint6_linear_274_75470" x1="198.881" y1="51.8106" x2="257.721" y2="51.8106" gradientUnits="userSpaceOnUse">
<stop stop-color="#1C4077"/>
<stop offset="0.18" stop-color="#1F467D"/>
<stop offset="0.43" stop-color="#28578F"/>
<stop offset="0.71" stop-color="#3673AC"/>
<stop offset="1" stop-color="#4896D1"/>
</linearGradient>
<linearGradient id="paint7_linear_274_75470" x1="742.87" y1="-149295" x2="742.87" y2="-153147" gradientUnits="userSpaceOnUse">
<stop offset="0.28" stop-color="#22B9A5"/>
<stop offset="0.84" stop-color="#02958A"/>
</linearGradient>
<linearGradient id="paint8_linear_274_75470" x1="213.939" y1="294.73" x2="241.929" y2="294.73" gradientUnits="userSpaceOnUse">
<stop stop-color="#4896D1"/>
<stop offset="1" stop-color="#81C6ED"/>
</linearGradient>
<linearGradient id="paint9_linear_274_75470" x1="-23842.6" y1="-90674.5" x2="-24392.8" y2="-90674.5" gradientUnits="userSpaceOnUse">
<stop offset="0.28" stop-color="#22B9A5"/>
<stop offset="0.84" stop-color="#02958A"/>
</linearGradient>
<linearGradient id="paint10_linear_274_75470" x1="157.82" y1="36.0809" x2="229.06" y2="36.0809" gradientUnits="userSpaceOnUse">
<stop stop-color="#ABCF37"/>
<stop offset="0.24" stop-color="#A5CD39"/>
<stop offset="0.58" stop-color="#93C83D"/>
<stop offset="0.97" stop-color="#76BF44"/>
<stop offset="1" stop-color="#73BE45"/>
</linearGradient>
<linearGradient id="paint11_linear_274_75470" x1="141" y1="101.5" x2="224" y2="101.5" gradientUnits="userSpaceOnUse">
<stop offset="0.151042" stop-color="#1F588D"/>
<stop offset="1" stop-color="#49B0FE"/>
</linearGradient>
<linearGradient id="paint12_linear_274_75470" x1="213.719" y1="262.35" x2="213.719" y2="278.65" gradientUnits="userSpaceOnUse">
<stop stop-color="#FDF7FA"/>
<stop offset="0.14" stop-color="#F5F4F9"/>
<stop offset="0.37" stop-color="#DEEBF7"/>
<stop offset="0.65" stop-color="#B8DCF3"/>
<stop offset="0.98" stop-color="#85C7ED"/>
<stop offset="1" stop-color="#81C6ED"/>
</linearGradient>
</defs>
</svg>
