<svg width="149" height="19" viewBox="0 0 149 19" fill="none" xmlns="http://www.w3.org/2000/svg">
<path fill-rule="evenodd" clip-rule="evenodd" d="M59.2466 14.2958H55.708L58.4767 2.31183L62.3355 1.00073L59.2466 14.2958Z" fill="#D61F25"/>
<path fill-rule="evenodd" clip-rule="evenodd" d="M51.6454 7.43144C50.7989 7.43144 50.3105 8.07964 50.1129 8.83174C51.789 8.83174 52.2961 8.34714 52.2961 7.94614C52.2961 7.66394 52.0226 7.43144 51.6454 7.43144ZM49.7176 10.9306C49.697 11.0124 49.6804 11.1643 49.6804 11.2461C49.6804 11.7799 50.0756 11.9625 51.123 11.9625C52.0599 11.9625 53.3934 11.7467 54.1699 11.4976V13.947C53.1785 14.2804 51.6261 14.463 50.3817 14.463C47.4606 14.463 46.0552 13.7287 46.0552 11.2805C46.0552 8.87724 47.2623 5.12964 51.9168 5.12964C54.8726 5.12964 55.7549 6.36504 55.7549 7.66394C55.7549 9.34644 54.1879 10.7799 49.7176 10.9306Z" fill="#D61F25"/>
<path fill-rule="evenodd" clip-rule="evenodd" d="M65.6731 4.7003C64.4674 4.7003 63.6909 3.9838 63.6909 3.0004C63.6909 1.717 64.665 1 65.8707 1C67.0978 1 67.8563 1.717 67.8563 2.6832C67.8563 3.9838 66.9001 4.7003 65.6731 4.7003Z" fill="#D61F25"/>
<path fill-rule="evenodd" clip-rule="evenodd" d="M63.1911 5.43091H66.8323L64.9911 14.1636H61.312L62.6103 8.03171" fill="#D61F25"/>
<path fill-rule="evenodd" clip-rule="evenodd" d="M77.3257 5.43091C76.0628 8.36431 74.6741 11.2302 72.9074 14.1636H68.3986C67.8223 11.3962 67.5695 8.47941 67.642 5.43091H71.3211C71.2479 6.86381 71.2672 8.33121 71.355 9.69641C71.3743 10.063 71.4116 10.4128 71.4461 10.7646H71.4668C71.6272 10.4128 71.8068 10.063 71.9698 9.69641C72.6007 8.26111 73.1769 6.69901 73.6128 5.43091H77.3257Z" fill="#D61F25"/>
<path fill-rule="evenodd" clip-rule="evenodd" d="M82.249 7.43144C81.4033 7.43144 80.9129 8.07964 80.7139 8.83174C82.3934 8.83174 82.8984 8.34714 82.8984 7.94614C82.8984 7.66394 82.629 7.43144 82.249 7.43144ZM80.3206 10.9306C80.3027 11.0124 80.282 11.1643 80.282 11.2461C80.282 11.7799 80.6813 11.9625 81.7253 11.9625C82.6635 11.9625 83.9977 11.7467 84.7729 11.4976V13.947C83.7807 14.2804 82.2304 14.463 80.9874 14.463C78.0642 14.463 76.6582 13.7287 76.6582 11.2805C76.6582 8.87724 77.8653 5.12964 82.5198 5.12964C85.4769 5.12964 86.3585 6.36504 86.3585 7.66394C86.3585 9.34644 84.7928 10.7799 80.3206 10.9306Z" fill="#D61F25"/>
<path fill-rule="evenodd" clip-rule="evenodd" d="M93.4312 8.51314C93.2309 8.46344 92.8337 8.41174 92.5462 8.41174C91.7337 8.41174 91.0849 9.16384 90.7949 10.5463L90.041 14.1642H86.3579L88.2011 5.43154H90.9605L91.0497 6.59574C91.8968 5.63084 92.5655 5.12964 93.5929 5.12964C94.0607 5.12964 94.3135 5.16284 94.4386 5.19664L93.4312 8.51314Z" fill="#D61F25"/>
<path fill-rule="evenodd" clip-rule="evenodd" d="M104.934 5.43091C103.311 9.33051 101.869 12.1809 100.425 14.1482C98.334 17.0325 96.4934 17.6991 94.599 17.6991C94.0394 17.6991 93.4452 17.5632 93.1558 17.431L93.7346 14.9139H94.997C95.6284 14.9139 95.8972 14.679 96.3131 14.1636C95.6098 11.8144 95.2671 8.53101 95.3024 5.43091H99.0007C98.9255 6.84601 98.9455 8.31461 99.0367 9.64721C99.0546 10.0291 99.0886 10.3962 99.1245 10.7646H99.1437C99.3055 10.4128 99.4852 10.063 99.6488 9.67981C100.262 8.29611 100.858 6.71261 101.252 5.43091H104.934Z" fill="#D61F25"/>
<path fill-rule="evenodd" clip-rule="evenodd" d="M119.076 14.1642H115.196L116.116 9.76224H112.832L111.912 14.1642H108.037L110.488 2.52954H114.367L113.484 6.68124H116.766L117.65 2.52954H121.525L119.076 14.1642Z" fill="#D61F25"/>
<path fill-rule="evenodd" clip-rule="evenodd" d="M126.719 7.43144C125.871 7.43144 125.385 8.07964 125.188 8.83174C126.864 8.83174 127.371 8.34714 127.371 7.94614C127.371 7.66394 127.098 7.43144 126.719 7.43144ZM124.79 10.9306C124.772 11.0124 124.755 11.1643 124.755 11.2461C124.755 11.7799 125.152 11.9625 126.195 11.9625C127.135 11.9625 128.469 11.7467 129.244 11.4976V13.947C128.253 14.2804 126.702 14.463 125.456 14.463C122.535 14.463 121.128 13.7287 121.128 11.2805C121.128 8.87724 122.337 5.12964 126.989 5.12964C129.949 5.12964 130.833 6.36504 130.833 7.66394C130.833 9.34644 129.261 10.7799 124.79 10.9306Z" fill="#D61F25"/>
<path fill-rule="evenodd" clip-rule="evenodd" d="M137.899 8.51314C137.701 8.46344 137.308 8.41174 137.017 8.41174C136.206 8.41174 135.556 9.16384 135.267 10.5463L134.509 14.1642H130.833L132.67 5.43154H135.428L135.52 6.59574C136.368 5.63084 137.033 5.12964 138.06 5.12964C138.532 5.12964 138.783 5.16284 138.911 5.19664L137.899 8.51314Z" fill="#D61F25"/>
<path fill-rule="evenodd" clip-rule="evenodd" d="M143.941 7.8133C142.463 7.8133 142.066 9.89681 142.066 10.8309C142.066 11.5806 142.409 11.7964 143.077 11.7964C144.536 11.7964 144.915 9.71161 144.915 8.76461C144.915 8.03161 144.591 7.8133 143.941 7.8133ZM142.569 14.4623C139.703 14.4623 138.298 13.3283 138.298 11.0627C138.298 8.54631 139.649 5.12891 144.412 5.12891C147.261 5.12891 148.684 6.29621 148.684 8.53091C148.684 11.0978 147.332 14.4623 142.569 14.4623Z" fill="#D61F25"/>
<path fill-rule="evenodd" clip-rule="evenodd" d="M38.1576 11.3967H37.4356L38.7325 5.26243H39.7446C41.2763 5.26243 41.8359 6.09883 41.8359 7.24563C41.8359 9.56413 40.4446 11.3967 38.1576 11.3967ZM41.5937 5.47953L44.0451 3.30493C43.0889 2.77353 41.776 2.53003 40.1385 2.53003H35.45L33 14.1641H37.8874C43.566 14.1641 45.8371 10.4977 45.8371 6.68113C45.8371 5.68913 45.6068 4.89653 45.1603 4.28033L41.5937 5.47953Z" fill="#D61F25"/>
<path fill-rule="evenodd" clip-rule="evenodd" d="M22.964 8.92861C22.9578 8.93163 22.9541 8.93459 22.9484 8.93707L20.2668 9.99364L20.1848 10.0294L19.5316 12.9126C19.4879 13.0109 19.3578 13.0343 19.2693 12.9518L17.3159 10.722L17.3061 10.7156L6.28906 15.279C6.27977 15.284 6.26895 15.2864 6.25813 15.2864C6.21751 15.2864 6.18409 15.2547 6.18409 15.214C6.18409 15.1916 6.19593 15.1708 6.21446 15.1573L15.7389 8.27523L14.5338 5.61889C14.4737 5.49777 14.5847 5.36913 14.7319 5.40493H14.7329L17.6517 6.09901L19.9178 4.15174V4.1522C20.0161 4.07823 20.1488 4.13085 20.1734 4.24803L20.3946 7.17346L23.0082 8.64956C23.12 8.71814 23.104 8.87849 22.964 8.92861ZM21.6324 0.567416C18.251 -0.713583 14.5328 0.24816 12.2373 2.70985L3.28326 11.9702C3.16186 12.0949 3.21845 12.2513 3.36501 12.2721L5.75055 12.4137C5.94185 12.425 5.96548 12.5835 5.86934 12.6922L0.0373189 18.7645C-0.0640283 18.8702 0.0583358 19.0351 0.197752 18.9934L8.52386 16.4537C8.6997 16.3951 8.83549 16.5466 8.76094 16.6796L7.64737 18.5803C7.58981 18.6885 7.69778 18.837 7.83765 18.827L19.8412 16.2462C22.7096 15.8077 25.2704 13.9598 26.4087 11.1615C28.1232 6.96198 25.9819 2.2193 21.6324 0.567416Z" fill="#D61F25"/>
</svg>
