<?xml version="1.0" encoding="UTF-8"?> <svg xmlns="http://www.w3.org/2000/svg" width="124" height="61" viewBox="0 0 124 61" fill="none"><path fill-rule="evenodd" clip-rule="evenodd" d="M30.7816 55.7511H27.243L30.0117 43.7671L33.8705 42.456L30.7816 55.7511Z" fill="white"></path><path fill-rule="evenodd" clip-rule="evenodd" d="M23.1807 48.8867C22.3342 48.8867 21.8458 49.5349 21.6482 50.287C23.3243 50.287 23.8314 49.8024 23.8314 49.4014C23.8314 49.1192 23.5579 48.8867 23.1807 48.8867ZM21.2529 52.3859C21.2323 52.4677 21.2157 52.6196 21.2157 52.7014C21.2157 53.2352 21.6109 53.4178 22.6583 53.4178C23.5952 53.4178 24.9287 53.202 25.7052 52.9529V55.4023C24.7138 55.7357 23.1614 55.9183 21.917 55.9183C18.9959 55.9183 17.5905 55.184 17.5905 52.7358C17.5905 50.3325 18.7976 46.5849 23.4521 46.5849C26.4079 46.5849 27.2902 47.8203 27.2902 49.1192C27.2902 50.8017 25.7232 52.2352 21.2529 52.3859Z" fill="white"></path><path fill-rule="evenodd" clip-rule="evenodd" d="M37.2081 46.1557C36.0024 46.1557 35.2259 45.4392 35.2259 44.4558C35.2259 43.1724 36.2 42.4554 37.4057 42.4554C38.6328 42.4554 39.3913 43.1724 39.3913 44.1386C39.3913 45.4392 38.4351 46.1557 37.2081 46.1557Z" fill="white"></path><path fill-rule="evenodd" clip-rule="evenodd" d="M34.7261 46.8862H38.3673L36.5261 55.6189H32.847L34.1453 49.487" fill="white"></path><path fill-rule="evenodd" clip-rule="evenodd" d="M48.8608 46.8862C47.5979 49.8196 46.2092 52.6855 44.4425 55.6189H39.9337C39.3574 52.8515 39.1046 49.9347 39.1771 46.8862H42.8562C42.783 48.3191 42.8023 49.7865 42.8901 51.1517C42.9094 51.5183 42.9467 51.8681 42.9812 52.2199H43.0019C43.1623 51.8681 43.3419 51.5183 43.5049 51.1517C44.1358 49.7164 44.712 48.1543 45.1479 46.8862H48.8608Z" fill="white"></path><path fill-rule="evenodd" clip-rule="evenodd" d="M53.7842 48.8867C52.9385 48.8867 52.4481 49.5349 52.2491 50.287C53.9286 50.287 54.4336 49.8024 54.4336 49.4014C54.4336 49.1192 54.1642 48.8867 53.7842 48.8867ZM51.8558 52.3859C51.8379 52.4677 51.8172 52.6196 51.8172 52.7014C51.8172 53.2352 52.2165 53.4178 53.2605 53.4178C54.1987 53.4178 55.5329 53.202 56.3081 52.9529V55.4023C55.3159 55.7357 53.7656 55.9183 52.5226 55.9183C49.5994 55.9183 48.1934 55.184 48.1934 52.7358C48.1934 50.3325 49.4005 46.5849 54.055 46.5849C57.0121 46.5849 57.8937 47.8203 57.8937 49.1192C57.8937 50.8017 56.328 52.2352 51.8558 52.3859Z" fill="white"></path><path fill-rule="evenodd" clip-rule="evenodd" d="M64.9664 49.9684C64.7661 49.9187 64.3689 49.867 64.0814 49.867C63.2689 49.867 62.6201 50.6191 62.3301 52.0016L61.5762 55.6195H57.8931L59.7363 46.8868H62.4957L62.5849 48.051C63.432 47.0861 64.1007 46.5849 65.1281 46.5849C65.5959 46.5849 65.8487 46.6181 65.9738 46.6519L64.9664 49.9684Z" fill="white"></path><path fill-rule="evenodd" clip-rule="evenodd" d="M76.4691 46.8862C74.8459 50.7858 73.4042 53.6362 71.9606 55.6035C69.8692 58.4878 68.0286 59.1544 66.1342 59.1544C65.5746 59.1544 64.9804 59.0185 64.691 58.8863L65.2698 56.3692H66.5322C67.1636 56.3692 67.4324 56.1343 67.8483 55.6189C67.145 53.2697 66.8023 49.9863 66.8376 46.8862H70.5359C70.4607 48.3013 70.4807 49.7699 70.5719 51.1025C70.5898 51.4844 70.6238 51.8515 70.6597 52.2199H70.6789C70.8407 51.8681 71.0204 51.5183 71.184 51.1351C71.7975 49.7514 72.3937 48.1679 72.7876 46.8862H76.4691Z" fill="white"></path><path fill-rule="evenodd" clip-rule="evenodd" d="M90.6114 55.6195H86.731L87.6514 51.2175H84.3674L83.447 55.6195H79.5723L82.0233 43.9848H85.9024L85.0196 48.1365H88.3014L89.1856 43.9848H93.0603L90.6114 55.6195Z" fill="white"></path><path fill-rule="evenodd" clip-rule="evenodd" d="M98.2538 48.8867C97.4057 48.8867 96.9198 49.5349 96.7225 50.287C98.3992 50.287 98.906 49.8024 98.906 49.4014C98.906 49.1192 98.6327 48.8867 98.2538 48.8867ZM96.3248 52.3859C96.3067 52.4677 96.2901 52.6196 96.2901 52.7014C96.2901 53.2352 96.687 53.4178 97.7304 53.4178C98.6696 53.4178 100.004 53.202 100.779 52.9529V55.4023C99.7881 55.7357 98.2365 55.9183 96.9914 55.9183C94.0697 55.9183 92.6634 55.184 92.6634 52.7358C92.6634 50.3325 93.8716 46.5849 98.5242 46.5849C101.484 46.5849 102.368 47.8203 102.368 49.1192C102.368 50.8017 100.796 52.2352 96.3248 52.3859Z" fill="white"></path><path fill-rule="evenodd" clip-rule="evenodd" d="M109.434 49.9684C109.236 49.9187 108.843 49.867 108.552 49.867C107.741 49.867 107.091 50.6191 106.802 52.0016L106.044 55.6195H102.368L104.205 46.8868H106.963L107.055 48.051C107.903 47.0861 108.568 46.5849 109.595 46.5849C110.067 46.5849 110.318 46.6181 110.446 46.6519L109.434 49.9684Z" fill="white"></path><path fill-rule="evenodd" clip-rule="evenodd" d="M115.476 49.2687C113.998 49.2687 113.601 51.3522 113.601 52.2863C113.601 53.036 113.944 53.2518 114.612 53.2518C116.071 53.2518 116.45 51.167 116.45 50.22C116.45 49.487 116.126 49.2687 115.476 49.2687ZM114.104 55.9177C111.238 55.9177 109.833 54.7837 109.833 52.5181C109.833 50.0017 111.184 46.5843 115.947 46.5843C118.796 46.5843 120.219 47.7516 120.219 49.9863C120.219 52.5532 118.867 55.9177 114.104 55.9177Z" fill="white"></path><path fill-rule="evenodd" clip-rule="evenodd" d="M9.69272 52.8521H8.97078L10.2677 46.7178H11.2798C12.8115 46.7178 13.3711 47.5542 13.3711 48.701C13.3711 51.0195 11.9798 52.8521 9.69272 52.8521ZM13.1289 46.9349L15.5803 44.7603C14.6241 44.2289 13.3112 43.9854 11.6737 43.9854H6.9852L4.53516 55.6195H9.4226C15.1012 55.6195 17.3723 51.9531 17.3723 48.1365C17.3723 47.1445 17.142 46.3519 16.6955 45.7357L13.1289 46.9349Z" fill="white"></path><path fill-rule="evenodd" clip-rule="evenodd" d="M79.0539 17.6099C79.043 17.615 79.0365 17.62 79.0264 17.6242L74.2927 19.4098L74.1481 19.4702L72.995 24.3429C72.9179 24.509 72.6882 24.5485 72.532 24.4091L69.0838 20.6408L69.0665 20.6299L49.619 28.342C49.6026 28.3504 49.5835 28.3546 49.5644 28.3546C49.4927 28.3546 49.4337 28.3009 49.4337 28.2321C49.4337 28.1943 49.4546 28.1591 49.4873 28.1364L66.3001 16.5057L64.1728 12.0165C64.0666 11.8118 64.2627 11.5944 64.5224 11.6549H64.5242L69.6766 12.8279L73.6767 9.53701V9.5378C73.8502 9.41278 74.0845 9.50171 74.1279 9.69975L74.5183 14.6437L79.1319 17.1383C79.3293 17.2542 79.3011 17.5252 79.0539 17.6099ZM76.7033 3.47953C70.7344 1.31465 64.171 2.93999 60.119 7.10024L44.3131 22.7502C44.0988 22.9609 44.1987 23.2252 44.4574 23.2604L48.6684 23.4996C49.0061 23.5188 49.0478 23.7866 48.8781 23.9703L38.5833 34.2325C38.4044 34.4112 38.6204 34.6898 38.8665 34.6193L53.5639 30.3273C53.8743 30.2283 54.114 30.4842 53.9824 30.7091L52.0167 33.9212C51.9151 34.1041 52.1057 34.355 52.3526 34.3382L73.5415 29.9766C78.6049 29.2356 83.1252 26.1125 85.1345 21.3834C88.1611 14.2863 84.3811 6.27121 76.7033 3.47953Z" fill="white"></path></svg> 