<svg width="124" height="61" viewBox="0 0 124 61" fill="none" xmlns="http://www.w3.org/2000/svg">
<path fill-rule="evenodd" clip-rule="evenodd" d="M30.7818 55.7512H27.2432L30.0119 43.7672L33.8707 42.4561L30.7818 55.7512Z" fill="#D61F25"/>
<path fill-rule="evenodd" clip-rule="evenodd" d="M23.1805 48.8868C22.334 48.8868 21.8456 49.535 21.648 50.2871C23.3241 50.2871 23.8312 49.8025 23.8312 49.4015C23.8312 49.1193 23.5577 48.8868 23.1805 48.8868ZM21.2527 52.386C21.2321 52.4678 21.2155 52.6197 21.2155 52.7015C21.2155 53.2353 21.6107 53.4179 22.6581 53.4179C23.595 53.4179 24.9285 53.2021 25.705 52.953V55.4024C24.7136 55.7358 23.1612 55.9184 21.9168 55.9184C18.9957 55.9184 17.5903 55.1841 17.5903 52.7359C17.5903 50.3326 18.7974 46.585 23.4519 46.585C26.4077 46.585 27.29 47.8204 27.29 49.1193C27.29 50.8018 25.723 52.2353 21.2527 52.386Z" fill="#D61F25"/>
<path fill-rule="evenodd" clip-rule="evenodd" d="M37.2083 46.1556C36.0026 46.1556 35.2261 45.4391 35.2261 44.4557C35.2261 43.1723 36.2002 42.4553 37.4059 42.4553C38.633 42.4553 39.3915 43.1723 39.3915 44.1385C39.3915 45.4391 38.4353 46.1556 37.2083 46.1556Z" fill="#D61F25"/>
<path fill-rule="evenodd" clip-rule="evenodd" d="M34.7263 46.8862H38.3675L36.5263 55.6189H32.8472L34.1455 49.487" fill="#D61F25"/>
<path fill-rule="evenodd" clip-rule="evenodd" d="M48.8609 46.8862C47.598 49.8196 46.2093 52.6855 44.4426 55.6189H39.9338C39.3575 52.8515 39.1047 49.9347 39.1772 46.8862H42.8563C42.7831 48.3191 42.8024 49.7865 42.8902 51.1517C42.9095 51.5183 42.9468 51.8681 42.9813 52.2199H43.002C43.1624 51.8681 43.342 51.5183 43.505 51.1517C44.1359 49.7164 44.7121 48.1543 45.148 46.8862H48.8609Z" fill="#D61F25"/>
<path fill-rule="evenodd" clip-rule="evenodd" d="M53.7842 48.8868C52.9385 48.8868 52.4481 49.535 52.2491 50.2871C53.9286 50.2871 54.4336 49.8025 54.4336 49.4015C54.4336 49.1193 54.1642 48.8868 53.7842 48.8868ZM51.8558 52.386C51.8379 52.4678 51.8172 52.6197 51.8172 52.7015C51.8172 53.2353 52.2165 53.4179 53.2605 53.4179C54.1987 53.4179 55.5329 53.2021 56.3081 52.953V55.4024C55.3159 55.7358 53.7656 55.9184 52.5226 55.9184C49.5994 55.9184 48.1934 55.1841 48.1934 52.7359C48.1934 50.3326 49.4005 46.585 54.055 46.585C57.0121 46.585 57.8937 47.8204 57.8937 49.1193C57.8937 50.8018 56.328 52.2353 51.8558 52.386Z" fill="#D61F25"/>
<path fill-rule="evenodd" clip-rule="evenodd" d="M64.9664 49.9685C64.7661 49.9188 64.3689 49.8671 64.0814 49.8671C63.2689 49.8671 62.6201 50.6192 62.3301 52.0017L61.5762 55.6196H57.8931L59.7363 46.8869H62.4957L62.5849 48.0511C63.432 47.0862 64.1007 46.585 65.1281 46.585C65.5959 46.585 65.8487 46.6182 65.9738 46.652L64.9664 49.9685Z" fill="#D61F25"/>
<path fill-rule="evenodd" clip-rule="evenodd" d="M76.469 46.8862C74.8458 50.7858 73.4041 53.6362 71.9605 55.6035C69.8691 58.4878 68.0285 59.1544 66.1341 59.1544C65.5745 59.1544 64.9803 59.0185 64.6909 58.8863L65.2697 56.3692H66.5321C67.1635 56.3692 67.4323 56.1343 67.8482 55.6189C67.1449 53.2697 66.8022 49.9863 66.8375 46.8862H70.5358C70.4606 48.3013 70.4806 49.7699 70.5718 51.1025C70.5897 51.4844 70.6237 51.8515 70.6596 52.2199H70.6788C70.8406 51.8681 71.0203 51.5183 71.1839 51.1351C71.7974 49.7514 72.3936 48.1679 72.7875 46.8862H76.469Z" fill="#D61F25"/>
<path fill-rule="evenodd" clip-rule="evenodd" d="M90.6114 55.6196H86.731L87.6514 51.2176H84.3674L83.447 55.6196H79.5723L82.0233 43.9849H85.9024L85.0196 48.1366H88.3014L89.1856 43.9849H93.0603L90.6114 55.6196Z" fill="#D61F25"/>
<path fill-rule="evenodd" clip-rule="evenodd" d="M98.254 48.8868C97.4059 48.8868 96.92 49.535 96.7227 50.2871C98.3994 50.2871 98.9062 49.8025 98.9062 49.4015C98.9062 49.1193 98.6329 48.8868 98.254 48.8868ZM96.325 52.386C96.3069 52.4678 96.2903 52.6197 96.2903 52.7015C96.2903 53.2353 96.6872 53.4179 97.7306 53.4179C98.6698 53.4179 100.004 53.2021 100.779 52.953V55.4024C99.7883 55.7358 98.2367 55.9184 96.9916 55.9184C94.0699 55.9184 92.6636 55.1841 92.6636 52.7359C92.6636 50.3326 93.8718 46.585 98.5244 46.585C101.484 46.585 102.368 47.8204 102.368 49.1193C102.368 50.8018 100.796 52.2353 96.325 52.386Z" fill="#D61F25"/>
<path fill-rule="evenodd" clip-rule="evenodd" d="M109.434 49.9685C109.236 49.9188 108.843 49.8671 108.552 49.8671C107.741 49.8671 107.091 50.6192 106.802 52.0017L106.044 55.6196H102.368L104.205 46.8869H106.963L107.055 48.0511C107.903 47.0862 108.568 46.585 109.595 46.585C110.067 46.585 110.318 46.6182 110.446 46.652L109.434 49.9685Z" fill="#D61F25"/>
<path fill-rule="evenodd" clip-rule="evenodd" d="M115.476 49.2686C113.998 49.2686 113.601 51.3521 113.601 52.2862C113.601 53.0359 113.944 53.2517 114.612 53.2517C116.071 53.2517 116.45 51.1669 116.45 50.2199C116.45 49.4869 116.126 49.2686 115.476 49.2686ZM114.104 55.9176C111.238 55.9176 109.833 54.7836 109.833 52.518C109.833 50.0016 111.184 46.5842 115.947 46.5842C118.796 46.5842 120.219 47.7515 120.219 49.9862C120.219 52.5531 118.867 55.9176 114.104 55.9176Z" fill="#D61F25"/>
<path fill-rule="evenodd" clip-rule="evenodd" d="M9.69272 52.8521H8.97078L10.2677 46.7178H11.2798C12.8115 46.7178 13.3711 47.5542 13.3711 48.701C13.3711 51.0195 11.9798 52.8521 9.69272 52.8521ZM13.1289 46.9348L15.5803 44.7603C14.6241 44.2289 13.3112 43.9854 11.6737 43.9854H6.9852L4.53516 55.6194H9.4226C15.1012 55.6194 17.3723 51.9531 17.3723 48.1365C17.3723 47.1445 17.142 46.3518 16.6955 45.7356L13.1289 46.9348Z" fill="#D61F25"/>
<path fill-rule="evenodd" clip-rule="evenodd" d="M79.0541 17.6098C79.0432 17.6149 79.0367 17.6199 79.0266 17.6241L74.2929 19.4097L74.1483 19.4701L72.9952 24.3428C72.9181 24.5089 72.6884 24.5484 72.5322 24.409L69.084 20.6407L69.0667 20.6298L49.6192 28.3419C49.6028 28.3503 49.5837 28.3545 49.5646 28.3545C49.4929 28.3545 49.4339 28.3008 49.4339 28.232C49.4339 28.1942 49.4548 28.159 49.4875 28.1363L66.3003 16.5056L64.173 12.0164C64.0668 11.8117 64.2629 11.5943 64.5226 11.6548H64.5244L69.6768 12.8278L73.6768 9.53692V9.53771C73.8503 9.41269 74.0847 9.50162 74.1281 9.69966L74.5185 14.6436L79.132 17.1382C79.3294 17.2541 79.3013 17.5251 79.0541 17.6098ZM76.7035 3.47944C70.7346 1.31456 64.1712 2.9399 60.1192 7.10015L44.3133 22.7501C44.099 22.9608 44.1989 23.2251 44.4576 23.2603L48.6686 23.4995C49.0063 23.5187 49.048 23.7865 48.8783 23.9702L38.5835 34.2324C38.4046 34.4111 38.6206 34.6897 38.8667 34.6192L53.5641 30.3272C53.8745 30.2282 54.1142 30.4841 53.9826 30.709L52.0169 33.9211C51.9153 34.104 52.1059 34.3549 52.3528 34.3381L73.5416 29.9765C78.605 29.2355 83.1254 26.1124 85.1347 21.3833C88.1613 14.2862 84.3813 6.27112 76.7035 3.47944Z" fill="#D61F25"/>
</svg>
