<svg xmlns="http://www.w3.org/2000/svg" viewBox="0 0 63.91 38.51"><title>marsAsset 2</title><g id="Layer_2" data-name="Layer 2"><g id="Layer_1-2" data-name="Layer 1"><g id="Layer_1-2-2" data-name="Layer 1-2"><path d="M35.9,15.21l-4,6-4-6-1.8-2.8a1.11,1.11,0,0,0-1.6-.3l-.3.3-17,25.5a1.19,1.19,0,0,1-.9.5H1.1A1.11,1.11,0,0,1,0,37.31a1.42,1.42,0,0,1,.2-.6L24.4.51A1.11,1.11,0,0,1,26,.21l.3.3Z"/><path d="M63.7,36.61a1.15,1.15,0,0,1-.3,1.6,1.42,1.42,0,0,1-.6.2l-4,.1H14.6a1.11,1.11,0,0,1-1.1-1.1,1.42,1.42,0,0,1,.2-.6L28,15.31l4-6L37.8.61a1.15,1.15,0,0,1,1.6-.3l.3.3,10.2,15.5a1.25,1.25,0,0,1-.3,1.6,1.45,1.45,0,0,1-.7.2H43.8a1.05,1.05,0,0,1-.9-.5l-3.2-5a1.11,1.11,0,0,0-1.6-.3l-.3.3-1.9,2.8-4,6L26,30.11a1.25,1.25,0,0,0,.3,1.6,1.42,1.42,0,0,0,.6.2H50.7a1.2,1.2,0,0,0,1.2-1.1,1.45,1.45,0,0,0-.2-.7l-2.3-3.4a1.15,1.15,0,0,1,.3-1.6,1.42,1.42,0,0,1,.6-.2h5a1.05,1.05,0,0,1,.9.5Z"/></g></g></g></svg>