<?xml version="1.0" encoding="UTF-8"?>
<svg width="126px" height="94px" viewBox="0 0 126 94" version="1.1" xmlns="http://www.w3.org/2000/svg" xmlns:xlink="http://www.w3.org/1999/xlink">
    <!-- Generator: Sketch 53.2 (72643) - https://sketchapp.com -->
    <title>Group 24</title>
    <desc>Created with Sketch.</desc>
    <g id="How-it-Works" stroke="none" stroke-width="1" fill="none" fill-rule="evenodd">
        <g id="Group-24" transform="translate(0.000000, 0.800000)">
            <path d="M108.2,92.5 L38.9,92.5 C37.6,92.5 36.6,91.5 36.6,90.2 L36.6,2.3 C36.6,1 37.6,-7.10542736e-15 38.9,-7.10542736e-15 L107.6,-7.10542736e-15 C108.9,-7.10542736e-15 109.9,1 109.9,2.3 L109.9,90.8 C109.9,91.8 109.2,92.5 108.2,92.5 Z" id="Shape" stroke="#000000" fill="#FFFFFF" fill-rule="nonzero"></path>
            <path d="M104.5,26.6 L59.1,26.6 C58.5,26.6 58,26.1 58,25.5 L58,24.3 C58,23.7 58.5,23.2 59.1,23.2 L104.5,23.2 C105.1,23.2 105.6,23.7 105.6,24.3 L105.6,25.5 C105.7,26.1 105.2,26.6 104.5,26.6 Z" id="Shape" fill="#4BCCB0" fill-rule="nonzero"></path>
            <path d="M71.3,47.6 L59.1,47.6 C58.5,47.6 58,47.1 58,46.5 L58,45.3 C58,44.7 58.5,44.2 59.1,44.2 L71.3,44.2 C71.9,44.2 72.4,44.7 72.4,45.3 L72.4,46.5 C72.5,47.1 71.9,47.6 71.3,47.6 Z" id="Shape" fill="#4BCCB0" fill-rule="nonzero"></path>
            <path d="M99.6,43.6 L59.1,43.6 C58.5,43.6 58,43.1 58,42.5 L58,41.3 C58,40.7 58.5,40.2 59.1,40.2 L99.6,40.2 C100.2,40.2 100.7,40.7 100.7,41.3 L100.7,42.5 C100.8,43.1 100.3,43.6 99.6,43.6 Z" id="Shape" fill="#4BCCB0" fill-rule="nonzero"></path>
            <path d="M84.7,68.6 L59.1,68.6 C58.5,68.6 58,68.1 58,67.5 L58,66.3 C58,65.7 58.5,65.2 59.1,65.2 L84.7,65.2 C85.3,65.2 85.8,65.7 85.8,66.3 L85.8,67.5 C85.8,68.1 85.3,68.6 84.7,68.6 Z" id="Shape" fill="#4BCCB0" fill-rule="nonzero"></path>
            <path d="M102.4,64.6 L59.1,64.6 C58.5,64.6 58,64.1 58,63.5 L58,62.3 C58,61.7 58.5,61.2 59.1,61.2 L102.4,61.2 C103,61.2 103.5,61.7 103.5,62.3 L103.5,63.5 C103.5,64.1 103,64.6 102.4,64.6 Z" id="Shape" fill="#4BCCB0" fill-rule="nonzero"></path>
            <g id="Group" transform="translate(118.000000, 26.200000)">
                <g id="Shape">
                    <path d="M7.2,43 L0.1,43 L0.1,7.3 L7.2,7.3 L7.2,43 Z" stroke="#000000" fill="#FFFFFF" fill-rule="nonzero"></path>
                    <path d="M6.8,7.3 L0.4,7.3 C0.1,7.3 3.10168558e-15,7 0.1,6.8 L3.3,0.3 C3.4,-1.81188398e-13 3.8,-1.81188398e-13 3.9,0.3 L7.1,6.8 C7.2,7 7.1,7.3 6.8,7.3 Z" stroke="#000000" fill="#FFFFFF" fill-rule="nonzero"></path>
                    <path d="M6.5,43 L0.6,43 C0.2,43 0,43.3 0,43.6 L0,47.9 C0,48 0,48.2 0.1,48.3 L0.9,49.4 C1,49.6 1.2,49.7 1.4,49.7 L5.6,49.7 C5.7,49.7 5.8,49.7 5.9,49.6 L6.8,49 C7,48.9 7.1,48.7 7.1,48.5 L7.1,43.8 C7.2,43.3 6.9,43 6.5,43 Z" stroke="#000000" fill="#4BCCB0" fill-rule="nonzero"></path>
                    <polygon fill="#4BCCB0" fill-rule="nonzero" points="5.1 3.1 2.2 3.1 3.3 0.3 3.9 0.3"></polygon>
                    <path d="M5.7,35.6 L5.7,14.1" stroke="#000000"></path>
                </g>
                <path d="M3.6,43.5 L6.5,43.5 C6.5,43.5 6.6,43.5 6.7,43.7 C6.8,43.9 6.7,48.3 6.7,48.3 L6.7,48.4 C6.7,48.4 6.7,48.5 6.6,48.6 C6.5,48.7 5.8,49.1 5.8,49.1 L5.7,49.1 C5.7,49.1 5.7,49.1 5.6,49.1 L3.6,49.1 L3.6,43.5 Z" id="Shape" fill="#000000" fill-rule="nonzero" opacity="0.1"></path>
                <polygon id="Shape" fill="#000000" fill-rule="nonzero" opacity="0.1" points="3.6 3.1 4.3 5 3.6 6.9 6.6 6.8 4.8 3.1"></polygon>
            </g>
            <g id="Group" transform="translate(0.000000, 27.200000)">
                <path d="M28.6,44.7 L3.1,44.7 C1.8,44.7 0.8,43.7 0.8,42.4 L0.8,2.9 C0.8,1.6 1.8,0.6 3.1,0.6 L28,0.6 C29.3,0.6 30.3,1.6 30.3,2.9 L30.3,43 C30.3,43.9 29.5,44.7 28.6,44.7 Z" id="Shape" stroke="#000000" fill="#FFFFFF" fill-rule="nonzero"></path>
                <path d="M25.7,11.5 L6.6,11.5 C5.3,11.5 4.3,10.5 4.3,9.2 L4.3,7.2 C4.3,5.9 5.3,4.9 6.6,4.9 L25.2,4.9 C26.5,4.9 27.5,5.9 27.5,7.2 L27.5,9.8 C27.4,10.8 26.7,11.5 25.7,11.5 Z" id="Shape" stroke="#000000" fill="#4BCCB0" fill-rule="nonzero"></path>
                <path d="M6.1,26.1 L5,26.1 C4,26.1 3.1,25.3 3.1,24.2 L3.1,23.2 C3.1,22.2 3.9,21.3 5,21.3 L6.1,21.3 C7.1,21.3 8,22.1 8,23.2 L8,24.2 C8,25.3 7.2,26.1 6.1,26.1 Z" id="Shape" stroke="#000000"></path>
                <rect id="Rectangle-path" stroke="#000000" x="15" y="15.1" width="12.1" height="3"></rect>
                <path d="M12.5,26.1 L11.4,26.1 C10.4,26.1 9.5,25.3 9.5,24.2 L9.5,23.2 C9.5,22.2 10.3,21.3 11.4,21.3 L12.5,21.3 C13.5,21.3 14.4,22.1 14.4,23.2 L14.4,24.2 C14.4,25.3 13.5,26.1 12.5,26.1 Z" id="Shape" stroke="#000000"></path>
                <path d="M19,26.1 L17.9,26.1 C16.9,26.1 16,25.3 16,24.2 L16,23.2 C16,22.2 16.8,21.3 17.9,21.3 L19,21.3 C20,21.3 20.9,22.1 20.9,23.2 L20.9,24.2 C20.9,25.3 20,26.1 19,26.1 Z" id="Shape" stroke="#000000"></path>
                <path d="M25.5,27.1 L24.4,27.1 C23.4,27.1 22.5,26.3 22.5,25.2 L22.5,23.3 C22.5,22.3 23.3,21.4 24.4,21.4 L25.5,21.4 C26.5,21.4 27.4,22.2 27.4,23.3 L27.4,25.2 C27.4,26.2 26.6,27.1 25.5,27.1 Z" id="Shape" stroke="#000000"></path>
                <path d="M25.5,40 L24.4,40 C23.4,40 22.5,39.2 22.5,38.1 L22.5,30.4 C22.5,29.4 23.3,28.5 24.4,28.5 L25.5,28.5 C26.5,28.5 27.4,29.3 27.4,30.4 L27.4,38.1 C27.4,39.1 26.6,40 25.5,40 Z" id="Shape" stroke="#000000" fill="#4BCCB0" fill-rule="nonzero"></path>
                <path d="M19,32.7 L17.9,32.7 C16.9,32.7 16,31.9 16,30.8 L16,29.8 C16,28.8 16.8,27.9 17.9,27.9 L19,27.9 C20,27.9 20.9,28.7 20.9,29.8 L20.9,30.8 C20.9,31.8 20,32.7 19,32.7 Z" id="Shape" stroke="#000000"></path>
                <path d="M19,39.7 L17.9,39.7 C16.9,39.7 16,38.9 16,37.8 L16,36.8 C16,35.8 16.8,34.9 17.9,34.9 L19,34.9 C20,34.9 20.9,35.7 20.9,36.8 L20.9,37.8 C20.9,38.9 20,39.7 19,39.7 Z" id="Shape" stroke="#000000"></path>
                <path d="M12.5,39.7 L11.4,39.7 C10.4,39.7 9.5,38.9 9.5,37.8 L9.5,36.8 C9.5,35.8 10.3,34.9 11.4,34.9 L12.5,34.9 C13.5,34.9 14.4,35.7 14.4,36.8 L14.4,37.8 C14.4,38.9 13.5,39.7 12.5,39.7 Z" id="Shape" stroke="#000000"></path>
                <path d="M6.1,39.7 L5,39.7 C4,39.7 3.1,38.9 3.1,37.8 L3.1,36.8 C3.1,35.8 3.9,34.9 5,34.9 L6.1,34.9 C7.1,34.9 8,35.7 8,36.8 L8,37.8 C8,38.9 7.2,39.7 6.1,39.7 Z" id="Shape" stroke="#000000"></path>
                <path d="M12.5,32.7 L11.4,32.7 C10.4,32.7 9.5,31.9 9.5,30.8 L9.5,29.8 C9.5,28.8 10.3,27.9 11.4,27.9 L12.5,27.9 C13.5,27.9 14.4,28.7 14.4,29.8 L14.4,30.8 C14.4,31.8 13.5,32.7 12.5,32.7 Z" id="Shape" stroke="#000000"></path>
                <path d="M6.1,32.7 L5,32.7 C4,32.7 3.1,31.9 3.1,30.8 L3.1,29.8 C3.1,28.8 3.9,27.9 5,27.9 L6.1,27.9 C7.1,27.9 8,28.7 8,29.8 L8,30.8 C8,31.8 7.2,32.7 6.1,32.7 Z" id="Shape" stroke="#000000"></path>
                <path d="M5.2,10.5 L26.7,6.1 C26.7,6.1 26.8,6.3 26.9,6.6 C27.1,7 27,10 27,10 C27,10 27,11 25.9,11.1 C24.8,11.2 16.1,11.1 16.1,11.1 L6.5,11.1 C6.5,11.1 5.6,11 5.2,10.5 Z" id="Shape" fill="#000000" fill-rule="nonzero" opacity="0.1"></path>
            </g>
            <circle id="Oval" stroke="#000000" cx="47.4" cy="24.6" r="4.4"></circle>
            <circle id="Oval" stroke="#000000" cx="47.4" cy="44.6" r="4.4"></circle>
            <circle id="Oval" stroke="#000000" cx="47.4" cy="64.6" r="4.4"></circle>
            <path d="M46,63.7 L47,66 C47,66 47.1,66.1 47.1,66 L54.2,57.2" id="Shape" stroke="#000000" stroke-width="1.186" stroke-linecap="round"></path>
            <path d="M46,43.7 L47,46 C47,46 47.1,46.1 47.1,46 L54.2,37.2" id="Shape" stroke="#000000" stroke-width="1.186" stroke-linecap="round"></path>
            <path d="M46,24.7 L47,27 C47,27 47.1,27.1 47.1,27 L54.2,18.2" id="Shape" stroke="#000000" stroke-width="1.186" stroke-linecap="round"></path>
        </g>
    </g>
</svg>