<?xml version="1.0" encoding="UTF-8"?>
<svg width="87px" height="74px" viewBox="0 0 87 74" version="1.1" xmlns="http://www.w3.org/2000/svg" xmlns:xlink="http://www.w3.org/1999/xlink">
    <!-- Generator: Sketch 53.2 (72643) - https://sketchapp.com -->
    <title>Group 6</title>
    <desc>Created with Sketch.</desc>
    <g id="Page-1" stroke="none" stroke-width="1" fill="none" fill-rule="evenodd">
        <g id="Desktop-HD-Copy-2" transform="translate(-684.000000, -64.000000)">
            <g id="Group-2" transform="translate(686.000000, 57.000000)">
                <g id="Group-6" transform="translate(0.000000, 9.000000)">
                    <polygon id="Fill-3" fill="#4BCCB0" points="83 25.3623188 0 25.3623188 11.8571429 0 71.1428571 0"></polygon>
                    <polygon id="Stroke-5" stroke="#233340" stroke-width="2.79999995" stroke-linecap="round" stroke-linejoin="round" points="83 25.3623188 0 25.3623188 11.8571429 0 71.1428571 0"></polygon>
                    <polygon id="Fill-7" fill="#4BCCB0" points="41.5 70 83 25.3623188 0 25.3623188"></polygon>
                    <polygon id="Stroke-9" stroke="#233340" stroke-width="2.79999995" stroke-linecap="round" stroke-linejoin="round" points="41.5 70 83 25.3623188 0 25.3623188"></polygon>
                    <polygon id="Fill-11" fill="#4BCCB0" points="41.5 70 57.695122 25.3623188 25.304878 25.3623188"></polygon>
                    <polygon id="Stroke-13" stroke="#233340" stroke-width="2.79999995" stroke-linecap="round" stroke-linejoin="round" points="41.5 70 57.695122 25.3623188 25.304878 25.3623188"></polygon>
                    <polygon id="Fill-15" fill="#4BCCB0" points="41.5 0 57.695122 25.3623188 25.304878 25.3623188"></polygon>
                    <polygon id="Stroke-17" stroke="#233340" stroke-width="2.79999995" stroke-linecap="round" stroke-linejoin="round" points="41.5 0 57.695122 25.3623188 25.304878 25.3623188"></polygon>
                    <polygon id="Fill-19" fill="#4BCCB0" points="70.347561 0 83 25.3623188 57.695122 25.3623188"></polygon>
                    <polygon id="Stroke-21" stroke="#233340" stroke-width="2.79999995" stroke-linecap="round" stroke-linejoin="round" points="70.347561 0 83 25.3623188 57.695122 25.3623188"></polygon>
                    <polygon id="Fill-23" fill="#4BCCB0" points="12.652439 0 25.304878 25.3623188 0 25.3623188"></polygon>
                    <polygon id="Stroke-25" stroke="#233340" stroke-width="2.79999995" stroke-linecap="round" stroke-linejoin="round" points="12.652439 0 25.304878 25.3623188 0 25.3623188"></polygon>
                </g>
            </g>
        </g>
    </g>
</svg>