<?xml version="1.0" encoding="UTF-8"?>
<svg width="128px" height="77px" viewBox="0 0 128 77" version="1.1" xmlns="http://www.w3.org/2000/svg" xmlns:xlink="http://www.w3.org/1999/xlink">
    <!-- Generator: Sketch 53.2 (72643) - https://sketchapp.com -->
    <title>Group 21</title>
    <desc>Created with Sketch.</desc>
    <g id="How-it-Works" stroke="none" stroke-width="1" fill="none" fill-rule="evenodd">
        <g id="Group-21" transform="translate(0.000000, 0.800000)">
            <path d="M61.7,71.7 C61.5,72.1 61.7,72.5 62,72.8 L64.3,74.7 C65,75.3 65.9,75.4 66.7,75 C67.6,74.6 68.7,73.8 69.4,72.4 C70.8,69.8 69.5,67.9 69.5,67.9 L65.2,64.4 C65,64.3 64.8,64.3 64.6,64.5 C63.8,65.9 61.7,71.7 61.7,71.7 Z" id="Shape" stroke="#507591" stroke-linecap="round" stroke-linejoin="round"></path>
            <circle id="Oval" fill="#507591" fill-rule="nonzero" transform="translate(117.416300, 9.129660) rotate(-39.628040) translate(-117.416300, -9.129660) " cx="117.4163" cy="9.12966" r="1.99999688"></circle>
            <path d="M123.5,-3.55271368e-15 L112.7,5.9 C111.3,6.7 110.8,8.4 111.5,9.8 L127.1,39.5" id="Shape" stroke="#000000" fill="#4BCCB0" fill-rule="nonzero" stroke-linecap="round" stroke-linejoin="round"></path>
            <path d="M77.6,4.6 C75.6,3.6 73.3,3.6 71.3,4.6 L41.1,20.2 C40.9,20.3 40.7,20.4 40.6,20.5 C39.7,21.3 36.8,24 39.2,26.9 C42,30.3 44.2,30 49.8,27.5 C53.4,25.9 60,23.1 64.2,21.4 C66.5,20.4 69.2,20.8 71.2,22.3 L99.7,44.5 C104,47.9 110,48 114.5,45 L117.2,43.2 C120.2,41.2 121.1,37.2 119.3,34 L109.8,17.2 C108.2,14.3 104.7,13 101.5,14 C98.9,14.8 95.3,14.7 90.9,11.5 C90.6,11.3 90.2,11 89.9,10.8 L77.6,4.6 Z" id="Shape" stroke="#000000" fill="#4BCCB0" fill-rule="nonzero" stroke-linecap="round" stroke-linejoin="round"></path>
            <path d="M55.9,74.5 L51.9,73 C50.9,72.6 50.5,71.5 50.8,70.6 L56.2,56.6 C56.6,55.6 57.7,55.2 58.6,55.5 L62.6,57 C63.6,57.4 64,58.5 63.7,59.4 L58.3,73.4 C58,74.4 56.9,74.9 55.9,74.5 Z" id="Shape" stroke="#000000" fill="#4BCCB0" fill-rule="nonzero" stroke-linecap="round" stroke-linejoin="round"></path>
            <path d="M45.8,69.7 L41.8,68.2 C40.8,67.8 40.4,66.7 40.7,65.8 L46.1,51.7 C46.5,50.7 47.6,50.3 48.5,50.6 L52.5,52.1 C53.5,52.5 53.9,53.6 53.6,54.5 L48.2,68.6 C47.9,69.6 46.8,70.1 45.8,69.7 Z" id="Shape" stroke="#000000" fill="#4BCCB0" fill-rule="nonzero" stroke-linecap="round" stroke-linejoin="round"></path>
            <path d="M36.4,63.3 L32.4,61.8 C31.4,61.4 31,60.3 31.3,59.4 L35.2,49.3 C35.6,48.3 36.7,47.9 37.6,48.2 L41.6,49.7 C42.6,50.1 43,51.2 42.7,52.1 L38.8,62.1 C38.5,63.2 37.4,63.7 36.4,63.3 Z" id="Shape" stroke="#000000" fill="#4BCCB0" fill-rule="nonzero" stroke-linecap="round" stroke-linejoin="round"></path>
            <path d="M26.6,58 L22.6,56.5 C21.6,56.1 21.2,55 21.5,54.1 L24.1,47.3 C24.5,46.3 25.6,45.9 26.5,46.2 L30.5,47.7 C31.5,48.1 31.9,49.2 31.6,50.1 L29,56.9 C28.7,57.9 27.6,58.4 26.6,58 Z" id="Shape" stroke="#000000" fill="#4BCCB0" fill-rule="nonzero" stroke-linecap="round" stroke-linejoin="round"></path>
            <path d="M52.2,11.7 C52.5,11.5 52.3,11.1 52,11.1 C47.5,11.9 36.1,14.1 36.1,14.1 C36.1,14.1 30.1,15.7 25.5,12.8 L25.5,12.8 C23.4,11.8 20.9,12.6 19.8,14.6 L10.7,30.6 C8.1,35.1 9.6,40.9 14.1,43.6 L18.8,46.5 C20,47.3 21.7,47.4 22.4,46.6 C23.8,45 24.7,42.5 29.4,44.4 C33.3,46 33.3,47.4 33.4,48.1 C33.4,48.3 33.7,48.3 33.8,48.2 C34.7,47.1 37.1,44.8 40.9,46.5 C44,47.9 44.4,48.9 44.5,50.1 C44.5,50.3 44.7,50.3 44.8,50.2 C45.8,49.1 47.7,47.3 51.4,48.7 C55.4,50.3 56.1,52.5 56.2,53.2 C56.2,53.3 56.3,53.4 56.4,53.4 C57.2,53.3 59.6,52.4 62.1,53.4 C66.8,55.2 66.8,58.5 66.5,60.4 C66.4,60.9 66.6,61.6 67,62 C68.7,63.6 72.9,67 74.9,68.4 C76.7,69.7 77.8,69.8 78.6,69.4 C79.4,69.1 80.5,68.3 81.7,66.9 C83.7,64.7 81.3,62.3 81.3,62.3 L60.1,44.8 C60.1,44.8 59.5,42.4 62,43.2 C64.4,44 87.9,64.1 87.9,64.1 C87.9,64.1 91.2,65 93,62.5 C94.9,60.1 93.3,57.1 93.3,57.1 L66.8,36.1 C66.8,36.1 66.7,33.3 68.7,34.8 C70.7,36.3 98.9,58.2 98.9,58.2 C98.9,58.2 102,60.1 104.6,57.2 C107.2,54.3 104.7,51.8 104.7,51.8 L68.8,23.5 C68.1,22.9 67.1,22.8 66.3,23.2 L46.3,31.5 C46.3,31.5 39.8,33.7 36.6,27.8 C33.4,21.9 38.8,18.4 38.8,18.4 L52.2,11.7 Z" id="Shape" stroke="#000000" stroke-linecap="round" stroke-linejoin="round"></path>
            <g id="Group" transform="translate(0.000000, 0.200000)">
                <circle id="Oval" fill="#000000" fill-rule="nonzero" cx="9.1" cy="10.2" r="2"></circle>
                <path d="M3.3,0.3 L15.2,6.7 C16.4,7.3 16.8,8.7 16.2,9.9 L0.9,39.8" id="Shape" stroke="#000000" stroke-linecap="round" stroke-linejoin="round"></path>
            </g>
            <circle id="Oval" fill="#000000" fill-rule="nonzero" cx="117.9" cy="9" r="2"></circle>
        </g>
    </g>
</svg>