<?xml version="1.0" encoding="UTF-8"?>
<svg width="117px" height="111px" viewBox="0 0 117 111" version="1.1" xmlns="http://www.w3.org/2000/svg" xmlns:xlink="http://www.w3.org/1999/xlink">
    <!-- Generator: Sketch 53.2 (72643) - https://sketchapp.com -->
    <title>Group 22</title>
    <desc>Created with Sketch.</desc>
    <g id="How-it-Works" stroke="none" stroke-width="1" fill="none" fill-rule="evenodd">
        <g id="Group-22" transform="translate(1.000000, 0.500000)" fill-rule="nonzero">
            <path d="M39.9,110.1 L40.2,97.5 C40.2,96.3 41.2,95.3 42.4,95.3 L73.3,95.5" id="Shape" stroke="#000000" fill="#FFFFFF" stroke-linecap="round" stroke-linejoin="round"></path>
            <path d="M44.7,99.5 C45.6,99 46.7,99.4 47.1,100.3 C47.5,101.2 47.2,102.3 46.3,102.8 C45.4,103.3 44.3,102.9 43.9,102 C43.5,101.1 43.8,99.9 44.7,99.5 Z" id="Shape" fill="#000000"></path>
            <path d="M6.6,8.52651283e-14 L16.7,7.2 C17.7,7.9 17.9,9.3 17.3,10.3 L-1.45483625e-12,36.3" id="Shape" stroke="#000000" fill="#EDF0F0" stroke-linecap="round" stroke-linejoin="round"></path>
            <path d="M12.6,10 C12.5,11 11.6,11.7 10.6,11.6 C9.6,11.5 8.9,10.6 9,9.6 C9.1,8.6 10,7.9 11,8 C12,8.1 12.8,9 12.6,10 Z" id="Shape" fill="#000000"></path>
            <path d="M115.9,31.2 L104.8,36.8 C103.7,37.3 102.4,36.9 101.9,35.8 L87.6,7.9" id="Shape" stroke="#000000" fill="#4BCCB0" stroke-linecap="round" stroke-linejoin="round"></path>
            <path d="M104.4,31.8 C103.6,31.2 103.4,30.1 104,29.2 C104.6,28.4 105.7,28.2 106.5,28.8 C107.3,29.4 107.5,30.5 106.9,31.4 C106.3,32.2 105.2,32.4 104.4,31.8 Z" id="Shape" fill="#000000"></path>
            <path d="M31.8,49.1 L50,60.7 C50.2,60.8 51.8,62.6 50.7,64.4 C49.5,66.4 47.5,65.9 47.5,65.9 C47.5,65.9 27.5,53.3 26.2,52.5 L15.9,45.8 C12.2,43.5 11.4,40.3 11.1,38.9 C11,38.4 10.7,37.9 10.3,37.6 L8,36.1 C7.1,35.5 6.9,34.3 7.5,33.4 L19.7,13.5 C20.3,12.6 21.5,12.3 22.4,12.9 L24.5,14.3 C25.3,14.8 26.4,14.7 27.1,13.9 C31.6,8.9 36.8,10.8 37.8,11.2 C37.9,11.2 38,11.3 38.1,11.4 L60.7,26.3 C60.7,26.3 62.4,28.3 61,30.1 C59.3,32.3 57.1,31.2 57.1,31.2 C57.1,31.2 44.9,23.2 41.3,21 C40.6,20.5 39.7,20.5 39,21.1 C38.5,21.5 38.3,22.2 39,23.3 L68.5,42.5 C68.7,42.6 70.2,44.5 69.1,46.3 C67.7,48.7 65.2,47.5 65.2,47.5 C65.2,47.5 44.4,34.1 42.9,33.2 C42.9,33.2 40.9,33.6 41.8,35.3 L68.5,52.7 C68.8,52.9 69.9,54.8 68.9,56.5 C67.5,58.8 65.4,58 65.4,58 C65.4,58 39.5,41.6 38,40.7 C38,40.7 35.9,40.9 36.7,42.7 L60.8,58.4 C60.8,58.4 62.6,59.9 61.2,62.3 C59.9,64.6 57.7,63.3 57.7,63.3 C57.7,63.3 34.6,48.5 33.1,47.5 C33.2,47.4 31.1,47.2 31.8,49.1 Z" id="Shape" stroke="#000000" fill="#EDF0F0" stroke-linecap="round" stroke-linejoin="round"></path>
            <path d="M72.5,51.5 C71.2,52.1 69.5,51.6 69,50.2 C68.9,50 69,49.9 69.2,49.7 C73.5,46.2 72,42.3 70.5,41.2 C68.8,39.9 63,36.7 60.8,34.6 C59.9,33.7 69.5,28.7 59.8,22.9 C58.4,22.2 72.6,16.5 72.6,16.5 C76.1,14.7 79,15.2 80.5,15.8 C81.3,16.1 82.2,16 82.9,15.7 L83.6,15.4 C85.2,14.7 87.1,15.3 88,17 L97.2,35.5 C98,37.2 97.4,39.3 95.7,40.1 C94.3,40.8 93.6,42.4 93.9,44 C95.1,49.6 91.7,52.8 90.6,53.7 C90.4,53.8 90.2,53.9 90,54.1 L75.1,59.9 C74.2,60.4 71.9,55.2 73.2,54.7 C74.4,54.2 77.8,53.2 80.3,51.9 C81.1,51.5 81.5,50.7 81.4,49.8 C81.3,49.2 80.8,48.6 79.6,48.6 L72.5,51.5 Z" id="Shape" stroke="#000000" fill="#4BCCB0" stroke-linecap="round" stroke-linejoin="round"></path>
            <path d="M69,62.6 L69.1,59.4 C70.3,58.9 71.5,58.7 72.2,59.8 L74.8,63.1 L74.8,65.8 L74.6,78.3 C74.6,82.7 72.4,85.1 71.3,86 C70.9,86.4 70.6,86.9 70.6,87.4 L70.5,90.1 C70.4,91.2 69.6,92 68.5,92 L45.4,91.8 C44.3,91.8 43.4,90.9 43.5,89.8 L43.6,87.2 C43.6,86.2 42.9,85.4 41.9,85.2 C35.3,83.9 34.2,78.4 34,77.3 L34,77 C34.1,75.5 34.6,60.9 34.6,60.9 L40.5,64.7 C40.5,64.7 40.4,65 40.4,69.2 C40.4,70.1 40.9,70.9 41.7,71.1 C42.3,71.3 43,71.1 43.5,70 L43.8,66.7 C43.8,66.7 52.3,71.8 53.3,63.2 C53.3,63.2 56.1,65.5 58.2,65.9 C59.5,66.1 62.4,64.9 63.2,63.1 C63.5,62.5 63.6,59.9 63.8,60 C64.8,60.5 66.7,60.1 66.7,60.1 L66.7,61.5 L66.7,62.5 C66.8,62.5 67.8,64.3 69,62.6 Z" id="Shape" stroke="#000000" fill="#FFFFFF" stroke-linecap="round" stroke-linejoin="round"></path>
        </g>
    </g>
</svg>