<?xml version="1.0" encoding="UTF-8"?>
<svg width="121px" height="103px" viewBox="0 0 121 103" version="1.1" xmlns="http://www.w3.org/2000/svg" xmlns:xlink="http://www.w3.org/1999/xlink">
    <!-- Generator: Sketch 53.2 (72643) - https://sketchapp.com -->
    <title>Group 35 Copy</title>
    <desc>Created with Sketch.</desc>
    <g id="How-it-Works" stroke="none" stroke-width="1" fill="none" fill-rule="evenodd">
        <g id="Group-35-Copy" transform="translate(1.000000, 0.000000)">
            <path d="M50.0883307,8.5 L37.0380773,91.6122022 C37.0179342,91.7404861 37.0078167,91.8701444 37.0078167,92 C37.0078167,93.3807119 38.1271048,94.5 39.5078167,94.5 L100.497423,94.5 C104.1904,94.5 107.33379,91.81167 107.906641,88.1633933 L119.05504,17.1633933 C119.11547,16.7785417 119.145822,16.3895669 119.145822,16 C119.145822,11.8578644 115.787958,8.5 111.645822,8.5 L50.0883307,8.5 Z" id="Rectangle-3" stroke="#4A4A4A" fill="#FFFFFF"></path>
            <path d="M39.9856134,85.0905035 L39.5587277,93.0535316 C39.5302765,93.584253 39.091645,94 38.5601615,94 L37.6021133,94 C37.3245726,94 37.0595154,93.8846561 36.870354,93.6815631 L30.465633,86.8051429 C30.0892161,86.4010033 30.1116897,85.7682373 30.5158292,85.3918204 C30.6661085,85.2518498 30.8558386,85.161542 31.0592363,85.1331693 L38.8488912,84.0465614 C39.3958798,83.9702599 39.9011563,84.3518272 39.9774577,84.8988158 C39.9863137,84.9623026 39.9890449,85.0264939 39.9856134,85.0905035 Z" id="Rectangle-60" fill="#000000"></path>
            <path d="M34.3359652,85.8123877 C34.2020632,85.8151895 34.0748828,85.8715941 33.9829215,85.9689631 C33.7933138,86.1697205 33.8023524,86.4861739 34.0031097,86.6757816 L38.9664867,91.3635034 C39.0593021,91.451164 39.182134,91.5 39.3098019,91.5 L101.743543,91.5 C101.8571,91.5 101.967274,91.4613454 102.055938,91.3903964 C102.271548,91.2178654 102.306471,90.903215 102.13394,90.687605 L97.3347292,84.6900872 C97.2375477,84.5686406 97.0893818,84.4993378 96.9338731,84.5025916 L34.3359652,85.8123877 Z" id="Rectangle-61" stroke="#000000" fill="#C7C7C7"></path>
            <path d="M65.2471126,51.8754893 C65.1192342,51.8958338 65.0042351,51.9649948 64.9263195,52.0684162 C64.7601574,52.2889717 64.8042519,52.6024683 65.0248074,52.7686305 L71.095045,57.3418275 C71.2045556,57.4243307 71.3431417,57.4582429 71.4783747,57.4356288 L147.754867,44.6804411 C147.86154,44.6626028 147.959554,44.6106568 148.034203,44.5323957 C148.224801,44.3325776 148.217326,44.0160833 148.017508,43.825486 L143.597968,39.6098891 C143.485073,39.5022039 143.328382,39.4533889 143.174303,39.4779017 L65.2471126,51.8754893 Z" id="Rectangle-61" stroke="#000000" fill="#C7C7C7" transform="translate(106.499008, 48.457082) scale(-1, 1) rotate(-90.000000) translate(-106.499008, -48.457082) "></path>
            <path d="M44.2264128,0.5 C42.9954203,0.5 41.9476238,1.39610999 41.7566733,2.61220224 L29.0380773,83.6122022 C29.0179342,83.7404861 29.0078167,83.8701444 29.0078167,84 C29.0078167,85.3807119 30.1271048,86.5 31.5078167,86.5 L92.4974231,86.5 C96.1904005,86.5 99.3337901,83.81167 99.9066414,80.1633933 L111.05504,9.16339327 C111.11547,8.77854175 111.145822,8.38956693 111.145822,8 C111.145822,3.85786438 107.787958,0.5 103.645822,0.5 L44.2264128,0.5 Z" id="Rectangle-3" stroke="#000000" fill="#FFFFFF"></path>
            <path d="M36,89 L63,89" id="Path-40" stroke="#000000"></path>
            <path d="M37,90 L49,90" id="Path-41" stroke="#000000"></path>
            <path d="M90,90 L102,90" id="Path-41-Copy" stroke="#000000"></path>
            <path d="M114,9 L111,24" id="Path-42" stroke="#000000"></path>
            <path d="M114,10 L110,35" id="Path-43" stroke="#000000"></path>
            <polygon id="Rectangle-62" fill="#C7C7C7" points="51.9303564 27 94 27 93.3043362 33 51 33"></polygon>
            <polygon id="Rectangle-62-Copy" fill="#C7C7C7" points="52.9303564 18 95 18 94.3043362 24 52 24"></polygon>
            <g id="Group-33" transform="translate(0.000000, 41.000000)" stroke="#000000">
                <path d="M24.3692308,1.2625 C24.0930884,1.2625 23.8692308,1.48635763 23.8692308,1.7625 L23.8692308,7.3875 C23.8692308,7.66364237 24.0930884,7.8875 24.3692308,7.8875 L24.6307692,7.8875 C24.9069116,7.8875 25.1307692,7.66364237 25.1307692,7.3875 L25.1307692,1.7625 C25.1307692,1.48635763 24.9069116,1.2625 24.6307692,1.2625 L24.3692308,1.2625 Z" id="Rectangle-58" fill="#000000"></path>
                <path d="M24.3692308,-1.7875 C24.0930884,-1.7875 23.8692308,-1.56364237 23.8692308,-1.2875 L23.8692308,4.3375 C23.8692308,4.61364237 24.0930884,4.8375 24.3692308,4.8375 L24.6307692,4.8375 C24.9069116,4.8375 25.1307692,4.61364237 25.1307692,4.3375 L25.1307692,-1.2875 C25.1307692,-1.56364237 24.9069116,-1.7875 24.6307692,-1.7875 L24.3692308,-1.7875 Z" id="Rectangle-58" fill="#000000" transform="translate(24.500000, 1.525000) rotate(-270.000000) translate(-24.500000, -1.525000) "></path>
                <path d="M21.3538462,6.6 C21.0777038,6.6 20.8538462,6.82385763 20.8538462,7.1 L20.8538462,12.725 C20.8538462,13.0011424 21.0777038,13.225 21.3538462,13.225 L27.6461538,13.225 C27.9222962,13.225 28.1461538,13.0011424 28.1461538,12.725 L28.1461538,7.1 C28.1461538,6.82385763 27.9222962,6.6 27.6461538,6.6 L21.3538462,6.6 Z" id="Rectangle-58" fill="#EDF0F0"></path>
                <g id="Group-32" transform="translate(0.000000, 11.437500)">
                    <ellipse id="Oval-24" fill="#4BCCB0" cx="24.5" cy="24.78125" rx="24.5" ry="24.78125"></ellipse>
                    <ellipse id="Oval-24" fill="#FFFFFF" cx="24.5" cy="24.78125" rx="19.9769231" ry="20.20625"></ellipse>
                </g>
                <path d="M24.6230769,16.5125 L24.8769231,16.5125 L24.6230769,16.2586538 L24.6230769,16.0125 L24.5,16.1355769 L24.3769231,16.0125 L24.3769231,16.2586538 L24.1230769,16.5125 L24.3769231,16.5125 L24.3769231,20.0875 L24.1230769,20.0875 L24.3769231,20.3413462 L24.3769231,20.5875 L24.5,20.4644231 L24.6230769,20.5875 L24.6230769,20.3413462 L24.8769231,20.0875 L24.6230769,20.0875 L24.6230769,16.5125 Z" id="Rectangle-57"></path>
                <path d="M24.6230769,52.35 L24.8769231,52.35 L24.6230769,52.0961538 L24.6230769,51.85 L24.5,51.9730769 L24.3769231,51.85 L24.3769231,52.0961538 L24.1230769,52.35 L24.3769231,52.35 L24.3769231,55.925 L24.1230769,55.925 L24.3769231,56.1788462 L24.3769231,56.425 L24.5,56.3019231 L24.6230769,56.425 L24.6230769,56.1788462 L24.8769231,55.925 L24.6230769,55.925 L24.6230769,52.35 Z" id="Rectangle-57"></path>
                <path d="M42.2153846,34.5543269 L42.4692308,34.5543269 L42.2153846,34.3004808 L42.2153846,34.0543269 L42.0923077,34.1774038 L41.9692308,34.0543269 L41.9692308,34.3004808 L41.7153846,34.5543269 L41.9692308,34.5543269 L41.9692308,38.1293269 L41.7153846,38.1293269 L41.9692308,38.3831731 L41.9692308,38.6293269 L42.0923077,38.50625 L42.2153846,38.6293269 L42.2153846,38.3831731 L42.4692308,38.1293269 L42.2153846,38.1293269 L42.2153846,34.5543269 Z" id="Rectangle-57" transform="translate(42.215385, 36.341827) rotate(-270.000000) translate(-42.215385, -36.341827) "></path>
                <path d="M6.78461538,34.5543269 L7.03846154,34.5543269 L6.78461538,34.3004808 L6.78461538,34.0543269 L6.66153846,34.1774038 L6.53846154,34.0543269 L6.53846154,34.3004808 L6.28461538,34.5543269 L6.53846154,34.5543269 L6.53846154,38.1293269 L6.28461538,38.1293269 L6.53846154,38.3831731 L6.53846154,38.6293269 L6.66153846,38.50625 L6.78461538,38.6293269 L6.78461538,38.3831731 L7.03846154,38.1293269 L6.78461538,38.1293269 L6.78461538,34.5543269 Z" id="Rectangle-57" transform="translate(6.784615, 36.341827) rotate(-270.000000) translate(-6.784615, -36.341827) "></path>
                <ellipse id="Oval-25" fill="#4BCCB0" cx="24.5" cy="36.21875" rx="6.40769231" ry="6.48125"></ellipse>
                <ellipse id="Oval-25" fill="#FFFFFF" cx="24.5" cy="36.21875" rx="3.39230769" ry="3.43125"></ellipse>
                <rect id="Rectangle-57" transform="translate(20.738615, 32.032936) rotate(-45.000000) translate(-20.738615, -32.032936) " x="20.4847688" y="26.4329358" width="1" height="11.2" rx="0.5"></rect>
                <rect id="Rectangle-57" transform="translate(29.023077, 36.218750) rotate(-270.000000) translate(-29.023077, -36.218750) " x="28.7692308" y="32.14375" width="1" height="8.15" rx="0.5"></rect>
            </g>
        </g>
    </g>
</svg>