<?xml version="1.0" encoding="UTF-8"?>
<svg width="61px" height="66px" viewBox="0 0 61 66" version="1.1" xmlns="http://www.w3.org/2000/svg" xmlns:xlink="http://www.w3.org/1999/xlink">
    <!-- Generator: Sketch 52.6 (67491) - http://www.bohemiancoding.com/sketch -->
    <title>Group Copy 4</title>
    <desc>Created with Sketch.</desc>
    <g id="Page-1" stroke="none" stroke-width="1" fill="none" fill-rule="evenodd">
        <g id="Group-Copy-4">
            <path d="M29.0048,53.9247 C28.9918,60.2927 34.1238,64.3077 40.3028,62.7677 L52.0688,59.8337 L51.4358,57.2927 L39.6688,60.2267 C35.1448,61.3547 31.6138,58.5917 31.6238,53.9297 L31.7128,7.2377 L29.0948,7.2337 L29.0048,53.9247 Z" id="Fill-8" fill="#4A4A4A"></path>
            <path d="M43.3143,57.4735 C43.3143,52.8135 47.0913,49.0355 51.7523,49.0355 C56.4133,49.0355 60.1903,52.8135 60.1903,57.4735 C60.1903,62.1345 56.4133,65.9115 51.7523,65.9115 C47.0913,65.9115 43.3143,62.1345 43.3143,57.4735" id="Fill-10" fill="#FBBA00"></path>
            <path d="M30.4032,17.8134 C25.7432,17.8134 21.9652,14.0354 21.9652,9.3754 C21.9652,4.7144 25.7432,0.9364 30.4032,0.9364 C35.0642,0.9364 38.8412,4.7144 38.8412,9.3754 C38.8412,14.0354 35.0642,17.8134 30.4032,17.8134" id="Fill-12" fill="#0093C6"></path>
            <path d="M51.8436,34.5077 C47.1836,34.5077 43.4056,30.7297 43.4056,26.0697 C43.4056,21.4087 47.1836,17.6307 51.8436,17.6307 C56.5036,17.6307 60.2816,21.4087 60.2816,26.0697 C60.2816,30.7297 56.5036,34.5077 51.8436,34.5077" id="Fill-14" fill="#4A4A4A"></path>
            <polygon id="Fill-16" fill="#4A4A4A" points="50.7489 27.6918 50.1149 25.1508 10.0229 35.1468 10.6569 37.6878"></polygon>
            <path d="M8.9374,45.2421 C4.2764,45.2421 0.4994,41.4641 0.4994,36.8041 C0.4994,32.1431 4.2764,28.3651 8.9374,28.3651 C13.5974,28.3651 17.3754,32.1431 17.3754,36.8041 C17.3754,41.4641 13.5974,45.2421 8.9374,45.2421" id="Fill-18" fill="#F05053"></path>
        </g>
    </g>
</svg>