<?xml version="1.0" encoding="UTF-8"?>
<svg width="139px" height="140px" viewBox="0 0 139 140" version="1.1" xmlns="http://www.w3.org/2000/svg" xmlns:xlink="http://www.w3.org/1999/xlink">
    <!-- Generator: Sketch 50 (54983) - http://www.bohemiancoding.com/sketch -->
    <title>noun_Foundation Blueprint_699322</title>
    <desc>Created with Sketch.</desc>
    <defs></defs>
    <g id="Welcome" stroke="none" stroke-width="1" fill="none" fill-rule="evenodd">
        <g id="Tools.Rocks-Design-System-App-Copy-2" transform="translate(-145.000000, -1216.000000)" fill-rule="nonzero">
            <g id="noun_Foundation-Blueprint_699322" transform="translate(145.000000, 1216.000000)">
                <g id="Group">
                    <g id="Shape">
                        <g>
                            <path d="M32.4333333,27.84116 C33.71445,27.84116 34.75,26.8018 34.75,25.52116 L34.75,13.92116 L37.0666667,13.92116 C38.3477833,13.92116 39.3833333,12.8818 39.3833333,11.60116 C39.3833333,10.32052 38.3477833,9.28116 37.0666667,9.28116 L34.75,9.28116 L34.75,2.32116 C34.75,1.04052 33.71445,0.00116 32.4333333,0.00116 C31.1522167,0.00116 30.1166667,1.04052 30.1166667,2.32116 L30.1166667,25.52116 C30.1166667,26.8018 31.1522167,27.84116 32.4333333,27.84116" fill="#F37F80"></path>
                            <path d="M136.683333,104.40116 L129.733333,104.40116 L129.733333,102.08116 C129.733333,100.80052 128.697783,99.76116 127.416667,99.76116 C126.13555,99.76116 125.1,100.80052 125.1,102.08116 L125.1,104.40116 L113.516667,104.40116 C112.23555,104.40116 111.2,105.44052 111.2,106.72116 C111.2,108.0018 112.23555,109.04116 113.516667,109.04116 L136.683333,109.04116 C137.96445,109.04116 139,108.0018 139,106.72116 C139,105.44052 137.96445,104.40116 136.683333,104.40116" fill="#30A5D0"></path>
                            <path d="M25.4833333,125.28116 L23.1666667,125.28116 C21.88555,125.28116 20.85,126.32052 20.85,127.60116 C20.85,128.8818 21.88555,129.92116 23.1666667,129.92116 L25.4833333,129.92116 C26.76445,129.92116 27.8,128.8818 27.8,127.60116 C27.8,126.32052 26.76445,125.28116 25.4833333,125.28116" fill="#30A5D0"></path>
                            <path d="M37.0666667,125.28116 L34.75,125.28116 C33.4688833,125.28116 32.4333333,126.32052 32.4333333,127.60116 C32.4333333,128.8818 33.4688833,129.92116 34.75,129.92116 L37.0666667,129.92116 C38.3477833,129.92116 39.3833333,128.8818 39.3833333,127.60116 C39.3833333,126.32052 38.3477833,125.28116 37.0666667,125.28116" fill="#30A5D0"></path>
                            <path d="M48.65,125.28116 L46.3333333,125.28116 C45.0522167,125.28116 44.0166667,126.32052 44.0166667,127.60116 C44.0166667,128.8818 45.0522167,129.92116 46.3333333,129.92116 L48.65,129.92116 C49.9311167,129.92116 50.9666667,128.8818 50.9666667,127.60116 C50.9666667,126.32052 49.9311167,125.28116 48.65,125.28116" fill="#30A5D0"></path>
                            <path d="M60.2333333,125.28116 L57.9166667,125.28116 C56.63555,125.28116 55.6,126.32052 55.6,127.60116 C55.6,128.8818 56.63555,129.92116 57.9166667,129.92116 L60.2333333,129.92116 C61.51445,129.92116 62.55,128.8818 62.55,127.60116 C62.55,126.32052 61.51445,125.28116 60.2333333,125.28116" fill="#30A5D0"></path>
                            <path d="M71.8166667,125.28116 L69.5,125.28116 C68.2188833,125.28116 67.1833333,126.32052 67.1833333,127.60116 C67.1833333,128.8818 68.2188833,129.92116 69.5,129.92116 L71.8166667,129.92116 C73.0977833,129.92116 74.1333333,128.8818 74.1333333,127.60116 C74.1333333,126.32052 73.0977833,125.28116 71.8166667,125.28116" fill="#30A5D0"></path>
                            <path d="M83.4,125.28116 L81.0833333,125.28116 C79.8022167,125.28116 78.7666667,126.32052 78.7666667,127.60116 C78.7666667,128.8818 79.8022167,129.92116 81.0833333,129.92116 L83.4,129.92116 C84.6811167,129.92116 85.7166667,128.8818 85.7166667,127.60116 C85.7166667,126.32052 84.6811167,125.28116 83.4,125.28116" fill="#30A5D0"></path>
                            <path d="M94.9833333,125.28116 L92.6666667,125.28116 C91.38555,125.28116 90.35,126.32052 90.35,127.60116 C90.35,128.8818 91.38555,129.92116 92.6666667,129.92116 L94.9833333,129.92116 C96.26445,129.92116 97.3,128.8818 97.3,127.60116 C97.3,126.32052 96.26445,125.28116 94.9833333,125.28116" fill="#30A5D0"></path>
                            <path d="M106.566667,125.28116 L104.25,125.28116 C102.968883,125.28116 101.933333,126.32052 101.933333,127.60116 C101.933333,128.8818 102.968883,129.92116 104.25,129.92116 L106.566667,129.92116 C107.847783,129.92116 108.883333,128.8818 108.883333,127.60116 C108.883333,126.32052 107.847783,125.28116 106.566667,125.28116" fill="#30A5D0"></path>
                            <path d="M118.15,125.28116 L115.833333,125.28116 C114.552217,125.28116 113.516667,126.32052 113.516667,127.60116 C113.516667,128.8818 114.552217,129.92116 115.833333,129.92116 L118.15,129.92116 C119.431117,129.92116 120.466667,128.8818 120.466667,127.60116 C120.466667,126.32052 119.431117,125.28116 118.15,125.28116" fill="#30A5D0"></path>
                            <path d="M136.683333,125.28116 L127.416667,125.28116 C126.13555,125.28116 125.1,126.32052 125.1,127.60116 L125.1,136.88116 C125.1,138.1618 126.13555,139.20116 127.416667,139.20116 C128.697783,139.20116 129.733333,138.1618 129.733333,136.88116 L129.733333,129.92116 L136.683333,129.92116 C137.96445,129.92116 139,128.8818 139,127.60116 C139,126.32052 137.96445,125.28116 136.683333,125.28116" fill="#30A5D0"></path>
                            <path d="M115.833333,13.92116 L118.15,13.92116 C119.431117,13.92116 120.466667,12.8818 120.466667,11.60116 C120.466667,10.32052 119.431117,9.28116 118.15,9.28116 L115.833333,9.28116 C114.552217,9.28116 113.516667,10.32052 113.516667,11.60116 C113.516667,12.8818 114.552217,13.92116 115.833333,13.92116" fill="#F37F80"></path>
                            <path d="M106.566667,9.28116 L104.25,9.28116 C102.968883,9.28116 101.933333,10.32052 101.933333,11.60116 C101.933333,12.8818 102.968883,13.92116 104.25,13.92116 L106.566667,13.92116 C107.847783,13.92116 108.883333,12.8818 108.883333,11.60116 C108.883333,10.32052 107.847783,9.28116 106.566667,9.28116" fill="#F37F80"></path>
                            <path d="M92.6666667,13.92116 L94.9833333,13.92116 C96.26445,13.92116 97.3,12.8818 97.3,11.60116 C97.3,10.32052 96.26445,9.28116 94.9833333,9.28116 L92.6666667,9.28116 C91.38555,9.28116 90.35,10.32052 90.35,11.60116 C90.35,12.8818 91.38555,13.92116 92.6666667,13.92116" fill="#F37F80"></path>
                            <path d="M81.0833333,13.92116 L83.4,13.92116 C84.6811167,13.92116 85.7166667,12.8818 85.7166667,11.60116 C85.7166667,10.32052 84.6811167,9.28116 83.4,9.28116 L81.0833333,9.28116 C79.8022167,9.28116 78.7666667,10.32052 78.7666667,11.60116 C78.7666667,12.8818 79.8022167,13.92116 81.0833333,13.92116" fill="#F37F80"></path>
                            <path d="M69.5,13.92116 L71.8166667,13.92116 C73.0977833,13.92116 74.1333333,12.8818 74.1333333,11.60116 C74.1333333,10.32052 73.0977833,9.28116 71.8166667,9.28116 L69.5,9.28116 C68.2188833,9.28116 67.1833333,10.32052 67.1833333,11.60116 C67.1833333,12.8818 68.2188833,13.92116 69.5,13.92116" fill="#F37F80"></path>
                            <path d="M57.9166667,13.92116 L60.2333333,13.92116 C61.51445,13.92116 62.55,12.8818 62.55,11.60116 C62.55,10.32052 61.51445,9.28116 60.2333333,9.28116 L57.9166667,9.28116 C56.63555,9.28116 55.6,10.32052 55.6,11.60116 C55.6,12.8818 56.63555,13.92116 57.9166667,13.92116" fill="#F37F80"></path>
                            <path d="M46.3333333,13.92116 L48.65,13.92116 C49.9311167,13.92116 50.9666667,12.8818 50.9666667,11.60116 C50.9666667,10.32052 49.9311167,9.28116 48.65,9.28116 L46.3333333,9.28116 C45.0522167,9.28116 44.0166667,10.32052 44.0166667,11.60116 C44.0166667,12.8818 45.0522167,13.92116 46.3333333,13.92116" fill="#F37F80"></path>
                            <path d="M23.1666667,13.92116 C24.4477833,13.92116 25.4833333,12.8818 25.4833333,11.60116 C25.4833333,10.32052 24.4477833,9.28116 23.1666667,9.28116 L20.85,9.28116 C19.5688833,9.28116 18.5333333,10.32052 18.5333333,11.60116 C18.5333333,12.8818 19.5688833,13.92116 20.85,13.92116 L23.1666667,13.92116 Z" fill="#F37F80"></path>
                            <path d="M127.416667,13.92116 L136.683333,13.92116 C137.96445,13.92116 139,12.8818 139,11.60116 C139,10.32052 137.96445,9.28116 136.683333,9.28116 L129.733333,9.28116 L129.733333,2.32116 C129.733333,1.04052 128.697783,0.00116 127.416667,0.00116 C126.13555,0.00116 125.1,1.04052 125.1,2.32116 L125.1,11.60116 C125.1,12.8818 126.13555,13.92116 127.416667,13.92116" fill="#F37F80"></path>
                            <path d="M11.5833333,0.00116 C10.3022167,0.00116 9.26666667,1.04052 9.26666667,2.32116 L9.26666667,9.28116 L2.31666667,9.28116 C1.03555,9.28116 0,10.32052 0,11.60116 C0,12.8818 1.03555,13.92116 2.31666667,13.92116 L11.5833333,13.92116 C12.86445,13.92116 13.9,12.8818 13.9,11.60116 L13.9,2.32116 C13.9,1.04052 12.86445,0.00116 11.5833333,0.00116" fill="#F37F80"></path>
                            <path d="M11.5833333,20.88116 C10.3022167,20.88116 9.26666667,21.92052 9.26666667,23.20116 L9.26666667,25.52116 C9.26666667,26.8018 10.3022167,27.84116 11.5833333,27.84116 C12.86445,27.84116 13.9,26.8018 13.9,25.52116 L13.9,23.20116 C13.9,21.92052 12.86445,20.88116 11.5833333,20.88116" fill="#F37F80"></path>
                            <path d="M11.5833333,32.48116 C10.3022167,32.48116 9.26666667,33.52052 9.26666667,34.80116 L9.26666667,37.12116 C9.26666667,38.4018 10.3022167,39.44116 11.5833333,39.44116 C12.86445,39.44116 13.9,38.4018 13.9,37.12116 L13.9,34.80116 C13.9,33.52052 12.86445,32.48116 11.5833333,32.48116" fill="#FBC631"></path>
                            <path d="M11.5833333,44.08116 C10.3022167,44.08116 9.26666667,45.12052 9.26666667,46.40116 L9.26666667,48.72116 C9.26666667,50.0018 10.3022167,51.04116 11.5833333,51.04116 C12.86445,51.04116 13.9,50.0018 13.9,48.72116 L13.9,46.40116 C13.9,45.12052 12.86445,44.08116 11.5833333,44.08116" fill="#FBC631"></path>
                            <path d="M11.5833333,55.68116 C10.3022167,55.68116 9.26666667,56.72052 9.26666667,58.00116 L9.26666667,60.32116 C9.26666667,61.6018 10.3022167,62.64116 11.5833333,62.64116 C12.86445,62.64116 13.9,61.6018 13.9,60.32116 L13.9,58.00116 C13.9,56.72052 12.86445,55.68116 11.5833333,55.68116" fill="#FBC631"></path>
                            <path d="M11.5833333,67.28116 C10.3022167,67.28116 9.26666667,68.32052 9.26666667,69.60116 L9.26666667,71.92116 C9.26666667,73.2018 10.3022167,74.24116 11.5833333,74.24116 C12.86445,74.24116 13.9,73.2018 13.9,71.92116 L13.9,69.60116 C13.9,68.32052 12.86445,67.28116 11.5833333,67.28116" fill="#30A5D0"></path>
                            <path d="M11.5833333,78.88116 C10.3022167,78.88116 9.26666667,79.92052 9.26666667,81.20116 L9.26666667,83.52116 C9.26666667,84.8018 10.3022167,85.84116 11.5833333,85.84116 C12.86445,85.84116 13.9,84.8018 13.9,83.52116 L13.9,81.20116 C13.9,79.92052 12.86445,78.88116 11.5833333,78.88116" fill="#FBC631"></path>
                            <path d="M11.5833333,90.48116 C10.3022167,90.48116 9.26666667,91.52052 9.26666667,92.80116 L9.26666667,95.12116 C9.26666667,96.4018 10.3022167,97.44116 11.5833333,97.44116 C12.86445,97.44116 13.9,96.4018 13.9,95.12116 L13.9,92.80116 C13.9,91.52052 12.86445,90.48116 11.5833333,90.48116" fill="#FBC631"></path>
                            <path d="M11.5833333,102.08116 C10.3022167,102.08116 9.26666667,103.12052 9.26666667,104.40116 L9.26666667,106.72116 C9.26666667,108.0018 10.3022167,109.04116 11.5833333,109.04116 C12.86445,109.04116 13.9,108.0018 13.9,106.72116 L13.9,104.40116 C13.9,103.12052 12.86445,102.08116 11.5833333,102.08116" fill="#FBC631"></path>
                            <path d="M11.5833333,113.68116 C10.3022167,113.68116 9.26666667,114.72052 9.26666667,116.00116 L9.26666667,118.32116 C9.26666667,119.6018 10.3022167,120.64116 11.5833333,120.64116 C12.86445,120.64116 13.9,119.6018 13.9,118.32116 L13.9,116.00116 C13.9,114.72052 12.86445,113.68116 11.5833333,113.68116" fill="#FBC631"></path>
                            <path d="M127.416667,25.52116 C128.697783,25.52116 129.733333,24.4818 129.733333,23.20116 L129.733333,20.88116 C129.733333,19.60052 128.697783,18.56116 127.416667,18.56116 C126.13555,18.56116 125.1,19.60052 125.1,20.88116 L125.1,23.20116 C125.1,24.4818 126.13555,25.52116 127.416667,25.52116" fill="#F37F80"></path>
                            <path d="M127.416667,37.12116 C128.697783,37.12116 129.733333,36.0818 129.733333,34.80116 L129.733333,32.48116 C129.733333,31.20052 128.697783,30.16116 127.416667,30.16116 C126.13555,30.16116 125.1,31.20052 125.1,32.48116 L125.1,34.80116 C125.1,36.0818 126.13555,37.12116 127.416667,37.12116" fill="#FBC631"></path>
                            <path d="M127.416667,48.72116 C128.697783,48.72116 129.733333,47.6818 129.733333,46.40116 L129.733333,44.08116 C129.733333,42.80052 128.697783,41.76116 127.416667,41.76116 C126.13555,41.76116 125.1,42.80052 125.1,44.08116 L125.1,46.40116 C125.1,47.6818 126.13555,48.72116 127.416667,48.72116" fill="#FBC631"></path>
                            <path d="M127.416667,60.32116 C128.697783,60.32116 129.733333,59.2818 129.733333,58.00116 L129.733333,55.68116 C129.733333,54.40052 128.697783,53.36116 127.416667,53.36116 C126.13555,53.36116 125.1,54.40052 125.1,55.68116 L125.1,58.00116 C125.1,59.2818 126.13555,60.32116 127.416667,60.32116" fill="#FBC631"></path>
                            <path d="M127.416667,71.92116 C128.697783,71.92116 129.733333,70.8818 129.733333,69.60116 L129.733333,67.28116 C129.733333,66.00052 128.697783,64.96116 127.416667,64.96116 C126.13555,64.96116 125.1,66.00052 125.1,67.28116 L125.1,69.60116 C125.1,70.8818 126.13555,71.92116 127.416667,71.92116" fill="#30A5D0"></path>
                            <path d="M127.416667,83.52116 C128.697783,83.52116 129.733333,82.4818 129.733333,81.20116 L129.733333,78.88116 C129.733333,77.60052 128.697783,76.56116 127.416667,76.56116 C126.13555,76.56116 125.1,77.60052 125.1,78.88116 L125.1,81.20116 C125.1,82.4818 126.13555,83.52116 127.416667,83.52116" fill="#30A5D0"></path>
                            <path d="M127.416667,95.12116 C128.697783,95.12116 129.733333,94.0818 129.733333,92.80116 L129.733333,90.48116 C129.733333,89.20052 128.697783,88.16116 127.416667,88.16116 C126.13555,88.16116 125.1,89.20052 125.1,90.48116 L125.1,92.80116 C125.1,94.0818 126.13555,95.12116 127.416667,95.12116" fill="#30A5D0"></path>
                            <path d="M127.416667,120.64116 C128.697783,120.64116 129.733333,119.6018 129.733333,118.32116 L129.733333,116.00116 C129.733333,114.72052 128.697783,113.68116 127.416667,113.68116 C126.13555,113.68116 125.1,114.72052 125.1,116.00116 L125.1,118.32116 C125.1,119.6018 126.13555,120.64116 127.416667,120.64116" fill="#30A5D0"></path>
                            <path d="M11.5833333,125.28116 L2.31666667,125.28116 C1.03555,125.28116 0,126.32052 0,127.60116 C0,128.8818 1.03555,129.92116 2.31666667,129.92116 L9.26666667,129.92116 L9.26666667,136.88116 C9.26666667,138.1618 10.3022167,139.20116 11.5833333,139.20116 C12.86445,139.20116 13.9,138.1618 13.9,136.88116 L13.9,127.60116 C13.9,126.32052 12.86445,125.28116 11.5833333,125.28116" fill="#30A5D0"></path>
                            <path d="M94.80495,84.407168 C94.6868,84.692528 94.5176833,84.947728 94.3022333,85.163488 L87.35455,92.121168 C86.9028,92.573568 86.3097333,92.800928 85.7166667,92.800928 C85.1236,92.800928 84.5305333,92.573568 84.0787833,92.121168 C83.1729667,91.216368 83.1729667,89.747808 84.0787833,88.840688 L87.0742333,85.840928 L76.45,85.840928 L76.45,98.800448 L79.44545,95.800688 C80.3512667,94.893568 81.8154,94.893568 82.7212167,95.800688 C83.6270333,96.707808 83.6270333,98.176368 82.7212167,99.081168 L75.7735333,106.038848 C75.5604,106.254608 75.30325,106.423968 75.0183,106.542288 C74.7356667,106.660608 74.4345,106.720928 74.1333333,106.720928 C73.8321667,106.720928 73.531,106.658288 73.2483667,106.542288 C72.9634167,106.423968 72.7062667,106.254608 72.4931333,106.038848 L65.54545,99.081168 C64.6396333,98.176368 64.6396333,96.707808 65.54545,95.800688 C66.4512667,94.893568 67.9154,94.893568 68.8212167,95.800688 L71.8166667,98.800448 L71.8166667,85.840928 L40.3424333,85.840928 L43.3378833,88.840688 C44.2437,89.747808 44.2437,91.216368 43.3378833,92.121168 C42.8861333,92.573568 42.2930667,92.800928 41.7,92.800928 C41.1069333,92.800928 40.5138667,92.573568 40.0621167,92.121168 L33.1144333,85.163488 C32.8989833,84.947728 32.7298667,84.692528 32.6117167,84.407168 C32.3777333,83.841088 32.3777333,83.200768 32.6117167,82.634688 C32.7298667,82.349328 32.8989833,82.094128 33.1144333,81.878368 L40.0621167,74.920688 C40.9679333,74.013568 42.4320667,74.013568 43.3378833,74.920688 C44.2437,75.827808 44.2437,77.296368 43.3378833,78.201168 L40.3424333,81.200928 L71.8166667,81.200928 L71.8166667,47.361408 L68.8212167,50.361168 C67.9154,51.268288 66.4512667,51.268288 65.54545,50.361168 C64.6396333,49.456368 64.6396333,47.987808 65.54545,47.080688 L72.4931333,40.123008 C72.7062667,39.907248 72.9634167,39.737888 73.2483667,39.619568 C73.8136333,39.385248 74.4530333,39.385248 75.0183,39.619568 C75.30325,39.737888 75.5604,39.907248 75.7735333,40.123008 L82.7212167,47.080688 C83.6270333,47.987808 83.6270333,49.456368 82.7212167,50.361168 C82.2694667,50.813568 81.6764,51.040928 81.0833333,51.040928 C80.4902667,51.040928 79.8972,50.813568 79.44545,50.361168 L76.45,47.361408 L76.45,81.200928 L87.0742333,81.200928 L84.0787833,78.201168 C83.1729667,77.296368 83.1729667,75.827808 84.0787833,74.920688 C84.9846,74.013568 86.4487333,74.013568 87.35455,74.920688 L94.3022333,81.878368 C94.5176833,82.094128 94.6868,82.349328 94.80495,82.634688 C95.0389333,83.200768 95.0389333,83.841088 94.80495,84.407168 M104.25,113.680928 L104.25,34.800928 C104.25,33.520288 103.21445,32.480928 101.933333,32.480928 L27.8,32.480928 C26.5188833,32.480928 25.4833333,33.520288 25.4833333,34.800928 L25.4833333,113.680928 C25.4833333,114.961568 26.5188833,116.000928 27.8,116.000928 L101.933333,116.000928 C103.21445,116.000928 104.25,114.961568 104.25,113.680928" fill="#FBC631"></path>
                        </g>
                    </g>
                </g>
            </g>
        </g>
    </g>
</svg>