<?xml version="1.0" encoding="UTF-8"?>
<svg width="131px" height="130px" viewBox="0 0 131 130" version="1.1" xmlns="http://www.w3.org/2000/svg" xmlns:xlink="http://www.w3.org/1999/xlink">
    <!-- Generator: Sketch 50 (54983) - http://www.bohemiancoding.com/sketch -->
    <title>noun_pattern_1818855</title>
    <desc>Created with Sketch.</desc>
    <defs></defs>
    <g id="Welcome" stroke="none" stroke-width="1" fill="none" fill-rule="evenodd">
        <g id="Tools.Rocks-Design-System-App-Copy-2" transform="translate(-788.000000, -928.000000)" fill-rule="nonzero">
            <g id="noun_pattern_1818855" transform="translate(788.000000, 928.000000)">
                <g id="Group">
                    <path d="M15.4564024,99.7285714 C7.08039024,99.7285714 0.265993902,106.518551 0.265993902,114.864286 C0.265993902,123.21002 7.08039024,130 15.4564024,130 C23.8321484,130 30.6462785,123.21002 30.6462785,114.864286 C30.6462785,106.518551 23.8321484,99.7285714 15.4564024,99.7285714 Z" id="Shape" fill="#30A5D0"></path>
                    <path d="M65.5002663,99.7285714 C57.1242541,99.7285714 50.3098577,106.518551 50.3098577,114.864286 C50.3098577,123.21002 57.1242541,130 65.5002663,130 C73.8760122,130 80.6901423,123.21002 80.6901423,114.864286 C80.6901423,106.518551 73.8760122,99.7285714 65.5002663,99.7285714 Z" id="Shape" fill="#FBC631"></path>
                    <path d="M130.734006,65 C130.734006,58.0312041 125.981795,52.1509592 119.538033,50.3991429 L119.538033,29.7368367 C125.981795,27.9844898 130.734006,22.1042449 130.734006,15.1357143 C130.734006,6.78997959 123.919876,3.77022676e-15 115.54413,3.77022676e-15 C108.550274,3.77022676e-15 102.648352,4.73544898 100.890502,11.1561224 L80.1533618,11.1561224 C78.3952459,4.73544898 72.494122,0 65.5002663,0 C58.5064106,0 52.6047541,4.73544898 50.8466382,11.1561224 L30.109498,11.1561224 C28.3511159,4.73544898 22.4497256,0 15.4564024,0 C7.08039024,0 0.265993902,6.78997959 0.265993902,15.1357143 C0.265993902,23.481449 7.08039024,30.2714286 15.4564024,30.2714286 C22.4499919,30.2714286 28.3513821,25.5359796 30.109498,19.1153061 L50.8466382,19.1153061 C52.6050203,25.5359796 58.5066768,30.2714286 65.5002663,30.2714286 C72.494122,30.2714286 78.3952459,25.5359796 80.1533618,19.1153061 L100.890502,19.1153061 C102.301415,24.2670204 106.379722,28.3307143 111.550228,29.7368367 L111.550228,50.3991429 C105.106465,52.1512245 100.353455,58.0314694 100.353455,65 C100.353455,71.9685306 105.106465,77.8490408 111.550228,79.6008571 L111.550228,100.263429 C110.298805,100.603551 109.111817,101.099939 108.010299,101.729776 L78.6820081,72.5065714 C79.9568618,70.2923265 80.6901423,67.7305306 80.6901423,65 C80.6901423,56.654 73.8760122,49.8642857 65.5002663,49.8642857 C58.5064106,49.8642857 52.6047541,54.5994694 50.8466382,61.0204082 L30.109498,61.0204082 C28.3511159,54.5994694 22.4497256,49.8642857 15.4564024,49.8642857 C7.08039024,49.8642857 0.265993902,56.654 0.265993902,65 C0.265993902,73.3457347 7.08039024,80.1357143 15.4564024,80.1357143 C22.4499919,80.1357143 28.3513821,75.4002653 30.109498,68.9795918 L50.8466382,68.9795918 C52.6050203,75.4002653 58.5066768,80.1357143 65.5002663,80.1357143 C68.2408821,80.1357143 70.811624,79.4050612 73.0338313,78.1345102 L102.361856,107.357449 C101.087002,109.572224 100.353455,112.13349 100.353455,114.864286 C100.353455,123.21002 107.168384,130 115.54413,130 C123.919876,130 130.734006,123.21002 130.734006,114.864286 C130.734006,107.89549 125.981795,102.015245 119.538033,100.263429 L119.538033,79.6008571 C125.981795,77.8490408 130.734006,71.9685306 130.734006,65 Z" id="Shape" fill="#F37F80"></path>
                </g>
            </g>
        </g>
    </g>
</svg>