<?xml version="1.0" encoding="UTF-8"?>
<svg width="147px" height="147px" viewBox="0 0 147 147" version="1.1" xmlns="http://www.w3.org/2000/svg" xmlns:xlink="http://www.w3.org/1999/xlink">
    <!-- Generator: Sketch 50 (54983) - http://www.bohemiancoding.com/sketch -->
    <title>rocket</title>
    <desc>Created with Sketch.</desc>
    <defs></defs>
    <g id="Welcome" stroke="none" stroke-width="1" fill="none" fill-rule="evenodd">
        <g id="Tools.Rocks-Design-System-App-Copy-2" transform="translate(-141.000000, -906.000000)" fill-rule="nonzero">
            <g id="rocket" transform="translate(141.000000, 906.000000)">
                <path d="M19.9885253,107.011074 C18.6398925,105.662975 16.4532087,105.662975 15.104295,107.011074 L8.01147465,114.104036 C6.66284178,115.452696 6.66284178,117.639424 8.01147465,118.988365 C8.68579109,119.662414 9.56962025,120 10.4534494,120 C11.3375594,120 12.2216694,119.662695 12.895705,118.988365 L19.9885253,111.895402 C21.3371582,110.546742 21.3371582,108.360014 19.9885253,107.011074 Z" id="Shape" fill="#FBC631"></path>
                <path d="M29.9735264,117.025924 C28.6056075,115.658025 26.386159,115.658025 25.0179551,117.025924 L1.02636668,141.017439 C-0.342122228,142.385907 -0.342122228,144.604753 1.02636668,145.973506 C1.71032616,146.657455 2.607453,147 3.50429486,147 C4.40113671,147 5.29797857,146.65774 5.98222303,145.973506 L29.9735264,121.981991 C31.3423003,120.613238 31.3420154,118.394392 29.9735264,117.025924 Z" id="Shape" fill="#FBC631"></path>
                <path d="M41.9198176,127.080271 C40.4793246,125.64011 38.1444842,125.63981 36.704591,127.079971 L24.0802573,139.70402 C22.6400642,141.144181 22.6397643,143.479269 24.0802573,144.919729 C24.8003539,145.63951 25.7441873,146 26.6880206,146 C27.631854,146 28.5756874,145.63981 29.2957839,144.919729 L41.9201176,132.29628 C43.3597109,130.855819 43.3603107,128.520731 41.9198176,127.080271 Z" id="Shape" fill="#FBC631"></path>
                <path d="M107.565217,39.443596 C103.409298,35.2886836 97.8832599,33 92.0054779,33 C86.1274056,33 80.6016579,35.2883934 76.4451579,39.443596 C72.2892384,43.5985084 70,49.1234973 70,55.0001451 C70,60.8767928 72.2892384,66.4012015 76.4451579,70.5566942 C80.6010774,74.7116066 86.1271154,77 92.0054779,77 C97.8832599,77 103.409008,74.7116066 107.565217,70.5566942 C116.144928,61.9781928 116.144928,48.0215171 107.565217,39.443596 Z M102.518039,65.5107388 C99.7101812,68.3182061 95.9765286,69.8644022 92.0051876,69.8644022 C88.0335564,69.8644022 84.2999039,68.3182061 81.4920462,65.5107388 C78.6836081,62.7032714 77.1373275,58.9708138 77.1373275,55.0001451 C77.1373275,51.0294763 78.6836081,47.2970187 81.4920462,44.4895514 C84.2999039,41.6820841 88.0335564,40.135888 92.0051876,40.135888 C95.9762384,40.135888 99.7101812,41.6820841 102.518039,44.4895514 C108.31485,50.2849578 108.31485,59.7153323 102.518039,65.5107388 Z" id="Shape" fill="#F37F80"></path>
                <path d="M144.55848,4.95604097 C144.234852,3.73670698 143.289323,2.78476577 142.078567,2.45855806 C130.099207,-0.766508601 117.417893,-0.819585492 105.406341,2.30477853 C103.534085,2.79193832 101.688609,3.36430804 99.867347,4.00065693 C99.7098063,4.04397915 99.5545447,4.09849055 99.4029865,4.16419113 C89.401289,7.73870457 80.2528182,13.5295368 72.6717776,21.1424844 C72.6672194,21.146788 72.6629462,21.1510915 72.6589578,21.1551081 C72.6393008,21.1749044 72.6190741,21.193553 72.5994171,21.2133493 C72.5672252,21.2457692 72.5395915,21.2807713 72.509109,21.313765 C72.4797659,21.345898 72.4481438,21.3751621 72.4193706,21.4087296 L61.6895103,33.9850838 C44.81015,33.7974498 28.4062607,40.5141152 16.4459876,52.5591266 C12.5570399,56.4756274 9.20139463,60.8649428 6.4724935,65.6051396 C5.92181328,66.5616712 5.84831328,67.7227641 6.27392955,68.7421273 C6.69954583,69.7617774 7.57499349,70.5209204 8.63874929,70.7931905 L28.1096967,75.7850004 L24.2999468,86.2047114 C22.4185747,91.3508746 23.6908654,97.1812993 27.5410688,101.058781 L46.652493,120.30561 C49.3215685,122.993022 52.9213592,124.433557 56.5815452,124.433557 C58.2019638,124.433557 59.8343475,124.150959 61.4026324,123.569695 L71.7498938,119.732953 L76.7074403,139.342713 C76.9777949,140.414005 77.732167,141.295942 78.744074,141.724574 C79.1793763,141.908765 79.6414577,142 80.1018298,142 C80.7109112,142 81.3179984,141.840196 81.8589926,141.524029 C86.5649867,138.776081 90.9231378,135.396948 94.813225,131.479873 C106.774353,119.434001 113.440632,102.911308 113.256312,85.9132188 L125.742765,75.1084852 C125.775242,75.0803688 125.80373,75.0490965 125.835352,75.0198324 C125.868969,74.9885601 125.904579,74.9598699 125.937341,74.9271631 C125.957283,74.9070799 125.9758,74.8861361 125.995742,74.8666267 C125.999445,74.8623232 126.003719,74.8585935 126.007707,74.8542899 C133.567097,67.2198247 139.31719,58.0071109 142.866556,47.9348384 C142.930939,47.7813457 142.985637,47.6244103 143.028655,47.4648927 C143.660527,45.6315882 144.22887,43.7730363 144.712317,41.8878025 C147.813846,29.7914356 147.760858,17.0205618 144.55848,4.95604097 Z M15.0588887,65.1587199 C16.9371271,62.4532329 19.0597957,59.9055422 21.4001154,57.5483544 C30.5619758,48.3215824 42.6575686,42.619116 55.4291906,41.3231791 L31.4981037,69.3733119 L15.0588887,65.1587199 Z M30.8736385,88.6428055 L34.1341327,79.7256009 L38.6529582,84.2764423 L31.8228711,95.2845895 C30.4332083,93.3944783 30.0528886,90.8883884 30.8736385,88.6428055 Z M36.8655978,100.472067 L43.7375628,89.3967843 L48.5079407,94.2006733 L39.5731326,103.198497 L36.8655978,100.472067 Z M44.5269756,108.187725 L53.4617836,99.189901 L58.2318766,103.99379 L47.2345104,110.914443 L44.5269756,108.187725 Z M58.980551,116.948855 C56.7504812,117.775133 54.2625917,117.392406 52.3857778,115.992897 L63.3161963,109.114419 L67.8350218,113.66526 L58.980551,116.948855 Z M89.8579576,126.491219 C87.517353,128.84812 84.9873007,130.985254 82.3011321,132.877373 L78.1153356,116.320252 L105.968986,92.2184666 C104.683021,105.080288 99.019533,117.263587 89.8579576,126.491219 Z M121.055858,69.8613324 L74.3648415,110.262888 L37.5128536,73.1498045 L65.8530858,39.9319908 C65.8807195,39.9012923 65.9069288,39.8691592 65.9337079,39.8373131 L77.6298938,26.1282694 C84.0047367,19.7294915 91.6048645,14.7594862 99.9086551,11.5017127 L135.578945,47.4250133 C132.344661,55.7876361 127.40962,63.4416107 121.055858,69.8613324 Z M137.988492,39.8731759 L107.407934,9.07538152 C117.517887,6.48838516 128.144335,6.38710871 138.28705,8.7744212 C140.657567,18.9887103 140.557288,29.6907329 137.988492,39.8731759 Z" id="Shape" fill="#30A5D0"></path>
            </g>
        </g>
    </g>
</svg>